<?xml version="1.0" encoding="UTF-8"?>
<svg width="11px" height="6px" viewBox="0 0 11 6" version="1.1" xmlns="http://www.w3.org/2000/svg" xmlns:xlink="http://www.w3.org/1999/xlink">
    <!-- Generator: Sketch 55.2 (78181) - https://sketchapp.com -->
    <title>Combined Shape</title>
    <desc>Created with Sketch.</desc>
    <g id="Destop" stroke="none" stroke-width="1" fill="none" fill-rule="evenodd">
        <g id="Vault77-Python-New-320" transform="translate(-120.000000, -6179.000000)" fill="#282A2D" fill-rule="nonzero">
            <g id="9" transform="translate(0.000000, 5528.000000)">
                <g id="text" transform="translate(30.000000, 425.000000)">
                    <g id="button" transform="translate(0.000000, 199.000000)">
                        <path d="M95.5,31.002793 L99.3308234,27.2775763 C99.7161687,26.902854 100.330096,26.9039954 100.714045,27.2801479 C100.719488,27.2854803 100.724866,27.2908785 100.730179,27.2963413 C101.093379,27.6698382 101.085032,28.2670494 100.711535,28.6302498 L96.5033517,32.7224237 C96.2294868,32.9887388 95.8401664,33.0652073 95.5,32.9521351 C95.1598336,33.0652073 94.7705132,32.9887388 94.4966483,32.7224237 L90.2884648,28.6302498 C89.9149679,28.2670494 89.906621,27.6698382 90.2698214,27.2963413 C90.2751336,27.2908785 90.2805118,27.2854803 90.2859548,27.2801479 C90.6699042,26.9039954 91.2838313,26.902854 91.6691766,27.2775763 L95.5,31.002793 Z" id="Combined-Shape"></path>
                    </g>
                </g>
            </g>
        </g>
    </g>
</svg>