<?xml version="1.0" encoding="UTF-8"?>
<svg width="58px" height="58px" viewBox="0 0 58 58" version="1.1" xmlns="http://www.w3.org/2000/svg" xmlns:xlink="http://www.w3.org/1999/xlink">
    <!-- Generator: Sketch 55.2 (78181) - https://sketchapp.com -->
    <title>architecture-and-city 2</title>
    <desc>Created with Sketch.</desc>
    <g id="Destop" stroke="none" stroke-width="1" fill="none" fill-rule="evenodd">
        <g id="Vault77-Ruby-New" transform="translate(-1121.000000, -783.000000)">
            <g id="2" transform="translate(96.000000, 775.000000)">
                <g id="4" transform="translate(919.000000, 8.000000)">
                    <g id="architecture-and-city-2" transform="translate(106.000000, 0.000000)">
                        <polygon id="Path-Copy-3" fill="#FFF4CE" points="24.8463164 19.2578125 33.1536836 19.2578125 33.1536836 27.8671875 24.8463164 27.8671875 24.8463164 19.2578125"></polygon>
                        <polygon id="Path-Copy-2" fill="#FFF4CE" points="24.8463164 30.1328125 33.1536836 30.1328125 33.1536836 38.7421875 24.8463164 38.7421875 24.8463164 30.1328125"></polygon>
                        <path d="M55.734375,55.734375 L49.6171875,55.734375 L49.6171875,50.75 C49.6171875,50.1244609 49.1099141,49.6171875 48.484375,49.6171875 L45.9921875,49.6171875 L45.9921875,46.4309258 L49.5988359,46.4309258 C50.224375,46.4309258 50.7316484,45.9236523 50.7316484,45.2981133 C50.7316484,44.6725742 50.224375,44.1653008 49.5988359,44.1653008 L45.9921875,44.1653008 L45.9921875,40.9981836 L49.5988359,40.9981836 C50.224375,40.9981836 50.7316484,40.4909102 50.7316484,39.8653711 C50.7316484,39.239832 50.224375,38.7325586 49.5988359,38.7325586 L45.9921875,38.7325586 L45.9921875,35.5655547 L49.5988359,35.5655547 C50.224375,35.5655547 50.7316484,35.0582812 50.7316484,34.4327422 C50.7316484,33.8072031 50.224375,33.2999297 49.5988359,33.2999297 L45.9921875,33.2999297 L45.9921875,30.1328125 L49.5988359,30.1328125 C50.224375,30.1328125 50.7316484,29.6255391 50.7316484,29 C50.7316484,28.3744609 50.224375,27.8671875 49.5988359,27.8671875 L45.9921875,27.8671875 L45.9921875,18.5893398 L55.734375,28.3362852 L55.734375,55.734375 Z" id="Path-Copy" fill="#FFF4CE"></path>
                        <g id="architecture-and-city" fill="#FFDB60" fill-rule="nonzero">
                            <path d="M29.815625,0.331914063 C29.6037891,0.121210938 29.3126562,0 29.0147266,0 C28.7167969,0 28.4245312,0.121097656 28.2138281,0.331914063 C28.0019922,0.542617187 27.8819141,0.834882813 27.8819141,1.1328125 C27.8819141,1.43074219 28.0019922,1.72300781 28.2138281,1.93359766 C28.4245312,2.14441406 28.7167969,2.265625 29.0147266,2.265625 C29.3126562,2.265625 29.6037891,2.14441406 29.815625,1.93359766 C30.0262148,1.72300781 30.1475391,1.43074219 30.1475391,1.1328125 C30.1475391,0.834882813 30.0263281,0.542617187 29.815625,0.331914063 Z" id="Path"></path>
                            <path d="M57.6684258,27.0664023 L45.9921875,15.3843867 L45.9921875,8.3828125 C45.9921875,7.13354687 44.9758281,6.1171875 43.7265625,6.1171875 L41.4609375,6.1171875 L41.4609375,1.1328125 C41.4609375,0.507273437 40.9536641,0 40.328125,0 L33.2669648,0 C32.6414258,0 32.1341523,0.507273437 32.1341523,1.1328125 C32.1341523,1.75835156 32.6414258,2.265625 33.2669648,2.265625 L39.1953125,2.265625 L39.1953125,6.1171875 L18.8046875,6.1171875 L18.8046875,2.265625 L24.7707578,2.265625 C25.3962969,2.265625 25.9035703,1.75835156 25.9035703,1.1328125 C25.9035703,0.507273437 25.3962969,0 24.7707578,0 L17.671875,0 C17.0463359,0 16.5390625,0.507273437 16.5390625,1.1328125 L16.5390625,6.1171875 L14.2734375,6.1171875 C13.0241719,6.1171875 12.0078125,7.13354687 12.0078125,8.3828125 L12.0078125,49.6171875 L9.515625,49.6171875 C8.89008594,49.6171875 8.3828125,50.1244609 8.3828125,50.75 L8.3828125,55.734375 L2.265625,55.734375 L2.265625,30.1328125 L9.515625,30.1328125 C10.1411641,30.1328125 10.6484375,29.6255391 10.6484375,29 C10.6484375,28.3744609 10.1411641,27.8671875 9.515625,27.8671875 L1.1328125,27.8671875 C0.507273437,27.8671875 0,28.3744609 0,29 L0,56.8671875 C0,57.4927266 0.507273437,58 1.1328125,58 L56.8671875,58 C57.4927266,58 58,57.4927266 58,56.8671875 L58,27.8671875 C58,27.5668789 57.8807148,27.2788047 57.6684258,27.0664023 Z M35.4193086,8.3828125 L43.7265625,8.3828125 L43.7265625,16.9921875 L35.4193086,16.9921875 L35.4193086,8.3828125 L35.4193086,8.3828125 Z M35.4193086,19.2578125 L43.7265625,19.2578125 L43.7265625,27.8671875 L35.4193086,27.8671875 L35.4193086,19.2578125 L35.4193086,19.2578125 Z M35.4193086,30.1328125 L43.7265625,30.1328125 L43.7265625,38.7421875 L35.4193086,38.7421875 L35.4193086,30.1328125 L35.4193086,30.1328125 Z M35.4193086,41.0078125 L43.7265625,41.0078125 L43.7265625,49.6171875 L35.4193086,49.6171875 L35.4193086,41.0078125 L35.4193086,41.0078125 Z M24.8463164,8.3828125 L33.1536836,8.3828125 L33.1536836,16.9921875 L24.8463164,16.9921875 L24.8463164,8.3828125 L24.8463164,8.3828125 Z M24.8463164,19.2578125 L33.1536836,19.2578125 L33.1536836,27.8671875 L24.8463164,27.8671875 L24.8463164,19.2578125 L24.8463164,19.2578125 Z M24.8463164,30.1328125 L33.1536836,30.1328125 L33.1536836,38.7421875 L24.8463164,38.7421875 L24.8463164,30.1328125 L24.8463164,30.1328125 Z M24.8463164,41.0078125 L33.1536836,41.0078125 L33.1536836,49.6171875 L24.8463164,49.6171875 L24.8463164,41.0078125 L24.8463164,41.0078125 Z M14.2734375,8.3828125 L22.5806914,8.3828125 L22.5806914,16.9921875 L14.2734375,16.9921875 L14.2734375,8.3828125 Z M14.2734375,19.2578125 L22.5806914,19.2578125 L22.5806914,27.8671875 L14.2734375,27.8671875 L14.2734375,19.2578125 Z M14.2734375,30.1328125 L22.5806914,30.1328125 L22.5806914,38.7421875 L14.2734375,38.7421875 L14.2734375,30.1328125 Z M14.2734375,41.0078125 L22.5806914,41.0078125 L22.5806914,49.6171875 L14.2734375,49.6171875 L14.2734375,41.0078125 Z M47.3515625,55.734375 L10.6484375,55.734375 L10.6484375,51.8828125 L44.859375,51.8828125 L47.3515625,51.8828125 L47.3515625,55.734375 Z M55.734375,55.734375 L49.6171875,55.734375 L49.6171875,50.75 C49.6171875,50.1244609 49.1099141,49.6171875 48.484375,49.6171875 L45.9921875,49.6171875 L45.9921875,46.4309258 L49.5988359,46.4309258 C50.224375,46.4309258 50.7316484,45.9236523 50.7316484,45.2981133 C50.7316484,44.6725742 50.224375,44.1653008 49.5988359,44.1653008 L45.9921875,44.1653008 L45.9921875,40.9981836 L49.5988359,40.9981836 C50.224375,40.9981836 50.7316484,40.4909102 50.7316484,39.8653711 C50.7316484,39.239832 50.224375,38.7325586 49.5988359,38.7325586 L45.9921875,38.7325586 L45.9921875,35.5655547 L49.5988359,35.5655547 C50.224375,35.5655547 50.7316484,35.0582812 50.7316484,34.4327422 C50.7316484,33.8072031 50.224375,33.2999297 49.5988359,33.2999297 L45.9921875,33.2999297 L45.9921875,30.1328125 L49.5988359,30.1328125 C50.224375,30.1328125 50.7316484,29.6255391 50.7316484,29 C50.7316484,28.3744609 50.224375,27.8671875 49.5988359,27.8671875 L45.9921875,27.8671875 L45.9921875,18.5893398 L55.734375,28.3362852 L55.734375,55.734375 Z" id="Shape"></path>
                            <path d="M7.93750391,45.3804687 C7.72691406,45.1685195 7.43464844,45.0485547 7.13671875,45.0485547 C6.83878906,45.0485547 6.54652344,45.1686328 6.33582031,45.3804687 C6.12511719,45.5911719 6.00390625,45.8834375 6.00390625,46.1813672 C6.00390625,46.4792969 6.12500391,46.7715625 6.33582031,46.9822656 C6.54652344,47.1928555 6.83878906,47.3141797 7.13671875,47.3141797 C7.43464844,47.3141797 7.72691406,47.1929687 7.93750391,46.9822656 C8.14820703,46.7715625 8.26953125,46.4792969 8.26953125,46.1813672 C8.26953125,45.8834375 8.14832031,45.5911719 7.93750391,45.3804687 Z" id="Path"></path>
                            <path d="M7.13671875,32.7070156 C6.51117969,32.7070156 6.00390625,33.2142891 6.00390625,33.8398281 L6.00390625,41.9140625 C6.00390625,42.5396016 6.51117969,43.046875 7.13671875,43.046875 C7.76225781,43.046875 8.26953125,42.5396016 8.26953125,41.9140625 L8.26953125,33.8398281 C8.26953125,33.2142891 7.76225781,32.7070156 7.13671875,32.7070156 Z" id="Path"></path>
                        </g>
                    </g>
                </g>
            </g>
        </g>
    </g>
</svg>