<?xml version="1.0" encoding="UTF-8"?>
<svg width="16px" height="8px" viewBox="0 0 16 8" version="1.1" xmlns="http://www.w3.org/2000/svg" xmlns:xlink="http://www.w3.org/1999/xlink">
    <!-- Generator: Sketch 55.2 (78181) - https://sketchapp.com -->
    <title>Combined Shape</title>
    <desc>Created with Sketch.</desc>
    <g id="Symbols" stroke="none" stroke-width="1" fill="none" fill-rule="evenodd">
        <g id="я-готов" transform="translate(-205.000000, -165.000000)" fill="#2D2C28" fill-rule="nonzero">
            <g id="Group-23">
                <g id="button" transform="translate(87.000000, 151.000000)">
                    <g id="Group-20" transform="translate(43.000000, 10.666667)">
                        <path d="M89.6505162,6.15665102 C89.602293,6.26220088 89.5347432,6.36108535 89.4478667,6.4479618 L85.4356734,10.4601551 C85.0451491,10.8506794 84.4119842,10.8506794 84.0214599,10.4601551 C83.6309356,10.0696308 83.6309356,9.43646584 84.0214599,9.04594155 L86.8204498,6.24695167 L76.2346633,6.24695167 C75.6823786,6.24695167 75.2346633,5.79923642 75.2346633,5.24695167 C75.2346633,4.69466692 75.6823786,4.24695167 76.2346633,4.24695167 L89.2346633,4.24695167 C89.7869481,4.24695167 90.2346633,4.69466692 90.2346633,5.24695167 C90.2346633,5.65085202 89.9952081,5.99882461 89.6505162,6.15665102 Z" id="Combined-Shape" transform="translate(82.734663, 7.500000) scale(-1, 1) rotate(-180.000000) translate(-82.734663, -7.500000) "></path>
                    </g>
                </g>
            </g>
        </g>
    </g>
</svg>