<?xml version="1.0" encoding="UTF-8"?>
<svg width="18px" height="18px" viewBox="0 0 18 18" version="1.1" xmlns="http://www.w3.org/2000/svg" xmlns:xlink="http://www.w3.org/1999/xlink">
    <!-- Generator: Sketch 55.2 (78181) - https://sketchapp.com -->
    <title>calendar (6) 2</title>
    <desc>Created with Sketch.</desc>
    <g id="Destop" stroke="none" stroke-width="1" fill="none" fill-rule="evenodd">
        <g id="Vault77-Ruby-New" transform="translate(-719.000000, -4518.000000)" fill="#928F87" fill-rule="nonzero" stroke="#928F87" stroke-width="0.2">
            <g id="8" transform="translate(48.000000, 4402.000000)">
                <g id="1" transform="translate(67.000000, 110.000000)">
                    <g id="months" transform="translate(597.000000, 0.000000)">
                        <g id="Group-33">
                            <g id="calendar-(6)-2" transform="translate(8.000000, 7.000000)">
                                <g id="calendar-(6)">
                                    <path d="M16,3.75 L16,5.15625 C16,5.5014375 15.7201875,5.78125 15.375,5.78125 C15.0298125,5.78125 14.75,5.5014375 14.75,5.15625 L14.75,3.75 C14.75,3.06075 14.18925,2.5 13.5,2.5 L12.6875,2.5 L12.6875,3.125 C12.6875,3.4701875 12.4076875,3.75 12.0625,3.75 C11.7173125,3.75 11.4375,3.4701875 11.4375,3.125 L11.4375,2.5 L8.59375,2.5 L8.59375,3.125 C8.59375,3.4701875 8.3139375,3.75 7.96875,3.75 C7.6235625,3.75 7.34375,3.4701875 7.34375,3.125 L7.34375,2.5 L4.53125,2.5 L4.53125,3.125 C4.53125,3.4701875 4.2514375,3.75 3.90625,3.75 C3.5610625,3.75 3.28125,3.4701875 3.28125,3.125 L3.28125,2.5 L2.5,2.5 C1.81075,2.5 1.25,3.06075 1.25,3.75 L1.25,13.5 C1.25,14.18925 1.81075,14.75 2.5,14.75 L13.5,14.75 C14.18925,14.75 14.75,14.18925 14.75,13.5 C14.75,13.1548125 15.0298125,12.875 15.375,12.875 C15.7201875,12.875 16,13.1548125 16,13.5 C16,14.8785 14.8785,16 13.5,16 L2.5,16 C1.1215,16 0,14.8785 0,13.5 L0,3.75 C0,2.3715 1.1215,1.25 2.5,1.25 L3.28125,1.25 L3.28125,0.625 C3.28125,0.2798125 3.5610625,0 3.90625,0 C4.2514375,0 4.53125,0.2798125 4.53125,0.625 L4.53125,1.25 L7.34375,1.25 L7.34375,0.625 C7.34375,0.2798125 7.6235625,0 7.96875,0 C8.3139375,0 8.59375,0.2798125 8.59375,0.625 L8.59375,1.25 L11.4375,1.25 L11.4375,0.625 C11.4375,0.2798125 11.7173125,0 12.0625,0 C12.4076875,0 12.6875,0.2798125 12.6875,0.625 L12.6875,1.25 L13.5,1.25 C14.8785,1.25 16,2.3715 16,3.75 Z M12.9309062,12.2210312 C13.053125,12.3444375 13.2140312,12.40625 13.375,12.40625 C13.5339062,12.40625 13.6929063,12.346 13.81475,12.2253438 L15.4451563,10.6108125 C15.8029687,10.2559687 16,9.78378125 16,9.28125 C16,8.77965625 15.8037187,8.30834375 15.4472187,7.9536875 L13.8502813,6.3414375 C13.607375,6.0961875 13.211625,6.09428125 12.9664063,6.33721875 C12.7211562,6.580125 12.7192812,6.97584375 12.9621875,7.22109375 L14.3837187,8.65625061 L9.34375,8.65625061 C8.9985625,8.65625061 8.71875,8.9360625 8.71875,9.28125 C8.71875,9.6264375 8.9985625,9.90625 9.34375,9.90625 L14.3802188,9.90625 L12.9352188,11.3371562 C12.6899688,11.5800312 12.6880312,11.97575 12.9309062,12.2210312 Z" id="Shape"></path>
                                </g>
                            </g>
                        </g>
                    </g>
                </g>
            </g>
        </g>
    </g>
</svg>