<?xml version="1.0" encoding="UTF-8"?>
<svg width="829px" height="292px" viewBox="0 0 829 292" version="1.1" xmlns="http://www.w3.org/2000/svg" xmlns:xlink="http://www.w3.org/1999/xlink">
    <!-- Generator: Sketch 55.2 (78181) - https://sketchapp.com -->
    <title>FAQ</title>
    <desc>Created with Sketch.</desc>
    <defs>
        <linearGradient x1="50%" y1="0%" x2="50%" y2="100%" id="linearGradient-1">
            <stop stop-color="#2D2C28" offset="0%"></stop>
            <stop stop-color="#2D2C28" stop-opacity="0" offset="100%"></stop>
        </linearGradient>
    </defs>
    <g id="Destop" stroke="none" stroke-width="1" fill="none" fill-rule="evenodd" opacity="0.0489677054">
        <g id="Vault77-Main-New" transform="translate(-297.000000, -5132.000000)" fill="url(#linearGradient-1)" fill-rule="nonzero">
            <g id="8" transform="translate(230.000000, 5132.000000)">
                <path d="M161.2,292 L161.2,196 L247.2,196 L247.2,118.4 L160.8,118.4 L160.8,88.4 L258.8,88.4 L258.8,8.8 L67.6,8.8 L67.6,292 L161.2,292 Z M346.4,292 L360.4,250.4 L450.4,250.4 L465.2,292 L568.8,292 L458.4,8.8 L357.2,8.8 L245.6,292 L346.4,292 Z M429.2,177.6 L383.2,177.6 L406.4,107.6 L429.2,177.6 Z M896,292 L896,217.2 L851.2,220 L851.2,218.4 C854.666667,215.466667 858.2,211.4 861.8,206.2 C865.4,201 868.6,195.133333 871.4,188.6 C874.2,182.066667 876.466667,174.933333 878.2,167.2 C879.933333,159.466667 880.8,151.6 880.8,143.6 C880.8,122.8 876.933333,103.6 869.2,86 C861.466667,68.4 850.733333,53.3333333 837,40.8 C823.266667,28.2666667 806.933333,18.4666667 788,11.4 C769.066667,4.33333333 748.4,0.8 726,0.8 C703.6,0.8 682.8,4.33333333 663.6,11.4 C644.4,18.4666667 627.8,28.4666667 613.8,41.4 C599.8,54.3333333 588.8,69.8 580.8,87.8 C572.8,105.8 568.8,125.6 568.8,147.2 C568.8,170.666667 572.533333,191.4 580,209.4 C587.466667,227.4 597.866667,242.533333 611.2,254.8 C624.533333,267.066667 640.533333,276.333333 659.2,282.6 C677.866667,288.866667 698.4,292 720.8,292 L720.8,292 L896,292 Z M726,212 C718,212 710.533333,210.466667 703.6,207.4 C696.666667,204.333333 690.733333,200 685.8,194.4 C680.866667,188.8 677,182.133333 674.2,174.4 C671.4,166.666667 670,158.133333 670,148.8 C670,139.733333 671.4,131.4 674.2,123.8 C677,116.2 680.866667,109.8 685.8,104.6 C690.733333,99.4 696.666667,95.3333333 703.6,92.4 C710.533333,89.4666667 718,88 726,88 C734,88 741.4,89.4666667 748.2,92.4 C755,95.3333333 760.933333,99.4 766,104.6 C771.066667,109.8 775,116.2 777.8,123.8 C780.6,131.4 782,139.733333 782,148.8 C782,158.133333 780.6,166.666667 777.8,174.4 C775,182.133333 771.066667,188.8 766,194.4 C760.933333,200 755,204.333333 748.2,207.4 C741.4,210.466667 734,212 726,212 Z" id="FAQ"></path>
            </g>
        </g>
    </g>
</svg>