<?xml version="1.0" encoding="UTF-8"?>
<svg width="16px" height="16px" viewBox="0 0 16 16" version="1.1" xmlns="http://www.w3.org/2000/svg" xmlns:xlink="http://www.w3.org/1999/xlink">
    <!-- Generator: Sketch 55.2 (78181) - https://sketchapp.com -->
    <title>instagram (3) 2</title>
    <desc>Created with Sketch.</desc>
    <g id="Destop" stroke="none" stroke-width="1" fill="none" fill-rule="evenodd">
        <g id="Vault77-Python-New-320" transform="translate(-192.000000, -6485.000000)" fill="#2D2C28" fill-rule="nonzero">
            <g id="10" transform="translate(30.000000, 6328.000000)">
                <g id="1" transform="translate(0.000000, 140.000000)">
                    <g id="socials" transform="translate(105.000000, 5.000000)">
                        <g id="inst" transform="translate(45.000000, 0.000000)">
                            <g id="instagram-(3)-2" transform="translate(12.000000, 12.000000)">
                                <g id="instagram-(3)">
                                    <path d="M11.3522813,0 L4.64775,0 C2.08496875,0 0,2.08496875 0,4.64775 L0,11.35225 C0,13.9150313 2.08496875,16 4.64775,16 L11.35225,16 C13.9150313,16 16,13.9150313 16,11.3522813 L16,4.64775 C16,2.08496875 13.9150313,0 11.3522813,0 Z M14.75,11.35225 C14.75,13.2257813 13.2257813,14.75 11.3522813,14.75 L4.64775,14.75 C2.77421875,14.75 1.25,13.2257813 1.25,11.3522813 L1.25,4.64775 C1.25,2.77421875 2.77421875,1.25 4.64775,1.25 L11.35225,1.25 C13.2257813,1.25 14.75,2.77421875 14.75,4.64775 L14.75,11.35225 Z" id="Shape"></path>
                                    <path d="M8,3.72093023 C5.64049612,3.72093023 3.72093023,5.64049612 3.72093023,8 C3.72093023,10.3595039 5.64049612,12.2790698 8,12.2790698 C10.3595039,12.2790698 12.2790698,10.3595039 12.2790698,8 C12.2790698,5.64049612 10.3595039,3.72093023 8,3.72093023 Z M8,11.0387597 C6.32443411,11.0387597 4.96124031,9.67556589 4.96124031,8 C4.96124031,6.32443411 6.32443411,4.96124031 8,4.96124031 C9.67556589,4.96124031 11.0387597,6.32443411 11.0387597,8 C11.0387597,9.67556589 9.67556589,11.0387597 8,11.0387597 Z" id="Shape"></path>
                                    <circle id="Oval" cx="12.372093" cy="3.62790698" r="1"></circle>
                                </g>
                            </g>
                        </g>
                    </g>
                </g>
            </g>
        </g>
    </g>
</svg>