<?xml version="1.0" encoding="UTF-8"?>
<svg width="50px" height="66px" viewBox="0 0 50 66" version="1.1" xmlns="http://www.w3.org/2000/svg" xmlns:xlink="http://www.w3.org/1999/xlink">
    <!-- Generator: Sketch 55.2 (78181) - https://sketchapp.com -->
    <title>files-and-folders</title>
    <desc>Created with Sketch.</desc>
    <g id="Destop" stroke="none" stroke-width="1" fill="none" fill-rule="evenodd">
        <g id="Vault77-Main-New" transform="translate(-525.000000, -775.000000)" fill-rule="nonzero">
            <g id="2" transform="translate(96.000000, 775.000000)">
                <g transform="translate(319.000000, 0.000000)" id="files-and-folders">
                    <g transform="translate(110.000000, 0.000000)">
                        <polygon id="Path" fill="#FFF4CE" points="39.8852459 1 39.8852459 10 37.8852459 6.625 35.8852459 10 35.8852459 1"></polygon>
                        <path d="M45.3138141,45.3938854 C44.5811134,45.131313 43.8076761,44.9978294 43.0281004,45 L40.7423868,45 C36.9555576,45 33.8852459,48.0223567 33.8852459,51.7500067 L33.8852459,54 L49.8852459,54 L49.8852459,51.7500067 C49.8885896,48.8902739 48.0548847,46.340904 45.3138141,45.3938854 L45.3138141,45.3938854 Z" id="Path" fill="#FFF4CE"></path>
                        <polygon id="Path" fill="#FFF4CE" points="14.8852459 41 11.8852459 41 11.8852459 59 17.8852459 59 17.8852459 41"></polygon>
                        <g id="Group" transform="translate(0.885246, 0.000000)" fill="#FFDB60">
                            <path d="M41.126641,44.000191 L38.9073281,44.000191 C34.6198715,44.005562 31.1451514,47.4500595 31.1397332,51.7002244 L31.1397332,58.300253 C31.1451514,62.5504179 34.6198715,65.9949154 38.9073281,66.0002865 L41.126641,66.0002865 C45.4140976,65.9949154 48.8888177,62.5504179 48.8942359,58.300253 L48.8942359,51.7002244 C48.8888177,47.4500595 45.4140976,44.005562 41.126641,44.000191 Z M38.9073281,46.2002005 L41.126641,46.2002005 C44.1895744,46.2039603 46.6711302,48.663932 46.674923,51.7002244 L46.674923,52.8002292 L33.359046,52.8002292 L33.359046,51.7002244 C33.3628388,48.663932 35.8443947,46.2039603 38.9073281,46.2002005 Z M41.126641,63.8002769 L38.9073281,63.8002769 C35.8443947,63.7965171 33.3628388,61.3365455 33.359046,58.300253 L33.359046,55.0002387 L46.674923,55.0002387 L46.674923,58.300253 C46.6711302,61.3365455 44.1895744,63.7965171 41.126641,63.8002769 Z" id="Shape"></path>
                            <polygon id="Path" points="38.9073281 48.4002101 41.126641 48.4002101 41.126641 50.6002196 38.9073281 50.6002196"></polygon>
                            <path d="M2.28866636,53.9002339 L2.28866636,3.30001432 C2.28866636,2.69254095 2.78551932,2.20000955 3.39832278,2.20000955 L33.359046,2.20000955 L33.359046,9.90004297 C33.359046,10.3850549 33.6787225,10.8125958 34.1468588,10.9527819 C34.6149951,11.0935052 35.1205173,10.9141099 35.3919713,10.5107389 L36.6880153,8.57982246 L37.9840593,10.5069791 C38.2549715,10.909813 38.7599519,11.0897454 39.2275464,10.9500964 C39.6951409,10.8104473 40.015901,10.3839806 40.0169845,9.90004297 L40.0169845,2.20000955 L41.126641,2.20000955 C41.7394444,2.20000955 42.2362974,2.69254095 42.2362974,3.30001432 L42.2362974,41.8001814 L44.4556102,41.8001814 L44.4556102,3.30001432 C44.4556102,1.47759434 42.9650512,0 41.126641,0 L3.39832278,0 C1.55991255,0 0.0693535261,1.47759434 0.0693535261,3.30001432 L0.0693535261,53.9002339 C0.0693535261,55.7226539 1.55991255,57.2002483 3.39832278,57.2002483 L6.72729203,57.2002483 L6.72729203,55.0002387 L3.39832278,55.0002387 C2.78551932,55.0002387 2.28866636,54.5077073 2.28866636,53.9002339 Z M37.7976717,6.27024199 L37.6112841,5.99309249 C37.3934708,5.70412632 37.0515795,5.53439902 36.6880153,5.53439902 C36.3244511,5.53439902 35.9825598,5.70412632 35.7647465,5.99309249 L35.5783589,6.27024199 L35.5783589,2.20000955 L37.7976717,2.20000955 L37.7976717,6.27024199 Z" id="Shape"></path>
                            <polygon id="Path" points="20.043169 55.0002387 28.9204204 55.0002387 28.9204204 57.2002483 20.043169 57.2002483"></polygon>
                            <polygon id="Path" points="6.72729203 6.60002865 15.6045434 6.60002865 15.6045434 8.80003819 6.72729203 8.80003819"></polygon>
                            <polygon id="Path" points="6.72729203 11.0000477 20.043169 11.0000477 20.043169 13.2000573 6.72729203 13.2000573"></polygon>
                            <polygon id="Path" points="6.72729203 17.6000764 37.7976717 17.6000764 37.7976717 19.8000859 6.72729203 19.8000859"></polygon>
                            <polygon id="Path" points="6.72729203 22.0000955 37.7976717 22.0000955 37.7976717 24.200105 6.72729203 24.200105"></polygon>
                            <polygon id="Path" points="6.72729203 26.4001146 37.7976717 26.4001146 37.7976717 28.6001241 6.72729203 28.6001241"></polygon>
                            <path d="M14.383813,33.6086908 C14.1752105,33.2617167 13.7981007,33.0490204 13.3906487,33.0490204 C12.9837387,33.0490204 12.6060869,33.2617167 12.3974846,33.6086908 L9.06851532,40.2087194 C8.98995082,40.3607221 8.94823037,40.528838 8.94660486,40.7001767 L8.94660486,61.6002674 C8.94660486,64.0301607 10.9340168,66.0002865 13.3852305,66.0002865 C15.8364442,66.0002865 17.8238562,64.0301607 17.8238562,61.6002674 L17.8238562,40.7001767 C17.8238562,40.5293751 17.784303,40.3612591 17.7073639,40.2087194 L14.383813,33.6086908 Z M13.3852305,36.5595825 L14.9185937,39.6001719 L11.8518673,39.6001719 L13.3852305,36.5595825 Z M12.2755741,41.8001814 L12.2755741,56.1002435 L14.4948869,56.1002435 L14.4948869,41.8001814 L15.6045434,41.8001814 L15.6045434,58.300253 L11.1659177,58.300253 L11.1659177,41.8001814 L12.2755741,41.8001814 Z M13.3852305,63.8002769 C12.1596236,63.8002769 11.1659177,62.8152141 11.1659177,61.6002674 L11.1659177,60.5002626 L15.6045434,60.5002626 L15.6045434,61.6002674 C15.6045434,62.8152141 14.6108374,63.8002769 13.3852305,63.8002769 Z" id="Shape"></path>
                            <polygon id="Path" points="22.2624819 39.6001719 37.7976717 39.6001719 37.7976717 41.8001814 22.2624819 41.8001814"></polygon>
                            <polygon id="Path" points="22.2624819 35.2001528 37.7976717 35.2001528 37.7976717 37.4001623 22.2624819 37.4001623"></polygon>
                        </g>
                    </g>
                </g>
            </g>
        </g>
    </g>
</svg>