<?xml version="1.0" encoding="UTF-8"?>
<svg width="64px" height="65px" viewBox="0 0 64 65" version="1.1" xmlns="http://www.w3.org/2000/svg" xmlns:xlink="http://www.w3.org/1999/xlink">
    <!-- Generator: Sketch 55.2 (78181) - https://sketchapp.com -->
    <title>online-class</title>
    <desc>Created with Sketch.</desc>
    <g id="Destop" stroke="none" stroke-width="1" fill="none" fill-rule="evenodd">
        <g id="Vault77-Main-New" transform="translate(-1118.000000, -776.000000)" fill-rule="nonzero">
            <g id="2" transform="translate(96.000000, 775.000000)">
                <g id="4" transform="translate(919.000000, 1.000000)">
                    <g id="online-class" transform="translate(103.000000, 0.000000)">
                        <path d="M40.3928571,64 L15.75,64 L15.75,59.0593668 C15.7541853,56.0361491 17.6919643,53.3878998 20.4856306,52.5872028 L26.0787179,51 L30.75,55.0575195 L35.4212821,51 L41.0143694,52.5872028 C43.8080357,53.3878998 45.7458147,56.0361491 45.75,59.0593668 L45.75,64 L40.3928571,64 Z" id="Path" fill="#FFF4CE"></path>
                        <polygon id="Path" fill="#FFF4CE" points="44.75 29.5 38.2884615 32.0410645 30.75 35 23.2115385 32.0410645 16.75 29.5 30.75 24"></polygon>
                        <path d="M38.75,32 L38.75,38.9286397 C38.75,38.9286397 38.3429828,39.1253582 37.6785714,39.3948979 C35.6549944,40.3046581 33.4760394,40.8487947 31.25,41 C29.0239606,40.8487947 26.8450056,40.3046581 24.8214286,39.3948979 C24.1570172,39.1253582 23.75,38.9286397 23.75,38.9286397 L23.75,32 L31.25,34.785919 L38.75,32 Z" id="Path" fill="#FFF4CE"></path>
                        <path d="M36.5735294,16 C36.577249,17.1030274 37.5496467,17.996582 38.75,18 L1.75,18 L1.75,12 C1.75371959,10.8969726 2.72611727,10.003418 3.92647059,10 L36.5735294,10 L36.5735294,16 Z" id="Path" fill="#FFF4CE"></path>
                        <g id="Group" transform="translate(0.750000, 0.000000)" fill="#FFDB60">
                            <path d="M58.6551724,61.75 C58.6551724,62.3482666 58.1688191,62.8333333 57.5689655,62.8333333 L46.7068966,62.8333333 L46.7068966,59.128418 C46.6962891,55.7123209 44.4066625,52.720988 41.1050816,51.8106282 L34.7586207,50.0888265 L34.7586207,48.4490153 C36.7931371,47.0361328 38.0092857,44.722412 38.0172414,42.25 L38.0172414,40.1991781 C38.2940968,40.0727539 38.4691204,39.9828287 38.502534,39.9696045 C38.8711442,39.7860515 39.1034483,39.4104818 39.1034483,39 L39.1034483,32.5 L44.924308,30.2672119 C45.3448949,30.1069336 45.6228112,29.7043864 45.6228112,29.2552896 C45.6228112,28.806193 45.3448949,28.4041748 44.924308,28.2433675 L30.8036184,22.8267008 C30.5527513,22.731486 30.2748349,22.731486 30.0239678,22.8267008 L15.9032782,28.2433675 C15.4853431,28.4036458 15.209018,28.8035482 15.2068966,29.25 L15.2068966,34.218099 L12.2665005,37.1507161 L13.802465,38.6826172 L15.2068966,37.281901 L15.2068966,39 L17.3793103,39 L17.3793103,37.281901 L18.7837419,38.6826172 L20.3197064,37.1507161 L17.3793103,34.218099 L17.3793103,30.8273926 L21.7241379,32.5 L21.7241379,39 C21.7220164,39.4125977 21.9548509,39.7908122 22.3250522,39.9748942 C22.3584658,39.9912923 22.5334894,40.0780437 22.8103448,40.2044677 L22.8103448,42.25 C22.7912513,44.7298177 24.0132341,47.0562338 26.0689655,48.4521891 L26.0689655,50.0888265 L19.7187921,51.8116862 C16.4193326,52.7225749 14.1307668,55.7133789 14.1206897,59.128418 L14.1206897,62.8333333 L3.25862069,62.8333333 C2.65876714,62.8333333 2.17241379,62.3482666 2.17241379,61.75 L2.17241379,19.5 L32.5862069,19.5 L32.5862069,17.3333333 L2.17241379,17.3333333 L2.17241379,11.9166667 C2.17241379,11.3184 2.65876714,10.8333333 3.25862069,10.8333333 L32.5862069,10.8333333 L32.5862069,8.66666667 L3.25862069,8.66666667 C1.45906018,8.66666667 -3.8589821e-15,10.1218669 -3.8589821e-15,11.9166667 L-3.8589821e-15,61.75 C-3.8589821e-15,63.5447998 1.45906018,65 3.25862069,65 L57.5689655,65 C59.368526,65 60.8275862,63.5447998 60.8275862,61.75 L60.8275862,21.6666667 L58.6551724,21.6666667 L58.6551724,61.75 Z M28.2413793,50.9166667 L28.2413793,49.5085449 C29.6569487,49.9428304 31.1706375,49.9428304 32.5862069,49.5085449 L32.5862069,50.9166667 C32.5899196,51.2271729 32.7278169,51.520752 32.9654247,51.721761 L30.4137931,53.8418782 L27.8621615,51.722819 C28.0997693,51.5218099 28.238197,51.2277018 28.2413793,50.9166667 Z M30.4137931,24.9933675 L41.5081662,29.25 L30.4137931,33.5066325 L19.3194201,29.25 L30.4137931,24.9933675 Z M30.0239678,35.6785888 C30.2748349,35.7738037 30.5527513,35.7738037 30.8036184,35.6785888 L36.9310345,33.3278401 L36.9310345,38.3107503 C34.8848499,39.2925211 32.6763705,39.8934326 30.4137931,40.0833333 C28.1512157,39.8918458 25.9427363,39.2909343 23.8965517,38.3096924 L23.8965517,33.3267823 L30.0239678,35.6785888 Z M24.9826971,42.25 L24.9826971,41.0873209 C26.7165527,41.7702229 28.5516483,42.1632487 30.4137931,42.25 C32.2759379,42.1632487 34.1110335,41.7702229 35.8448276,41.0873209 L35.8448276,42.25 C35.8421757,44.1855062 34.804233,45.9729005 33.121885,46.9382731 C31.4395374,47.9036458 29.368425,47.899943 27.6897899,46.9287516 C27.2798104,46.6965333 26.9043053,46.4087729 26.5728213,46.0739339 C25.5491985,45.0646565 24.9758638,43.6861573 24.9826971,42.25 Z M16.2931034,59.128418 C16.3010591,56.6888021 17.9362035,54.5522868 20.293718,53.901123 L25.4171353,52.5115153 L29.7184722,56.0863037 C30.1215567,56.4211426 30.7060295,56.4211426 31.1091141,56.0863037 L35.4104509,52.5115153 L40.530686,53.9000651 C42.8892611,54.5506999 44.5254664,56.6877442 44.5344828,59.128418 L44.5344828,62.8333333 L41.2758621,62.8333333 L41.2758621,58.5 L39.1034483,58.5 L39.1034483,62.8333333 L21.7241379,62.8333333 L21.7241379,58.5 L19.5517241,58.5 L19.5517241,62.8333333 L16.2931034,62.8333333 L16.2931034,59.128418 Z" id="Shape"></path>
                            <polygon id="Path" points="6.51724138 13 8.68965517 13 8.68965517 15.1666667 6.51724138 15.1666667"></polygon>
                            <polygon id="Path" points="10.862069 13 13.0344828 13 13.0344828 15.1666667 10.862069 15.1666667"></polygon>
                            <polygon id="Path" points="15.2068966 13 17.3793103 13 17.3793103 15.1666667 15.2068966 15.1666667"></polygon>
                            <path d="M59.7413793,0 L38.0172414,0 C36.2176809,0 34.7586207,1.45520023 34.7586207,3.25 L34.7586207,16.25 C34.7586207,18.0447998 36.2176809,19.5 38.0172414,19.5 L41.2758621,19.5 L41.2758621,23.8333333 C41.2758621,24.2935385 41.5670376,24.7034912 42.002475,24.8558349 C42.1180967,24.8955078 42.2395524,24.9161377 42.362069,24.9166667 C42.6919619,24.9166667 43.0043525,24.7674968 43.2101378,24.5104167 L47.2282547,19.5 L59.7413793,19.5 C61.5409398,19.5 63,18.0447998 63,16.25 L63,3.25 C63,1.45520023 61.5409398,0 59.7413793,0 Z M60.8275862,16.25 C60.8275862,16.8482666 60.3412329,17.3333333 59.7413793,17.3333333 L46.7068966,17.3333333 C46.3770036,17.3333333 46.064613,17.4825032 45.8588278,17.7395833 L43.4482759,20.7446696 L43.4482759,18.4166667 C43.4482759,17.8184 42.9619225,17.3333333 42.362069,17.3333333 L38.0172414,17.3333333 C37.4173878,17.3333333 36.9310345,16.8482666 36.9310345,16.25 L36.9310345,3.25 C36.9310345,2.65173336 37.4173878,2.16666667 38.0172414,2.16666667 L59.7413793,2.16666667 C60.3412329,2.16666667 60.8275862,2.65173336 60.8275862,3.25 L60.8275862,16.25 Z" id="Shape"></path>
                            <polygon id="Path" points="41.2758621 4.33333333 56.4827586 4.33333333 56.4827586 6.5 41.2758621 6.5"></polygon>
                            <polygon id="Path" points="41.2758621 8.66666667 56.4827586 8.66666667 56.4827586 10.8333333 41.2758621 10.8333333"></polygon>
                            <polygon id="Path" points="41.2758621 13 56.4827586 13 56.4827586 15.1666667 41.2758621 15.1666667"></polygon>
                        </g>
                    </g>
                </g>
            </g>
        </g>
    </g>
</svg>