<?xml version="1.0" encoding="UTF-8"?>
<svg width="61px" height="61px" viewBox="0 0 61 61" version="1.1" xmlns="http://www.w3.org/2000/svg" xmlns:xlink="http://www.w3.org/1999/xlink">
    <!-- Generator: Sketch 55.2 (78181) - https://sketchapp.com -->
    <title>consult 2</title>
    <desc>Created with Sketch.</desc>
    <g id="Destop" stroke="none" stroke-width="1" fill="none" fill-rule="evenodd">
        <g id="Vault77-Main-New" transform="translate(-220.000000, -780.000000)">
            <g id="2" transform="translate(96.000000, 775.000000)">
                <g id="1" transform="translate(19.000000, 5.000000)">
                    <g id="Group-11">
                        <g id="consult-2" transform="translate(105.000000, 0.000000)">
                            <g id="consult">
                                <path d="M24.4,40.6666667 L25.4166667,33.55 C20.9245687,33.55 17.2833333,37.1912354 17.2833333,41.6833333 L17.2833333,49.8166667 L30.5,49.8166667 L30.5,39.65 L24.4,40.6666667 Z" id="Path" fill="#FFF4CE"></path>
                                <path d="M35.5833333,33.55 L36.6,40.6666667 L30.5,39.65 L30.5,49.8166667 L43.7166667,49.8166667 L43.7166667,41.6833333 C43.7166667,37.1912354 40.0754313,33.55 35.5833333,33.55 Z" id="Path" fill="#FFF4CE"></path>
                                <path d="M30.5,14.2333333 C26.571338,14.2378011 23.3878011,17.421338 23.3833333,21.35 C23.3833333,21.35 23.7839437,21.291919 24.4099284,21.1802245 C26.4517008,20.8153565 30.9770589,19.8587565 32.5333333,18.3 C33.5162435,19.7068521 34.9454346,20.7399007 36.5900716,21.2308594 C36.9266438,21.3087972 37.2711589,21.3490072 37.6166667,21.35 C37.6121989,17.421338 34.428662,14.2378011 30.5,14.2333333 Z" id="Path" fill="#FFF4CE"></path>
                                <polygon id="Path" fill="#FFF4CE" points="36.6 40.6666667 35.5833333 33.55 30.5 39.65"></polygon>
                                <polygon id="Path" fill="#FFF4CE" points="30.5 39.65 25.4166667 33.55 24.4 40.6666667"></polygon>
                                <polygon id="Path" fill="#FFF4CE" points="4.06666667 53.8833333 56.9333333 53.8833333 56.9333333 59.9833333 4.06666667 59.9833333"></polygon>
                                <g id="Group" fill="#FFDB60">
                                    <path d="M37.6166667,25.4166667 L37.6166667,22.3666667 C38.1781169,22.3666667 38.6333333,21.9114502 38.6333333,21.35 C38.6333333,16.8579021 34.992098,13.2166667 30.5,13.2166667 C26.0079021,13.2166667 22.3666667,16.8579021 22.3666667,21.35 C22.3666667,21.9114502 22.8218831,22.3666667 23.3833333,22.3666667 L23.3833333,25.4166667 C23.3833333,29.3473145 26.5693522,32.5333333 30.5,32.5333333 C34.4306479,32.5333333 37.6166667,29.3473145 37.6166667,25.4166667 Z M30.5,15.25 C33.4060385,15.2539714 35.9074951,17.3036865 36.4818522,20.1521403 C35.2338542,19.6676351 34.1546386,18.8276937 33.3792318,17.7355713 C33.2104492,17.4823974 32.9369222,17.3185791 32.6341065,17.2882975 C32.60035,17.2863119 32.5660969,17.2863119 32.5323406,17.2882975 C32.2627849,17.2882975 32.0041505,17.395524 31.8135255,17.586149 C30.7035318,18.6926677 27.1675375,19.6418213 24.5221192,20.1298015 C25.1054118,17.2917724 27.6024007,15.253475 30.5,15.25 L30.5,15.25 Z M30.5,30.5 C27.6937419,30.496525 25.4201416,28.2229248 25.4166667,25.4166667 L25.4097167,22.0310872 C27.8367106,21.6359375 30.1847737,20.852588 32.3635579,19.71132 C33.2442057,20.7096192 34.3467529,21.4870117 35.5833333,21.9804525 L35.5833333,25.4166667 C35.5798584,28.2229248 33.3062581,30.496525 30.5,30.5 Z" id="Shape" fill-rule="nonzero"></path>
                                    <path d="M59.9833333,48.8 L44.7333333,48.8 L44.7333333,41.6833333 C44.7273763,36.6322672 40.6343994,32.5392904 35.5833333,32.5333333 L25.4166667,32.5333333 C20.3656006,32.5392904 16.2726237,36.6322672 16.2666667,41.6833333 L16.2666667,48.8 L1.01666667,48.8 C0.45521644,48.8 0,49.2552164 0,49.8166667 L0,53.8833333 C0,54.4447836 0.45521644,54.9 1.01666667,54.9 L3.05,54.9 L3.05,59.9833333 C3.05,60.5447836 3.50521644,61 4.06666667,61 L56.9333333,61 C57.4947836,61 57.95,60.5447836 57.95,59.9833333 L57.95,54.9 L59.9833333,54.9 C60.5447836,54.9 61,54.4447836 61,53.8833333 L61,49.8166667 C61,49.2552164 60.5447836,48.8 59.9833333,48.8 Z M42.7,41.6833333 L42.7,48.8 L39.65,48.8 L39.65,41.6833333 L37.6166667,41.6833333 L37.6166667,48.8 L31.5166667,48.8 L31.5166667,40.8498453 L36.4322104,41.6689372 C36.4878093,41.6788656 36.5439047,41.6838297 36.6,41.6833333 C36.894873,41.6833333 37.17535,41.5552572 37.368457,41.3328614 C37.5615641,41.109969 37.6484375,40.8141032 37.6067383,40.5222086 L36.7707682,34.6743896 C40.1910969,35.2532146 42.6960286,38.2143555 42.7,41.6833333 Z M35.3971761,39.4355469 L32.4161784,38.9381348 L34.9002604,35.9576334 L35.3971761,39.4355469 Z M33.4129883,34.5666667 L30.5,38.0619547 L27.5870117,34.5666667 L33.4129883,34.5666667 Z M26.0997396,35.9576334 L28.5838216,38.9381348 L25.6028239,39.4355469 L26.0997396,35.9576334 Z M18.3,41.6833333 C18.3039714,38.2143555 20.8089031,35.2532146 24.2292318,34.6743896 L23.3932617,40.5222086 C23.3515625,40.8141032 23.4384359,41.109969 23.631543,41.3328614 C23.82465,41.5552572 24.105127,41.6833333 24.4,41.6833333 C24.4560953,41.6838297 24.5121907,41.6788656 24.5677897,41.6689372 L29.4833333,40.8498453 L29.4833333,48.8 L23.3833333,48.8 L23.3833333,41.6833333 L21.35,41.6833333 L21.35,48.8 L18.3,48.8 L18.3,41.6833333 Z M55.9166667,58.9666667 L5.08333333,58.9666667 L5.08333333,54.9 L55.9166667,54.9 L55.9166667,58.9666667 Z M58.9666667,52.8666667 L2.03333333,52.8666667 L2.03333333,50.8333333 L58.9666667,50.8333333 L58.9666667,52.8666667 Z" id="Shape" fill-rule="nonzero"></path>
                                    <path d="M58.9666667,0 L34.5666667,0 C33.4437662,0 32.5333333,0.910432879 32.5333333,2.03333333 L32.5333333,10.1666667 C32.5333333,11.2895671 33.4437662,12.2 34.5666667,12.2 L40.6666667,12.2 L40.6666667,15.25 C40.6666667,15.6610352 40.9143799,16.0318604 41.2941406,16.1892253 C41.6739013,16.3465901 42.1112468,16.2592203 42.4021484,15.9688151 L46.1709635,12.2 L58.9666667,12.2 C60.0895671,12.2 61,11.2895671 61,10.1666667 L61,2.03333333 C61,0.910432879 60.0895671,0 58.9666667,0 Z M58.9666667,10.1666667 L45.75,10.1666667 C45.4804443,10.1666667 45.2218099,10.2738932 45.0311849,10.4645182 L42.7,12.7957031 L42.7,11.1833333 C42.7,10.6218831 42.2447836,10.1666667 41.6833333,10.1666667 L34.5666667,10.1666667 L34.5666667,2.03333333 L58.9666667,2.03333333 L58.9666667,10.1666667 Z" id="Shape" fill-rule="nonzero"></path>
                                    <polygon id="Path" points="38.6333333 5.08333333 42.7 5.08333333 42.7 7.11666667 38.6333333 7.11666667"></polygon>
                                    <polygon id="Path" points="44.7333333 5.08333333 48.8 5.08333333 48.8 7.11666667 44.7333333 7.11666667"></polygon>
                                    <polygon id="Path" points="50.8333333 5.08333333 54.9 5.08333333 54.9 7.11666667 50.8333333 7.11666667"></polygon>
                                    <polygon id="Path" points="4.06666667 8.13333333 14.2333333 8.13333333 14.2333333 10.1666667 4.06666667 10.1666667"></polygon>
                                    <polygon id="Path" points="4.06666667 12.2 14.2333333 12.2 14.2333333 14.2333333 4.06666667 14.2333333"></polygon>
                                    <path d="M2.03333333,18.3 L12.7957031,18.3 L16.5645182,22.0688151 C16.8554199,22.3592203 17.2927653,22.4465901 17.672526,22.2892253 C18.0522868,22.1318604 18.3,21.7610352 18.3,21.35 L18.3,6.1 C18.3,4.97709955 17.3895671,4.06666667 16.2666667,4.06666667 L2.03333333,4.06666667 C0.910432879,4.06666667 0,4.97709955 0,6.1 L0,16.2666667 C0,17.3895671 0.910432879,18.3 2.03333333,18.3 Z M2.03333333,6.1 L16.2666667,6.1 L16.2666667,18.8957031 L13.9354818,16.5645182 C13.7448568,16.3738932 13.4862224,16.2666667 13.2166667,16.2666667 L2.03333333,16.2666667 L2.03333333,6.1 Z" id="Shape" fill-rule="nonzero"></path>
                                </g>
                            </g>
                        </g>
                    </g>
                </g>
            </g>
        </g>
    </g>
</svg>