<?xml version="1.0" encoding="UTF-8"?>
<svg width="53px" height="65px" viewBox="0 0 53 65" version="1.1" xmlns="http://www.w3.org/2000/svg" xmlns:xlink="http://www.w3.org/1999/xlink">
    <!-- Generator: Sketch 55.2 (78181) - https://sketchapp.com -->
    <title>book (1)</title>
    <desc>Created with Sketch.</desc>
    <g id="Destop" stroke="none" stroke-width="1" fill="none" fill-rule="evenodd">
        <g id="Vault77-Main-New" transform="translate(-824.000000, -776.000000)" fill-rule="nonzero">
            <g id="2" transform="translate(96.000000, 775.000000)">
                <g id="3" transform="translate(619.000000, 1.000000)">
                    <g id="book-(1)" transform="translate(109.000000, 0.000000)">
                        <path d="M12.6652542,55 L12.6652542,64 L11.4652542,64 C8.81447299,64 6.66525424,61.9851073 6.66525424,59.5 C6.66525424,57.0143432 8.81447299,55 11.4652542,55 L12.6652542,55 Z" id="Path" fill="#FFF4CE"></path>
                        <path d="M7.66525424,46 L7.66525424,55 L6.46525424,55 C3.81447299,55 1.66525424,52.9851073 1.66525424,50.5 C1.66525424,48.0143432 3.81447299,46 6.46525424,46 L7.66525424,46 Z" id="Path" fill="#FFF4CE"></path>
                        <polygon id="Path" fill="#FFF4CE" points="12.6652542 55 15.6652542 55 15.6652542 64 12.6652542 64"></polygon>
                        <polygon id="Path" fill="#FFF4CE" points="7.66525424 46 10.6652542 46 10.6652542 55 7.66525424 55"></polygon>
                        <path d="M36.3081114,43 L11.6652542,43 L11.6652542,36.9921131 C11.6689162,33.9941236 13.6066953,31.3679734 16.4008848,30.5739581 L21.993972,29 L26.6652542,33.0236605 L31.3365363,29 L36.9296237,30.5739581 C39.72329,31.3679734 41.661069,33.9941236 41.6652542,36.9921131 L41.6652542,43 L36.3081114,43 Z" id="Path" fill="#FFF4CE"></path>
                        <path d="M33.6652542,9 L33.6652542,15.9286397 C33.6652542,15.9286397 33.2582369,16.1253582 32.5938257,16.3943923 C30.5702487,17.3046581 28.3912935,17.8487947 26.1652542,18 C23.9386917,17.8487947 21.7602598,17.3046581 19.7366828,16.3943923 C19.0722715,16.1253582 18.6652542,15.9286397 18.6652542,15.9286397 L18.6652542,9 L26.1652542,11.785919 L33.6652542,9 Z" id="Path" fill="#FFF4CE"></path>
                        <polygon id="Path" fill="#FFF4CE" points="40.6652542 6.5 34.2037158 9.04106435 26.6652542 12 19.1267927 9.04106435 12.6652542 6.5 26.6652542 1"></polygon>
                        <g id="Group" transform="translate(0.665254, 0.000000)" fill="#FFDB60">
                            <path d="M9.4730114,15.9273275 L10.8700893,14.5266114 L10.8700893,16.2447104 L13.0311283,16.2447104 L13.0311283,14.5266114 L14.4282062,15.9273275 L15.9561283,14.3954265 L13.0311283,11.4628093 L13.0311283,8.07210286 L17.3532062,9.74471035 L17.3532062,16.2447104 C17.3532062,16.6551921 17.5842938,17.0307617 17.9504465,17.2143148 C17.9842127,17.2301839 18.1583198,17.3169352 18.4337257,17.4438883 L18.4337257,19.4947104 C18.4147322,21.9745281 19.6303166,24.300944 21.6752841,25.6968994 L21.6752841,27.3335368 L15.3583605,29.0558675 C12.0761769,29.9672852 9.79959422,32.9580891 9.78956984,36.3731282 L9.78956984,42.2447104 C9.78956984,42.8429769 10.2733766,43.3280437 10.8700893,43.3280437 L41.1246348,43.3280437 C41.7213475,43.3280437 42.2051543,42.8429769 42.2051543,42.2447104 L42.2051543,36.3731282 C42.1946023,32.9570313 39.9169642,29.9656982 36.6326704,29.0548096 L30.31944,27.3335368 L30.31944,25.6931966 C32.3433036,24.2803141 33.5530844,21.9671224 33.5609984,19.4947104 L33.5609984,17.4438883 C33.8364042,17.3169352 34.0105114,17.2270101 34.0437501,17.2143148 C34.4104302,17.0307617 34.6415179,16.6551921 34.6415179,16.2447104 L34.6415179,9.74471035 L40.4318993,7.51192217 C40.8502841,7.35164381 41.1262176,6.94909665 41.1262176,6.50000003 C41.1262176,6.05090335 40.8502841,5.64835619 40.4318993,5.48807783 L26.385146,0.0714111667 C26.1355925,-0.0238036771 25.8591315,-0.0238036771 25.6095779,0.0714111667 L11.5628247,5.48807783 C11.1470779,5.64835619 10.8721997,6.0482584 10.8700893,6.49471035 L10.8700893,11.4628093 L7.94508932,14.3954265 L9.4730114,15.9273275 Z M28.5356332,28.9659424 L25.997362,31.0860596 L23.4590909,28.9675292 C23.6954545,28.7659912 23.8331574,28.4718831 23.8363231,28.161377 L23.8363231,26.7527263 C25.2444805,27.1875407 26.7502436,27.1875407 28.158401,26.7527263 L28.158401,28.161377 C28.1615665,28.4718831 28.2992695,28.7654622 28.5356332,28.9659424 Z M40.0441153,36.3731282 L40.0441153,41.161377 L36.8025569,41.161377 L36.8025569,34.661377 L34.6415179,34.661377 L34.6415179,41.161377 L17.3532062,41.161377 L17.3532062,34.661377 L15.1921672,34.661377 L15.1921672,41.161377 L11.9506088,41.161377 L11.9506088,36.3731282 C11.9585227,33.9335124 13.5851055,31.7969971 15.9302759,31.1458333 L21.026867,29.7556966 L25.3056818,33.331014 C25.7066558,33.6653239 26.2880681,33.6653239 26.6890421,33.331014 L30.9678571,29.7556966 L36.0612825,31.1447755 C38.4075081,31.7954102 40.035146,33.9324544 40.0441153,36.3731282 Z M31.3999594,19.4947104 C31.3973215,21.4302164 30.3648133,23.2176107 28.6912743,24.1829834 C27.0177354,25.1478271 24.9574675,25.1446534 23.2876218,24.1734619 C22.879789,23.9412435 22.5062499,23.6534831 22.1765016,23.3186442 C21.1577111,22.3093669 20.5879059,20.9308675 20.5947034,19.4947104 L20.5947034,18.3320313 C22.3194805,19.0149333 24.1449675,19.4079589 25.997362,19.4947104 C27.8497564,19.4079589 29.6752436,19.0149333 31.3999594,18.3320313 L31.3999594,19.4947104 Z M32.4804789,15.5554606 C30.4450081,16.5372315 28.2480925,17.1381429 25.997362,17.3280437 C23.7466315,17.136556 21.5497159,16.5356445 19.5142452,15.5544026 L19.5142452,10.5709635 L25.6095779,12.9222412 C25.8591315,13.017456 26.1355925,13.017456 26.385146,12.9222412 L32.4804789,10.5720214 L32.4804789,15.5554606 Z M25.997362,2.23807783 L37.0336444,6.49471035 L25.997362,10.7508138 L14.9610795,6.49471035 L25.997362,2.23807783 Z" id="Shape"></path>
                            <path d="M50.2636769,56.2074381 C50.7068587,55.9789225 50.9363636,55.4753417 50.8187094,54.9892172 C50.7015828,54.5036214 50.2673701,54.161377 49.7687906,54.161377 L45.7643263,54.161377 C44.7956574,53.3726807 44.2733361,52.1586914 44.3661932,50.911377 C44.2448457,49.5847167 44.847362,48.2961426 45.941599,47.5407714 C46.3847808,47.3122558 46.6142857,46.8086751 46.4966315,46.3225505 C46.3795049,45.8369547 45.9452922,45.4947104 45.4467127,45.4947104 L6.5480114,45.4947104 C3.56444805,45.4947104 1.14541399,47.919515 1.14541399,50.911377 C1.14541399,53.9027099 3.56444805,56.3280437 6.5480114,56.3280437 L6.57597403,56.3280437 C5.86107951,57.2600911 5.471185,58.4021403 5.46749192,59.5780437 C5.471185,62.5677896 7.88758124,64.9910075 10.8700893,64.9947104 L49.7687906,64.9947104 C50.2620941,64.9910075 50.6905033,64.6524659 50.8092127,64.1721599 C50.926867,63.6892089 50.7052759,63.1866862 50.268953,62.9491781 C49.1710228,62.1959229 48.5663961,60.9057617 48.6882711,59.5780437 C48.5669237,58.2513834 49.16944,56.9628093 50.2636769,56.2074381 L50.2636769,56.2074381 Z M42.2837662,49.8280437 L14.1116478,49.8280437 L14.1116478,51.9947104 L42.2837662,51.9947104 C42.3840098,52.7532552 42.620901,53.4874674 42.9828328,54.161377 L11.9506088,54.161377 L11.9506088,47.661377 L42.9828328,47.661377 C42.620901,48.3347575 42.3840098,49.0689698 42.2837662,49.8280437 Z M9.78956984,54.161377 L8.70905036,54.161377 L8.70905036,47.661377 L9.78956984,47.661377 L9.78956984,54.161377 Z M14.1116478,56.3280437 L14.1116478,62.8280437 L13.0311283,62.8280437 L13.0311283,56.3280437 L14.1116478,56.3280437 Z M3.30645296,50.911377 C3.30645296,49.1165771 4.75787331,47.661377 6.5480114,47.661377 L6.5480114,54.161377 C4.75787331,54.161377 3.30645296,52.7061768 3.30645296,50.911377 Z M7.62853088,59.5780437 C7.62853088,57.7832438 9.07995123,56.3280437 10.8700893,56.3280437 L10.8700893,62.8280437 C9.07995123,62.8280437 7.62853088,61.3728435 7.62853088,59.5780437 Z M16.2726867,62.8280437 L16.2726867,56.3280437 L47.3049107,56.3280437 C46.9429789,57.0014242 46.7060877,57.7356364 46.6058442,58.4947104 L18.4337257,58.4947104 L18.4337257,60.661377 L46.6058442,60.661377 C46.7060877,61.4199219 46.9429789,62.1541341 47.3049107,62.8280437 L16.2726867,62.8280437 Z" id="Shape"></path>
                            <polygon id="Path" points="0.0648945143 31.411377 4.38697244 31.411377 4.38697244 33.5780437 0.0648945143 33.5780437"></polygon>
                            <polygon id="Path" points="0.667938244 38.1779786 4.84387172 37.0560302 5.40312497 39.1491699 1.22719163 40.2711182"></polygon>
                            <polygon id="Path" points="46.591599 39.147583 47.1503247 37.0549724 51.3262582 38.1763916 50.7675325 40.2695313"></polygon>
                            <polygon id="Path" points="47.6077517 31.411377 51.9298296 31.411377 51.9298296 33.5780437 47.6077517 33.5780437"></polygon>
                            <polygon id="Path" points="46.6016234 25.8286133 50.7775569 24.706136 51.3373377 26.7992757 47.1614042 27.9217529"></polygon>
                            <polygon id="Path" points="44.1715097 20.7229818 47.9148133 18.5557862 48.9953328 20.4325765 45.2520292 22.5992432"></polygon>
                            <polygon id="Path" points="40.5157873 16.4081625 43.5716315 13.3438313 45.0995535 14.8757324 42.0437094 17.9400635"></polygon>
                            <polygon id="Path" points="2.99886364 20.4320475 4.07938312 18.5557862 7.82268672 20.7224528 6.74216724 22.5992432"></polygon>
                            <polygon id="Path" points="0.673214286 26.8177896 1.23246753 24.72465 5.40892857 25.8471273 4.84914776 27.9402669"></polygon>
                        </g>
                    </g>
                </g>
            </g>
        </g>
    </g>
</svg>