<?xml version="1.0" encoding="UTF-8"?>
<svg width="62px" height="62px" viewBox="0 0 62 62" version="1.1" xmlns="http://www.w3.org/2000/svg" xmlns:xlink="http://www.w3.org/1999/xlink">
    <!-- Generator: Sketch 55.2 (78181) - https://sketchapp.com -->
    <title>class</title>
    <desc>Created with Sketch.</desc>
    <g id="Destop" stroke="none" stroke-width="1" fill="none" fill-rule="evenodd">
        <g id="Vault77-Ruby-New" transform="translate(-519.000000, -3085.000000)" fill-rule="nonzero">
            <g id="6" transform="translate(115.000000, 2938.000000)">
                <g id="2" transform="translate(300.000000, 147.000000)">
                    <g id="class" transform="translate(104.000000, 0.000000)">
                        <path d="M57,33 L57,45 C56.9964396,46.1030274 56.0656535,46.996582 54.9166667,47 L46.5833333,47 L46.5833333,41 L42.4166667,41 L42.4166667,47 L34.0833333,47 C32.9343465,46.996582 32.0035604,46.1030274 32,45 L32,33 C32.0035604,31.8969726 32.9343465,31.003418 34.0833333,31 L54.9166667,31 C56.0656535,31.003418 56.9964396,31.8969726 57,33 Z" id="Path" fill="#FFDB60"></path>
                        <path d="M20.7777764,53 L6,53 L6,47.8070264 C5.99794092,45.9434827 7.24728954,44.3049898 9.06100979,43.7922607 L11.8581282,43 L15.5,45.700611 L19.1418718,43 L21.9389902,43.7922607 C23.7527105,44.3049898 25.0020591,45.9434827 25,47.8070264 L25,53 L20.7777764,53 Z" id="Path" fill="#FFDB60"></path>
                        <path d="M16,29 C18.7612305,29 21,31.2384499 21,33.9992861 L21,34.9991433 L20.2402344,34.9991433 C20.159668,35.0025609 20.0791015,34.9957258 20,34.9791267 C19.3300781,34.9068714 18.7446289,34.4948209 18.4501953,33.8894386 L18,32.9994289 L16.5097656,33.9895219 C15.5253906,34.6495839 14.3657226,35.0015844 13.1801758,34.9991433 L11,34.9991433 L11,33.9992861 C11,31.2384499 13.2387695,29 16,29 Z" id="Path" fill="#FFDB60"></path>
                        <path d="M50,3.08333333 L50,17.6666667 C49.9964681,18.8156535 49.0731283,19.7464396 47.9333333,19.75 L34.5,19.75 L28.3,26 L28.3,19.75 L21.0666667,19.75 C19.9268717,19.7464396 19.0035319,18.8156535 19,17.6666667 L19,3.08333333 C19.0035319,1.93434648 19.9268717,1.00356042 21.0666667,1 L47.9333333,1 C49.0731283,1.00356042 49.9964681,1.93434648 50,3.08333333 Z" id="Path" fill="#FFDB60"></path>
                        <g id="Group" fill="#2D2C28">
                            <path d="M6.2,53.7333333 C6.2,54.3039877 6.662679,54.7666667 7.23333333,54.7666667 L25.8333333,54.7666667 C26.4039877,54.7666667 26.8666667,54.3039877 26.8666667,53.7333333 L26.8666667,48.5873535 C26.8611165,46.2820312 25.3353353,44.2562337 23.1208333,43.6149413 L19.6333333,42.6189453 L19.6333333,41.3065918 C20.929541,40.3388509 21.695459,38.8176107 21.7,37.2 L21.7,36.1666667 C22.2706543,36.1666667 22.7333333,35.7039877 22.7333333,35.1333333 L22.7333333,34.1 C22.7333333,30.6760743 19.957259,27.9 16.5333333,27.9 C13.1094076,27.9 10.3333333,30.6760743 10.3333333,34.1 L10.3333333,35.1333333 C10.3333333,35.7039877 10.7960123,36.1666667 11.3666667,36.1666667 L11.3666667,37.2 C11.3712076,38.8176107 12.1371257,40.3388509 13.4333333,41.3065918 L13.4333333,42.6189453 L9.94684238,43.6149413 C7.73183594,44.2557292 6.20504551,46.2815267 6.2,48.5873535 L6.2,53.7333333 Z M16.5333333,29.9666667 C18.8053549,29.9666667 20.6515299,31.8002278 20.6666667,34.0722493 C20.369987,34.0000976 20.1202311,33.8007976 19.9845052,33.5273274 L19.5248535,32.6060059 C19.3926595,32.3401042 19.1524903,32.1443359 18.8659017,32.0681478 C18.5788087,31.991455 18.2735514,32.0424153 18.0263184,32.206901 L16.4889323,33.2321615 C15.640267,33.7987793 14.6427571,34.101009 13.6225423,34.1000025 L12.4,34.1000025 C12.4,31.8173828 14.2507161,29.9666667 16.5333333,29.9666667 Z M13.6225423,36.1666667 C15.0509441,36.1681804 16.447054,35.7448568 17.6347819,34.9516927 L18.2008952,34.5742839 C18.5263347,35.1484701 19.0288736,35.6015625 19.6333333,35.8659505 L19.6333333,37.2 C19.6333333,38.9119629 18.2452962,40.3 16.5333333,40.3 C14.8213705,40.3 13.4333333,38.9119629 13.4333333,37.2 L13.4333333,36.1666667 L13.6225423,36.1666667 Z M16.5333333,42.3666667 C16.8804687,42.3671712 17.2265951,42.3323568 17.5666667,42.2632325 L17.5666667,43.4 C17.5701986,43.6941569 17.6998698,43.9726726 17.9233887,44.1649089 L16.5333333,45.2083333 L15.143278,44.1649089 C15.3667969,43.9726726 15.4964681,43.6941569 15.5,43.4 L15.5,42.2632325 C15.8400715,42.3323568 16.1861979,42.3671712 16.5333333,42.3666667 L16.5333333,42.3666667 Z M8.26666667,48.5873535 C8.26918942,47.2033528 9.18496094,45.9873698 10.5139649,45.601888 L12.7617675,44.9616049 L15.9132325,47.3264649 C16.2805502,47.6024577 16.7861165,47.6024577 17.1534342,47.3264649 L20.3048991,44.9616049 L22.5537109,45.6028972 C23.8822103,45.9878743 24.7974772,47.2038575 24.8,48.5873535 L24.8,52.7 L22.7333333,52.7 L22.7333333,48.5666667 L20.6666667,48.5666667 L20.6666667,52.7 L12.4,52.7 L12.4,48.5666667 L10.3333333,48.5666667 L10.3333333,52.7 L8.26666667,52.7 L8.26666667,48.5873535 Z" id="Shape"></path>
                            <path d="M54.7666667,48.5666667 C56.4786295,48.5666667 57.8666667,47.1786295 57.8666667,45.4666667 L57.8666667,33.0666667 C57.8666667,31.3547038 56.4786295,29.9666667 54.7666667,29.9666667 L34.1,29.9666667 C32.3880371,29.9666667 31,31.3547038 31,33.0666667 L31,45.4666667 C31,47.1786295 32.3880371,48.5666667 34.1,48.5666667 L41.3333333,48.5666667 L41.3333333,52.7 L39.2666667,52.7 L39.2666667,54.7666667 L49.6,54.7666667 L49.6,52.7 L47.5333333,52.7 L47.5333333,48.5666667 L54.7666667,48.5666667 Z M34.1,46.5 C33.5293457,46.5 33.0666667,46.037321 33.0666667,45.4666667 L33.0666667,33.0666667 C33.0666667,32.4960123 33.5293457,32.0333333 34.1,32.0333333 L54.7666667,32.0333333 C55.337321,32.0333333 55.8,32.4960123 55.8,33.0666667 L55.8,45.4666667 C55.8,46.037321 55.337321,46.5 54.7666667,46.5 L47.5333333,46.5 L47.5333333,41.3333333 C47.5333333,40.762679 47.0706543,40.3 46.5,40.3 L42.3666667,40.3 C41.7960123,40.3 41.3333333,40.762679 41.3333333,41.3333333 L41.3333333,46.5 L34.1,46.5 Z M43.4,52.7 L43.4,42.3666667 L45.4666667,42.3666667 L45.4666667,52.7 L43.4,52.7 Z" id="Shape"></path>
                            <path d="M20.6666667,20.6666667 L26.8666667,20.6666667 L26.8666667,25.8333333 C26.8666667,26.2511068 27.1184408,26.6280111 27.5044271,26.7879557 C27.8904134,26.9479004 28.3349285,26.8590983 28.630599,26.5639323 L34.5278646,20.6666667 L47.5333333,20.6666667 C49.2452962,20.6666667 50.6333333,19.2786295 50.6333333,17.5666667 L50.6333333,3.1 C50.6333333,1.38803714 49.2452962,0 47.5333333,0 L20.6666667,0 C18.9547038,0 17.5666667,1.38803714 17.5666667,3.1 L17.5666667,17.5666667 C17.5666667,19.2786295 18.9547038,20.6666667 20.6666667,20.6666667 Z M19.6333333,3.1 C19.6333333,2.52934567 20.0960123,2.06666667 20.6666667,2.06666667 L47.5333333,2.06666667 C48.1039877,2.06666667 48.5666667,2.52934567 48.5666667,3.1 L48.5666667,17.5666667 C48.5666667,18.137321 48.1039877,18.6 47.5333333,18.6 L34.1,18.6 C33.8260254,18.6 33.563151,18.7089844 33.369401,18.9027344 L28.9333333,23.3388021 L28.9333333,19.6333333 C28.9333333,19.062679 28.4706543,18.6 27.9,18.6 L20.6666667,18.6 C20.0960123,18.6 19.6333333,18.137321 19.6333333,17.5666667 L19.6333333,3.1 Z" id="Shape"></path>
                            <path d="M62,55.8 L0,55.8 L0,57.8666667 L2.06666667,57.8666667 L2.06666667,60.9666667 C2.06666667,61.537321 2.52934567,62 3.1,62 L58.9,62 C59.4706543,62 59.9333333,61.537321 59.9333333,60.9666667 L59.9333333,57.8666667 L62,57.8666667 L62,55.8 Z M57.8666667,59.9333333 L4.13333333,59.9333333 L4.13333333,57.8666667 L57.8666667,57.8666667 L57.8666667,59.9333333 Z" id="Shape"></path>
                            <polygon id="Path" points="24.8 5.16666667 43.4 5.16666667 43.4 7.23333333 24.8 7.23333333"></polygon>
                            <polygon id="Path" points="24.8 9.3 43.4 9.3 43.4 11.3666667 24.8 11.3666667"></polygon>
                            <polygon id="Path" points="24.8 13.4333333 43.4 13.4333333 43.4 15.5 24.8 15.5"></polygon>
                            <path d="M1.03333333,35.1333333 L6.2,35.1333333 L6.2,33.0666667 L2.06666667,33.0666667 L2.06666667,10.3333333 L7.23333333,10.3333333 L7.23333333,8.26666667 L1.03333333,8.26666667 C0.462679004,8.26666667 0,8.72934567 0,9.3 L0,34.1 C0,34.6706543 0.462679004,35.1333333 1.03333333,35.1333333 Z" id="Path"></path>
                            <polygon id="Path" points="9.3 8.26666667 11.3666667 8.26666667 11.3666667 10.3333333 9.3 10.3333333"></polygon>
                            <polygon id="Path" points="13.4333333 8.26666667 15.5 8.26666667 15.5 10.3333333 13.4333333 10.3333333"></polygon>
                            <path d="M55.8,19.6333333 L57.8666667,19.6333333 L57.8666667,9.3 C57.8666667,8.72934567 57.4039877,8.26666667 56.8333333,8.26666667 L52.7,8.26666667 L52.7,10.3333333 L55.8,10.3333333 L55.8,19.6333333 Z" id="Path"></path>
                            <polygon id="Path" points="55.8 21.7 57.8666667 21.7 57.8666667 23.7666667 55.8 23.7666667"></polygon>
                            <polygon id="Path" points="55.8 25.8333333 57.8666667 25.8333333 57.8666667 27.9 55.8 27.9"></polygon>
                        </g>
                    </g>
                </g>
            </g>
        </g>
    </g>
</svg>