<?xml version="1.0" encoding="UTF-8"?>
<svg width="20px" height="15px" viewBox="0 0 20 15" version="1.1" xmlns="http://www.w3.org/2000/svg" xmlns:xlink="http://www.w3.org/1999/xlink">
    <!-- Generator: Sketch 55.2 (78181) - https://sketchapp.com -->
    <title>laptop 2</title>
    <desc>Created with Sketch.</desc>
    <g id="Destop" stroke="none" stroke-width="1" fill="none" fill-rule="evenodd">
        <g id="Vault77-Ruby-New" transform="translate(-585.000000, -4520.000000)" fill="#928F87" fill-rule="nonzero">
            <g id="8" transform="translate(48.000000, 4402.000000)">
                <g id="1" transform="translate(67.000000, 110.000000)">
                    <g id="module" transform="translate(464.000000, 0.000000)">
                        <g id="laptop-2" transform="translate(6.000000, 7.380952)">
                            <g id="laptop" transform="translate(0.000000, 0.619048)">
                                <path d="M19.2342159,10.4471545 L11.7189409,10.4471545 C11.3156823,10.4471545 10.9857434,10.7764228 10.9857434,11.1788618 L10.9857434,11.3699187 L8.98167006,11.3699187 L8.98167006,11.1788618 C8.98167006,10.7764228 8.65173116,10.4471545 8.24847251,10.4471545 L3.19755601,10.4471545 L3.19755601,2.36585366 C3.19755601,1.8699187 3.60081466,1.46747967 4.09775967,1.46747967 L15.8655804,1.46747967 C16.3625255,1.46747967 16.7657841,1.8699187 16.7657841,2.36585366 L16.7657841,8.72764228 C16.7657841,9.1300813 17.095723,9.45934959 17.4989817,9.45934959 C17.9022403,9.45934959 18.2321792,9.1300813 18.2321792,8.72764228 L18.2321792,2.36585366 C18.2321792,1.06504065 17.1690428,0.00406504065 15.8655804,0.00406504065 L4.09775967,0.00406504065 C2.79429735,0.00406504065 1.7311609,1.06504065 1.7311609,2.36585366 L1.7311609,10.4512195 L0.733197556,10.4512195 C0.3299389,10.4512195 0,10.7804878 0,11.1829268 L0,12.8373984 C0,14.0121951 0.957230143,14.9674797 2.13441955,14.9674797 L17.8370672,14.9674797 C19.0142566,14.9674797 19.9714868,14.0121951 19.9714868,12.8373984 L19.9714868,11.1829268 C19.9674134,10.7764228 19.6415479,10.4471545 19.2342159,10.4471545 Z M17.8329939,13.504065 L2.13034623,13.504065 C1.76374745,13.504065 1.46232179,13.2073171 1.46232179,12.8373984 L1.46232179,11.9146341 L7.53971487,11.9146341 C7.65784114,12.4430894 8.13034623,12.8373984 8.69246436,12.8373984 L11.2668024,12.8373984 C11.8289206,12.8373984 12.3014257,12.4430894 12.4195519,11.9146341 L18.496945,11.9146341 L18.496945,12.8373984 L18.5010183,12.8373984 C18.5010183,13.203252 18.203666,13.504065 17.8329939,13.504065 Z" id="Shape"></path>
                            </g>
                        </g>
                    </g>
                </g>
            </g>
        </g>
    </g>
</svg>