<?xml version="1.0" encoding="UTF-8"?>
<svg width="615px" height="617px" viewBox="0 0 615 617" version="1.1" xmlns="http://www.w3.org/2000/svg" xmlns:xlink="http://www.w3.org/1999/xlink">
    <!-- Generator: Sketch 55.2 (78181) - https://sketchapp.com -->
    <title>Ruby on Rails</title>
    <desc>Created with Sketch.</desc>
    <defs>
        <circle id="path-1" cx="275.131006" cy="29.5" r="29.5"></circle>
        <filter x="-250.0%" y="-207.6%" width="600.0%" height="600.0%" filterUnits="objectBoundingBox" id="filter-2">
            <feMorphology radius="9" operator="dilate" in="SourceAlpha" result="shadowSpreadOuter1"></feMorphology>
            <feOffset dx="0" dy="25" in="shadowSpreadOuter1" result="shadowOffsetOuter1"></feOffset>
            <feMorphology radius="9" operator="erode" in="SourceAlpha" result="shadowInner"></feMorphology>
            <feOffset dx="0" dy="25" in="shadowInner" result="shadowInner"></feOffset>
            <feComposite in="shadowOffsetOuter1" in2="shadowInner" operator="out" result="shadowOffsetOuter1"></feComposite>
            <feGaussianBlur stdDeviation="42" in="shadowOffsetOuter1" result="shadowBlurOuter1"></feGaussianBlur>
            <feColorMatrix values="0 0 0 0 0.891422194   0 0 0 0 0.761749635   0 0 0 0 0.318701724  0 0 0 1 0" type="matrix" in="shadowBlurOuter1"></feColorMatrix>
        </filter>
        <linearGradient x1="99.9676715%" y1="50.0334702%" x2="-0.0042485616%" y2="50.0334702%" id="linearGradient-3">
            <stop stop-color="#C0D6FF" offset="0%"></stop>
            <stop stop-color="#C5DBFF" offset="29.78%"></stop>
            <stop stop-color="#D3E9FF" offset="64.88%"></stop>
            <stop stop-color="#E9FFFF" offset="100%"></stop>
        </linearGradient>
        <linearGradient x1="99.8066587%" y1="50.0059271%" x2="-0.124605912%" y2="50.0059271%" id="linearGradient-4">
            <stop stop-color="#5778FF" offset="0%"></stop>
            <stop stop-color="#5C7DFF" offset="17.79%"></stop>
            <stop stop-color="#6A8AFF" offset="38.76%"></stop>
            <stop stop-color="#82A0FF" offset="61.34%"></stop>
            <stop stop-color="#A3BEFF" offset="84.9%"></stop>
            <stop stop-color="#BCD5FF" offset="100%"></stop>
        </linearGradient>
        <linearGradient x1="99.9795586%" y1="50.0154671%" x2="-0.0157018813%" y2="50.0154671%" id="linearGradient-5">
            <stop stop-color="#5778FF" offset="0%"></stop>
            <stop stop-color="#5C7DFF" offset="17.79%"></stop>
            <stop stop-color="#6A8AFF" offset="38.76%"></stop>
            <stop stop-color="#82A0FF" offset="61.34%"></stop>
            <stop stop-color="#A3BEFF" offset="84.9%"></stop>
            <stop stop-color="#BCD5FF" offset="100%"></stop>
        </linearGradient>
        <linearGradient x1="66.3707306%" y1="50.0365025%" x2="-33.6163906%" y2="50.0365025%" id="linearGradient-6">
            <stop stop-color="#C0D6FF" offset="0%"></stop>
            <stop stop-color="#C5DBFF" offset="29.78%"></stop>
            <stop stop-color="#D3E9FF" offset="64.88%"></stop>
            <stop stop-color="#E9FFFF" offset="100%"></stop>
        </linearGradient>
        <linearGradient x1="100.029358%" y1="49.924893%" x2="0.121242061%" y2="49.924893%" id="linearGradient-7">
            <stop stop-color="#C0D6FF" offset="0%"></stop>
            <stop stop-color="#C5DBFF" offset="29.78%"></stop>
            <stop stop-color="#D3E9FF" offset="64.88%"></stop>
            <stop stop-color="#E9FFFF" offset="100%"></stop>
        </linearGradient>
        <linearGradient x1="66.3895324%" y1="49.978399%" x2="-33.5975889%" y2="49.978399%" id="linearGradient-8">
            <stop stop-color="#C0D6FF" offset="0%"></stop>
            <stop stop-color="#C5DBFF" offset="29.78%"></stop>
            <stop stop-color="#D3E9FF" offset="64.88%"></stop>
            <stop stop-color="#E9FFFF" offset="100%"></stop>
        </linearGradient>
        <linearGradient x1="100.005646%" y1="49.947156%" x2="0.0975299929%" y2="49.947156%" id="linearGradient-9">
            <stop stop-color="#C0D6FF" offset="0%"></stop>
            <stop stop-color="#C5DBFF" offset="29.78%"></stop>
            <stop stop-color="#D3E9FF" offset="64.88%"></stop>
            <stop stop-color="#E9FFFF" offset="100%"></stop>
        </linearGradient>
        <radialGradient cx="79.0743933%" cy="49.9434153%" fx="79.0743933%" fy="49.9434153%" r="114.735357%" gradientTransform="translate(0.790744,0.499434),scale(0.578202,1.000000),rotate(180.000000),translate(-0.790744,-0.499434)" id="radialGradient-10">
            <stop stop-color="#2B3AA5" offset="0%"></stop>
            <stop stop-color="#182484" offset="100%"></stop>
        </radialGradient>
        <radialGradient cx="79.0452756%" cy="49.9976017%" fx="79.0452756%" fy="49.9976017%" r="79.6343832%" gradientTransform="translate(0.790453,0.499976),scale(1.000000,0.794633),rotate(180.000000),translate(-0.790453,-0.499976)" id="radialGradient-11">
            <stop stop-color="#2B3AA5" offset="0%"></stop>
            <stop stop-color="#182484" offset="100%"></stop>
        </radialGradient>
        <linearGradient x1="81.8162579%" y1="87.0648514%" x2="33.2663034%" y2="20.6346942%" id="linearGradient-12">
            <stop stop-color="#5778FF" offset="0%"></stop>
            <stop stop-color="#5C7DFF" offset="3.979178%"></stop>
            <stop stop-color="#6A8AFF" offset="8.669901%"></stop>
            <stop stop-color="#82A0FF" offset="13.72%"></stop>
            <stop stop-color="#A3BEFF" offset="18.99%"></stop>
            <stop stop-color="#BCD5FF" offset="22.37%"></stop>
        </linearGradient>
        <linearGradient x1="24.1804305%" y1="89.179455%" x2="58.9933464%" y2="36.47848%" id="linearGradient-13">
            <stop stop-color="#C0D6FF" offset="0%"></stop>
            <stop stop-color="#C5DBFF" offset="29.78%"></stop>
            <stop stop-color="#D3E9FF" offset="64.88%"></stop>
            <stop stop-color="#E9FFFF" offset="100%"></stop>
        </linearGradient>
        <linearGradient x1="26.2112823%" y1="91.991068%" x2="77.4468962%" y2="6.68914099%" id="linearGradient-14">
            <stop stop-color="#C0D6FF" offset="0%"></stop>
            <stop stop-color="#C3D9FF" offset="7.816905%"></stop>
            <stop stop-color="#CCE2FF" offset="13.41%"></stop>
            <stop stop-color="#DCF2FF" offset="18.29%"></stop>
            <stop stop-color="#E9FFFF" offset="21.17%"></stop>
            <stop stop-color="#D8EEFF" offset="25.6%"></stop>
            <stop stop-color="#CBE1FF" offset="31.45%"></stop>
            <stop stop-color="#C2D8FF" offset="38.69%"></stop>
            <stop stop-color="#C0D6FF" offset="51.43%"></stop>
            <stop stop-color="#D0E6FF" offset="62.39%"></stop>
            <stop stop-color="#E9FFFF" offset="75.5%"></stop>
            <stop stop-color="#C0D6FF" offset="100%"></stop>
        </linearGradient>
        <linearGradient x1="100.130435%" y1="49.9520978%" x2="0.766403162%" y2="49.9520978%" id="linearGradient-15">
            <stop stop-color="#C0D6FF" offset="0%"></stop>
            <stop stop-color="#D2E8FF" offset="49.83%"></stop>
            <stop stop-color="#E9FFFF" offset="100%"></stop>
        </linearGradient>
        <linearGradient x1="211.487747%" y1="49.9520978%" x2="19.4687747%" y2="49.9520978%" id="linearGradient-16">
            <stop stop-color="#5778FF" offset="0%"></stop>
            <stop stop-color="#5C7DFF" offset="17.79%"></stop>
            <stop stop-color="#6A8AFF" offset="38.76%"></stop>
            <stop stop-color="#82A0FF" offset="61.34%"></stop>
            <stop stop-color="#A3BEFF" offset="84.9%"></stop>
            <stop stop-color="#BCD5FF" offset="100%"></stop>
        </linearGradient>
        <linearGradient x1="85.4392008%" y1="38.1558211%" x2="14.493869%" y2="61.8841771%" id="linearGradient-17">
            <stop stop-color="#C0D6FF" offset="0%"></stop>
            <stop stop-color="#C5DBFF" offset="29.78%"></stop>
            <stop stop-color="#D3E9FF" offset="64.88%"></stop>
            <stop stop-color="#E9FFFF" offset="100%"></stop>
        </linearGradient>
        <linearGradient x1="85.6574098%" y1="38.4213493%" x2="14.8515497%" y2="61.9935952%" id="linearGradient-18">
            <stop stop-color="#5778FF" offset="0%"></stop>
            <stop stop-color="#5C7DFF" offset="17.79%"></stop>
            <stop stop-color="#6A8AFF" offset="38.76%"></stop>
            <stop stop-color="#82A0FF" offset="61.34%"></stop>
            <stop stop-color="#A3BEFF" offset="84.9%"></stop>
            <stop stop-color="#BCD5FF" offset="100%"></stop>
        </linearGradient>
        <linearGradient x1="100.130435%" y1="49.6228106%" x2="0.766403162%" y2="49.6228106%" id="linearGradient-19">
            <stop stop-color="#C0D6FF" offset="0%"></stop>
            <stop stop-color="#D2E8FF" offset="49.83%"></stop>
            <stop stop-color="#E9FFFF" offset="100%"></stop>
        </linearGradient>
        <linearGradient x1="211.487747%" y1="49.6228106%" x2="19.4687747%" y2="49.6228106%" id="linearGradient-20">
            <stop stop-color="#5778FF" offset="0%"></stop>
            <stop stop-color="#5C7DFF" offset="17.79%"></stop>
            <stop stop-color="#6A8AFF" offset="38.76%"></stop>
            <stop stop-color="#82A0FF" offset="61.34%"></stop>
            <stop stop-color="#A3BEFF" offset="84.9%"></stop>
            <stop stop-color="#BCD5FF" offset="100%"></stop>
        </linearGradient>
        <linearGradient x1="85.2145785%" y1="38.2714605%" x2="14.6194211%" y2="61.8466174%" id="linearGradient-21">
            <stop stop-color="#C0D6FF" offset="0%"></stop>
            <stop stop-color="#C5DBFF" offset="29.78%"></stop>
            <stop stop-color="#D3E9FF" offset="64.88%"></stop>
            <stop stop-color="#E9FFFF" offset="100%"></stop>
        </linearGradient>
        <linearGradient x1="99.7521739%" y1="49.8263977%" x2="0.386956522%" y2="49.8263977%" id="linearGradient-22">
            <stop stop-color="#C0D6FF" offset="0%"></stop>
            <stop stop-color="#D2E8FF" offset="49.83%"></stop>
            <stop stop-color="#E9FFFF" offset="100%"></stop>
        </linearGradient>
        <linearGradient x1="211.1083%" y1="49.8263977%" x2="19.0893281%" y2="49.8263977%" id="linearGradient-23">
            <stop stop-color="#5778FF" offset="0%"></stop>
            <stop stop-color="#5C7DFF" offset="17.79%"></stop>
            <stop stop-color="#6A8AFF" offset="38.76%"></stop>
            <stop stop-color="#82A0FF" offset="61.34%"></stop>
            <stop stop-color="#A3BEFF" offset="84.9%"></stop>
            <stop stop-color="#BCD5FF" offset="100%"></stop>
        </linearGradient>
        <linearGradient x1="85.2304821%" y1="38.240171%" x2="14.6353248%" y2="61.8153279%" id="linearGradient-24">
            <stop stop-color="#C0D6FF" offset="0%"></stop>
            <stop stop-color="#C5DBFF" offset="29.78%"></stop>
            <stop stop-color="#D3E9FF" offset="64.88%"></stop>
            <stop stop-color="#E9FFFF" offset="100%"></stop>
        </linearGradient>
        <linearGradient x1="99.7683794%" y1="49.9378389%" x2="0.403162055%" y2="49.9378389%" id="linearGradient-25">
            <stop stop-color="#C0D6FF" offset="0%"></stop>
            <stop stop-color="#D2E8FF" offset="49.83%"></stop>
            <stop stop-color="#E9FFFF" offset="100%"></stop>
        </linearGradient>
        <linearGradient x1="211.124506%" y1="49.9378389%" x2="19.1055336%" y2="49.9378389%" id="linearGradient-26">
            <stop stop-color="#5778FF" offset="0%"></stop>
            <stop stop-color="#5C7DFF" offset="17.79%"></stop>
            <stop stop-color="#6A8AFF" offset="38.76%"></stop>
            <stop stop-color="#82A0FF" offset="61.34%"></stop>
            <stop stop-color="#A3BEFF" offset="84.9%"></stop>
            <stop stop-color="#BCD5FF" offset="100%"></stop>
        </linearGradient>
        <linearGradient x1="85.2463858%" y1="38.2833368%" x2="14.6515704%" y2="61.8583795%" id="linearGradient-27">
            <stop stop-color="#C0D6FF" offset="0%"></stop>
            <stop stop-color="#C5DBFF" offset="29.78%"></stop>
            <stop stop-color="#D3E9FF" offset="64.88%"></stop>
            <stop stop-color="#E9FFFF" offset="100%"></stop>
        </linearGradient>
        <linearGradient x1="99.784585%" y1="50.0450216%" x2="0.418972332%" y2="50.0450216%" id="linearGradient-28">
            <stop stop-color="#C0D6FF" offset="0%"></stop>
            <stop stop-color="#D2E8FF" offset="49.83%"></stop>
            <stop stop-color="#E9FFFF" offset="100%"></stop>
        </linearGradient>
        <linearGradient x1="211.141502%" y1="50.0450216%" x2="19.1213439%" y2="50.0450216%" id="linearGradient-29">
            <stop stop-color="#5778FF" offset="0%"></stop>
            <stop stop-color="#5C7DFF" offset="17.79%"></stop>
            <stop stop-color="#6A8AFF" offset="38.76%"></stop>
            <stop stop-color="#82A0FF" offset="61.34%"></stop>
            <stop stop-color="#A3BEFF" offset="84.9%"></stop>
            <stop stop-color="#BCD5FF" offset="100%"></stop>
        </linearGradient>
        <linearGradient x1="85.2629733%" y1="38.212079%" x2="14.667816%" y2="61.7872359%" id="linearGradient-30">
            <stop stop-color="#C0D6FF" offset="0%"></stop>
            <stop stop-color="#C5DBFF" offset="29.78%"></stop>
            <stop stop-color="#D3E9FF" offset="64.88%"></stop>
            <stop stop-color="#E9FFFF" offset="100%"></stop>
        </linearGradient>
        <linearGradient x1="99.8003953%" y1="49.9487492%" x2="0.435968379%" y2="49.9487492%" id="linearGradient-31">
            <stop stop-color="#C0D6FF" offset="0%"></stop>
            <stop stop-color="#D2E8FF" offset="49.83%"></stop>
            <stop stop-color="#E9FFFF" offset="100%"></stop>
        </linearGradient>
        <linearGradient x1="211.157312%" y1="49.9487492%" x2="19.1375494%" y2="49.9487492%" id="linearGradient-32">
            <stop stop-color="#5778FF" offset="0%"></stop>
            <stop stop-color="#5C7DFF" offset="17.79%"></stop>
            <stop stop-color="#6A8AFF" offset="38.76%"></stop>
            <stop stop-color="#82A0FF" offset="61.34%"></stop>
            <stop stop-color="#A3BEFF" offset="84.9%"></stop>
            <stop stop-color="#BCD5FF" offset="100%"></stop>
        </linearGradient>
        <linearGradient x1="85.278877%" y1="38.1122723%" x2="14.6840616%" y2="61.687315%" id="linearGradient-33">
            <stop stop-color="#C0D6FF" offset="0%"></stop>
            <stop stop-color="#C5DBFF" offset="29.78%"></stop>
            <stop stop-color="#D3E9FF" offset="64.88%"></stop>
            <stop stop-color="#E9FFFF" offset="100%"></stop>
        </linearGradient>
    </defs>
    <g id="Destop" stroke="none" stroke-width="1" fill="none" fill-rule="evenodd">
        <g id="Vault77-Ruby-New" transform="translate(-72.000000, -1107.000000)">
            <g id="3" transform="translate(74.000000, 1170.000000)">
                <g id="Ruby-on-Rails">
                    <path d="M230.187462,424.255232 C363.881102,438.084903 383.747594,439.524315 437.860313,389.605997 C476.896658,353.59545 612.473088,246.720799 578.402204,170.901493 C544.331319,95.0821857 447.389174,89.9847581 364.101198,81.9256673 C301.817885,75.8990246 261.343077,-11.4202413 146.105485,18.1323166 C60.5184053,40.0810322 12.3703935,137.308596 3.22980349,196.477273 C-5.91078655,255.645949 -12.2535429,399.176407 230.187462,424.255232 Z" id="Oval" fill="#F3F7FF"></path>
                    <g id="Oval-Copy-37" fill-rule="nonzero">
                        <use fill="black" fill-opacity="1" filter="url(#filter-2)" xlink:href="#path-1"></use>
                        <use stroke="#FFDB60" stroke-width="18" xlink:href="#path-1"></use>
                    </g>
                    <circle id="Oval-Copy-46" stroke="#FFDB60" stroke-width="5" opacity="0.350609189" fill-rule="nonzero" cx="7.13100555" cy="457.5" r="6.5"></circle>
                    <g id="Group" transform="translate(328.131006, 308.000000) scale(-1, 1) translate(-328.131006, -308.000000) translate(43.631006, 62.000000)">
                        <g id="Path">
                            <g>
                                <g opacity="0.5" transform="translate(0.000000, 247.614336)" fill="#1D1F20">
                                    <path d="M185.229784,0.441492537 L418.648458,135.243881 C420.7089,136.421194 420.7089,139.364478 418.648458,140.541791 L244.541087,241.349254 C238.654109,244.73403 231.442561,244.73403 225.555583,241.349254 L1.7032488,112.139104 C-0.357193458,110.961791 -0.357193458,108.018507 1.7032488,106.841194 L185.229784,0.441492537 Z" opacity="0.159179688"></path>
                                </g>
                                <g transform="translate(34.228802, 0.000000)">
                                    <g transform="translate(154.154491, 0.000000)">
                                        <path d="M4.05803996,188.895829 L35.2590228,3.76329152 L32.7570572,2.73314227 L36.5835928,0.525679584 L36.5835928,0.525679584 C37.319465,0.084187047 38.3496861,0.084187047 39.5270817,0.672843763 L288.840595,144.599411 C290.901038,145.776724 292.372782,148.867172 292.078433,150.927471 L260.583101,337.53165 C260.435927,338.561799 259.994404,339.150456 259.258531,339.444784 L259.258531,339.444784 L255.57917,341.505083 L254.990472,338.120306 L255.137647,338.120306 L7.2958778,195.076724 C5.23543554,194.046575 3.76369106,190.956127 4.05803996,188.895829 Z" fill="url(#linearGradient-3)"></path>
                                        <path d="M287.368851,149.750157 L291.489735,147.984187 C291.931259,149.014336 292.225608,150.19165 292.078433,151.074635 L260.583101,337.678814 C260.435927,338.708963 259.994404,339.29762 259.258531,339.591948 L259.258531,339.591948 L255.57917,341.652247 L254.990472,338.267471 L255.137647,338.267471 L242.627819,331.056426 L287.368851,149.750157 Z" fill="url(#linearGradient-4)"></path>
                                        <path d="M3.32216772,197.431351 L252.635681,341.357918 C254.548949,342.535232 256.167868,341.799411 256.609391,339.886277 L288.104723,153.282097 C288.399072,151.221799 286.927327,148.131351 284.866885,146.954038 L35.5533717,3.02747063 C33.6401038,1.8501572 32.0211849,2.58597809 31.5796616,4.49911242 L0.084329884,191.103292 C-0.21001901,193.310754 1.40889991,196.254038 3.32216772,197.431351 Z" fill="#242993"></path>
                                        <g opacity="0.51" transform="translate(8.830467, 14.716418)" fill="#4553C7">
                                            <polygon points="29.9607427 0.231351226 270.296615 139.007172 240.420202 314.721202 0.231504331 176.092545"></polygon>
                                        </g>
                                    </g>
                                    <g transform="translate(0.000000, 196.106874)">
                                        <path d="M0.883046683,89.6229851 L14.4230958,96.6868657 L150.853808,17.9540299 C153.2086,16.6295522 157.18231,16.7767164 159.83145,18.3955224 L395.163391,154.22806 C397.371007,152.903582 407.673219,148.047164 407.673219,148.047164 L402.669287,160.997612 C402.669287,160.997612 402.669287,160.997612 402.669287,160.997612 C402.522113,161.586269 402.08059,162.174925 401.344717,162.469254 L257.555283,245.469851 C255.200491,246.794328 251.226781,246.647164 248.577641,245.028358 L7.8002457,105.958209 C6.77002457,105.369552 6.03415233,104.633731 5.73980344,103.750746 L5.73980344,103.750746 L0.883046683,89.6229851 Z" fill="url(#linearGradient-5)"></path>
                                        <path d="M2.94348894,91.8304478 L249.755037,234.285373 C252.404177,235.904179 256.525061,236.051343 258.879853,234.726866 L406.201474,149.66597 C408.556265,148.341493 408.261916,145.986866 405.612776,144.36806 L158.801229,1.91313433 C156.152088,0.294328358 152.031204,0.147164179 149.676413,1.47164179 L2.35479115,86.5325373 C0,88.0041791 0.294348894,90.358806 2.94348894,91.8304478 Z" fill="url(#linearGradient-6)"></path>
                                        <path d="M324.078133,203.52806 L324.078133,200.879104 C324.078133,200.584776 323.930958,200.437612 323.783784,200.584776 L314.217445,206.029851 C314.07027,206.177015 313.923096,206.471343 313.923096,206.765672 L313.923096,209.414627 C313.923096,209.708955 314.07027,209.856119 314.217445,209.708955 L323.783784,204.263881 C323.930958,204.116716 324.078133,203.822388 324.078133,203.52806 Z" fill="#2859CB"></path>
                                        <path d="M309.802211,211.769254 L309.802211,209.120299 C309.802211,208.82597 309.655037,208.678806 309.507862,208.82597 L299.941523,214.271045 C299.794349,214.418209 299.647174,214.712537 299.647174,215.006866 L299.647174,217.655821 C299.647174,217.950149 299.794349,218.097313 299.941523,217.950149 L309.507862,212.505075 C309.655037,212.35791 309.802211,212.063582 309.802211,211.769254 Z" fill="#2859CB"></path>
                                        <path d="M367.641769,141.719104 L162.627764,23.3991045 C161.303194,22.6632836 159.537101,22.6632836 158.212531,23.3991045 L85.2140049,65.6352239 C84.1837838,66.2238806 84.1837838,67.6955224 85.2140049,68.4313433 L290.22801,186.751343 C291.55258,187.487164 293.318673,187.487164 294.643243,186.751343 L367.788943,144.515224 C368.819165,143.926567 368.819165,142.307761 367.641769,141.719104 Z" fill="#ADC8FF"></path>
                                        <path d="M367.641769,144.515224 L366.905897,144.956716 L162.627764,26.9310448 C161.303194,26.1952239 159.537101,26.1952239 158.212531,26.9310448 L85.9498771,68.7256716 L85.2140049,68.2841791 C84.1837838,67.6955224 84.1837838,66.2238806 85.2140049,65.4880597 L158.212531,23.2519403 C159.537101,22.5161194 161.303194,22.5161194 162.627764,23.2519403 L367.641769,141.57194 C368.819165,142.307761 368.819165,143.926567 367.641769,144.515224 Z" fill="#91AFFF"></path>
                                        <g transform="translate(95.284712, 29.432836)" fill="#242993">
                                            <polygon points="57.4823643 4.70925373 235.563445 107.429851 243.510866 102.867761 65.28261 0.147164179"></polygon>
                                            <polygon points="38.0553373 15.8937313 205.098335 112.286269 213.045755 107.724179 45.855583 11.3316418"></polygon>
                                            <polygon points="25.3983348 23.1047761 222.023396 136.715522 229.970816 132.153433 33.1985805 18.5426866"></polygon>
                                            <polygon points="12.7413323 30.4629851 209.366394 144.073731 217.313814 139.511642 20.6887525 25.9008955"></polygon>
                                            <polygon points="0.084329884 37.821194 196.709391 151.284776 204.656811 146.722687 8.03175003 33.2591045"></polygon>
                                            <polygon points="246.30718 113.75791 254.2546 118.32 262.20202 113.75791 254.2546 109.195821"></polygon>
                                            <polygon points="218.344035 119.938806 234.827573 129.504478 242.774993 124.942388 226.291455 115.376716"></polygon>
                                        </g>
                                        <path d="M154.680344,170.416119 L99.3427518,138.481493 C97.1351351,137.304179 97.1351351,135.243881 99.3427518,133.919403 L137.166585,112.139104 C139.374201,110.961791 142.759214,110.961791 144.96683,112.139104 L200.304423,144.073731 C202.512039,145.251045 202.512039,147.311343 200.304423,148.635821 L162.48059,170.416119 C160.420147,171.740597 156.887961,171.740597 154.680344,170.416119 Z" fill="url(#linearGradient-7)"></path>
                                        <path d="M200.304423,145.986866 L144.96683,114.052239 C142.759214,112.874925 139.374201,112.874925 137.166585,114.052239 L99.3427518,135.832537 C98.6068796,136.27403 98.3125307,136.715522 98.0181818,137.157015 C97.429484,136.126866 97.8710074,134.802388 99.3427518,133.919403 L137.166585,112.139104 C139.374201,110.961791 142.759214,110.961791 144.96683,112.139104 L200.304423,144.073731 C201.776167,144.956716 202.21769,146.13403 201.628993,147.311343 C201.481818,146.722687 201.040295,146.281194 200.304423,145.986866 Z" fill="#91AFFF"></path>
                                    </g>
                                </g>
                                <g opacity="0.11" transform="translate(160.233716, 126.336724)">
                                    <g>
                                        <path d="M2.35479115,91.5361194 L279.166339,213.991045 C281.815479,215.609851 285.936364,215.757015 288.291155,214.432537 L405.612776,149.371642 C407.967568,148.047164 407.673219,145.692537 405.024079,144.073731 L158.212531,1.61880597 C155.563391,-4.6723736e-13 151.442506,-0.147164179 149.087715,1.17731343 L1.76609337,86.238209 C-0.588697789,87.5626866 -0.294348894,89.9173134 2.35479115,91.5361194 Z" fill="url(#linearGradient-8)"></path>
                                        <path d="M279.902211,96.9955224 L224.564619,65.0608955 C222.357002,63.8835821 222.357002,61.8232836 224.564619,60.498806 L262.388452,38.7185075 C264.596069,37.541194 267.981081,37.541194 270.188698,38.7185075 L325.52629,70.6531343 C327.733907,71.8304478 327.733907,73.8907463 325.52629,75.2152239 L287.702457,96.9955224 C285.642015,98.32 282.109828,98.32 279.902211,96.9955224 Z" fill="url(#linearGradient-9)"></path>
                                        <path d="M325.52629,72.5662687 L270.188698,40.6316418 C267.981081,39.4543284 264.596069,39.4543284 262.388452,40.6316418 L224.564619,62.4119403 C223.828747,62.8534328 223.534398,63.2949254 223.240049,63.7364179 C222.651351,62.7062687 223.092875,61.381791 224.564619,60.498806 L262.388452,38.7185075 C264.596069,37.541194 267.981081,37.541194 270.188698,38.7185075 L325.52629,70.6531343 C326.998034,71.5361194 327.439558,72.7134328 326.85086,73.8907463 C326.703686,73.3020896 326.262162,72.860597 325.52629,72.5662687 Z" fill="#91AFFF"></path>
                                        <g transform="translate(66.414933, 27.092537)">
                                            <path d="M283.395141,119.791642 L78.3811358,1.47164179 C77.0565658,0.735820896 75.2904724,0.735820896 73.9659024,1.47164179 L0.967376567,43.7077612 C-0.0628445632,44.2964179 -0.0628445632,45.7680597 0.967376567,46.5038806 L205.981381,164.823881 C207.305952,165.559701 209.072045,165.559701 210.396615,164.823881 L283.542315,122.587761 C284.572536,121.999104 284.572536,120.380299 283.395141,119.791642 Z" fill="#ADC8FF"></path>
                                            <path d="M283.395141,122.587761 L282.659268,123.029254 L78.3811358,5.00358209 C77.0565658,4.26776119 75.2904724,4.26776119 73.9659024,5.00358209 L1.7032488,46.798209 L0.967376567,46.3567164 C-0.0628445632,45.7680597 -0.0628445632,44.2964179 0.967376567,43.560597 L73.9659024,1.47164179 C75.2904724,0.735820896 77.0565658,0.735820896 78.3811358,1.47164179 L283.395141,119.791642 C284.572536,120.380299 284.572536,121.999104 283.395141,122.587761 Z" fill="#91AFFF"></path>
                                            <g transform="translate(12.152635, 8.829851)" fill="#242993">
                                                <polygon points="7.94742015 31.9346269 186.617199 135.096716 179.405651 139.217313 0.883046683 36.0552239"></polygon>
                                                <polygon points="26.7857494 21.0444776 196.477887 119.055821 189.413514 123.176418 19.5742015 25.1650746"></polygon>
                                                <polygon points="209.282064 126.41403 225.02973 135.538209 217.965356 139.658806 202.070516 130.534627"></polygon>
                                                <polygon points="195.153317 140.100299 206.1914 146.428358 199.127027 150.548955 188.088943 144.220896"></polygon>
                                                <polygon points="38.5597052 14.2749254 236.803686 128.768657 229.739312 132.889254 31.4953317 18.3955224"></polygon>
                                                <polygon points="50.3336609 7.50537313 248.724816 121.999104 241.513268 126.119701 43.2692875 11.6259701"></polygon>
                                                <polygon points="62.1076167 0.735820896 260.498771 115.229552 253.434398 119.202985 55.0432432 4.70925373"></polygon>
                                            </g>
                                        </g>
                                    </g>
                                </g>
                            </g>
                            <polygon fill="url(#radialGradient-10)" opacity="0.42" points="306.943052 327.377321 360.073028 294.559709 240.567377 225.686874 184.199563 263.508068"></polygon>
                            <polygon fill="url(#radialGradient-11)" opacity="0.42" points="360.073028 294.559709 372.288507 217.740008 260.141578 153.429262 260.141578 236.724187"></polygon>
                            <g transform="translate(57.398034, 108.901493)">
                                <g transform="translate(190.233716, 0.000000)">
                                    <path d="M0.735872236,7.14806764 L12.6570025,0.378515405 L12.6570025,0.378515405 C12.8041769,0.231351226 12.9513514,0.231351226 13.2457002,0.378515405 L161.891892,86.1752318 C162.333415,86.4695602 162.774939,87.2053811 162.774939,87.7940378 L162.774939,115.902396 C162.774939,116.196724 162.627764,116.491053 162.48059,116.491053 L162.48059,116.491053 L162.48059,116.491053 C162.48059,116.491053 162.48059,116.491053 162.48059,116.491053 L150.559459,123.407769 L150.412285,109.868665 L13.2457002,30.6943363 C12.8041769,30.4000079 12.3626536,29.664187 12.3626536,29.0755303 L12.3626536,19.5098587 L0.735872236,7.14806764 Z" fill="url(#linearGradient-12)"></path>
                                    <path d="M1.17739558,37.6110527 L149.823587,123.407769 C150.265111,123.702097 150.706634,123.407769 150.706634,122.671948 L150.706634,94.56359 C150.706634,93.9749333 150.265111,93.0919482 149.823587,92.9447841 L1.17739558,7.14806764 C0.735872236,6.85373929 0.294348894,7.14806764 0.294348894,7.88388854 L0.294348894,35.9922467 C0.294348894,36.5809035 0.735872236,37.3167244 1.17739558,37.6110527 Z" fill="url(#linearGradient-13)"></path>
                                    <path d="M21.7818182,31.8716497 L137.608108,100.008665 C134.075921,103.099112 130.690909,106.631053 127.600246,110.457321 L10.8909091,43.0561273 C14.1287469,38.9355303 17.8081081,35.1092617 21.7818182,31.8716497 Z" fill="#242993" opacity="0.6"></path>
                                    <path d="M5.44545455,29.0755303 L145.702703,110.015829 C145.997052,110.162993 146.2914,110.015829 146.2914,109.574336 L146.2914,102.510456 C146.2914,102.068963 145.997052,101.627471 145.702703,101.333142 L5.44545455,20.3928438 C5.15110565,20.2456796 4.85675676,20.3928438 4.85675676,20.8343363 L4.85675676,27.8982169 C4.85675676,28.4868736 5.15110565,28.9283662 5.44545455,29.0755303 Z" fill="#242993"></path>
                                    <path d="M5.44545455,20.5400079 L8.24176904,22.1588139 L8.24176904,25.9850826 C8.24176904,26.4265751 8.53611794,26.8680676 8.83046683,27.162396 L146.144226,106.483889 L146.144226,109.7215 C146.144226,110.162993 145.849877,110.310157 145.555528,110.162993 L5.2982801,29.2226945 C5.0039312,29.0755303 4.70958231,28.4868736 4.70958231,28.0453811 L4.70958231,20.9815005 C4.85675676,20.5400079 5.15110565,20.2456796 5.44545455,20.5400079 Z" fill="#4553C7"></path>
                                </g>
                                <path d="M116.940841,332.822396 L0.231504331,265.421202 L0.231504331,265.421202 C15.2432979,256.738515 27.9003004,237.754336 31.8740105,219.505978 C33.4929294,212.147769 37.9081628,205.672545 44.5310129,201.993441 L132.688507,151.074635 C157.266639,136.946874 173.16148,111.340306 174.780399,83.0847841 C176.252143,59.244187 194.207426,35.6979184 208.336173,27.6038885 L208.336173,27.6038885 L325.045509,95.0050826 L325.045509,95.0050826 C311.211111,102.951948 296.052143,125.320903 294.28605,148.720008 C292.225608,176.97553 276.772291,202.582097 252.194158,216.857023 L161.24035,269.394635 C154.764674,273.220903 150.202266,279.548963 148.583347,286.907172 C144.609637,305.15553 131.952635,324.139709 116.940841,332.822396 L116.940841,332.822396 Z" fill="url(#linearGradient-14)" opacity="0.96"></path>
                                <path d="M208.336173,27.7510527 L325.045509,95.1522467 C324.162463,95.7409035 323.132241,96.3295602 322.249195,96.9182169 L322.249195,96.9182169 L205.687033,29.5170229 C206.422905,28.9283662 207.305952,28.3397094 208.336173,27.7510527 Z" fill="#4553C7" opacity="0.8"></path>
                            </g>
                        </g>
                        <g transform="translate(153.440104, 166.674038)">
                            <g transform="translate(0.000000, 17.281186)">
                                <path d="M0.441523342,10.8271721 L37.6766585,10.8271721 L37.6766585,90.2958288 L37.6766585,90.2958288 C37.6766585,93.0919482 35.9105651,95.7409035 32.2312039,97.9483662 C25.019656,102.216127 13.2457002,102.216127 5.88697789,97.9483662 C2.20761671,95.8880676 0.441523342,93.0919482 0.441523342,90.2958288 L0.441523342,90.2958288 L0.441523342,10.8271721 L0.441523342,10.8271721 Z" id="Path" fill="url(#linearGradient-15)"></path>
                                <path d="M0.441523342,10.8271721 L37.6766585,10.8271721 L37.6766585,90.2958288 L37.6766585,90.2958288 C37.6766585,93.0919482 35.9105651,95.7409035 32.2312039,97.9483662 C25.019656,102.216127 13.2457002,102.216127 5.88697789,97.9483662 C2.20761671,95.8880676 0.441523342,93.0919482 0.441523342,90.2958288 L0.441523342,90.2958288 L0.441523342,10.8271721 L0.441523342,10.8271721 Z" id="Path" fill="url(#linearGradient-16)"></path>
                                <ellipse id="Oval" fill="url(#linearGradient-17)" cx="19.1326781" cy="10.8271721" rx="18.5439803" ry="10.7429851"></ellipse>
                                <path d="M10.5965602,15.68359 C15.3061425,18.3325453 22.9592138,18.3325453 27.5216216,15.68359 C32.2312039,13.0346348 32.2312039,8.61970944 27.5216216,5.82359003 C22.8120393,3.17463481 15.1589681,3.17463481 10.5965602,5.82359003 C5.88697789,8.61970944 5.88697789,13.0346348 10.5965602,15.68359 Z" id="Path" fill="url(#linearGradient-18)" opacity="0.3"></path>
                                <path d="M6.03415233,17.5967244 C13.2457002,21.8644856 25.019656,21.8644856 32.3783784,17.5967244 C35.7633907,15.5364259 37.6766585,13.0346348 37.8238329,10.3856796 C37.9710074,13.3289632 36.204914,16.1250826 32.3783784,18.3325453 C25.1668305,22.6003065 13.3928747,22.6003065 6.03415233,18.3325453 C2.20761671,16.1250826 0.441523342,13.181799 0.588697789,10.3856796 C0.735872236,13.0346348 2.5019656,15.68359 6.03415233,17.5967244 Z" id="Path" fill="#FFFFFF" opacity="0.5"></path>
                            </g>
                            <g id="Path">
                                <path d="M0.441523342,10.8901493 L37.6766585,10.8901493 L37.6766585,18.101194 L37.6766585,18.101194 C37.6766585,20.8973134 35.9105651,23.5462687 32.2312039,25.7537313 C25.019656,30.0214925 13.2457002,30.0214925 5.88697789,25.7537313 C2.20761671,23.6934328 0.441523342,20.8973134 0.441523342,18.101194 L0.441523342,18.101194 L0.441523342,10.8901493 L0.441523342,10.8901493 Z" fill="url(#linearGradient-19)"></path>
                                <path d="M0.441523342,10.8901493 L37.6766585,10.8901493 L37.6766585,18.101194 L37.6766585,18.101194 C37.6766585,20.8973134 35.9105651,23.5462687 32.2312039,25.7537313 C25.019656,30.0214925 13.2457002,30.0214925 5.88697789,25.7537313 C2.20761671,23.6934328 0.441523342,20.8973134 0.441523342,18.101194 L0.441523342,18.101194 L0.441523342,10.8901493 L0.441523342,10.8901493 Z" fill="url(#linearGradient-20)"></path>
                                <path d="M6.03415233,18.3955224 C13.2457002,22.6632836 25.019656,22.6632836 32.3783784,18.3955224 C39.5899263,14.1277612 39.5899263,7.35820896 32.3783784,3.23761194 C25.1668305,-1.03014925 13.3928747,-1.03014925 6.03415233,3.23761194 C-1.32457002,7.50537313 -1.32457002,14.2749254 6.03415233,18.3955224 Z" fill="url(#linearGradient-21)"></path>
                                <path d="M6.03415233,17.6597015 C13.2457002,21.9274627 25.019656,21.9274627 32.3783784,17.6597015 C35.7633907,15.599403 37.6766585,13.0976119 37.8238329,10.4486567 C37.9710074,13.3919403 36.204914,16.1880597 32.3783784,18.3955224 C25.1668305,22.6632836 13.3928747,22.6632836 6.03415233,18.3955224 C2.20761671,16.1880597 0.441523342,13.2447761 0.588697789,10.4486567 C0.735872236,13.0976119 2.5019656,15.599403 6.03415233,17.6597015 Z" fill="#FFFFFF" opacity="0.5"></path>
                            </g>
                            <g transform="translate(30.906634, 61.430440)" id="Path">
                                <path d="M0.441523342,10.9743363 L37.6766585,10.9743363 L37.6766585,63.9534408 L37.6766585,63.9534408 C37.6766585,66.7495602 35.9105651,69.3985154 32.2312039,71.6059781 C25.019656,75.8737393 13.2457002,75.8737393 5.88697789,71.6059781 C2.20761671,69.5456796 0.441523342,66.7495602 0.441523342,63.9534408 L0.441523342,63.9534408 L0.441523342,10.9743363 L0.441523342,10.9743363 Z" fill="url(#linearGradient-22)"></path>
                                <path d="M0.441523342,10.9743363 L37.6766585,10.9743363 L37.6766585,63.9534408 L37.6766585,63.9534408 C37.6766585,66.7495602 35.9105651,69.3985154 32.2312039,71.6059781 C25.019656,75.8737393 13.2457002,75.8737393 5.88697789,71.6059781 C2.20761671,69.5456796 0.441523342,66.7495602 0.441523342,63.9534408 L0.441523342,63.9534408 L0.441523342,10.9743363 L0.441523342,10.9743363 Z" fill="url(#linearGradient-23)"></path>
                                <path d="M5.88697789,18.4797094 C13.0985258,22.7474706 24.8724816,22.7474706 32.2312039,18.4797094 C39.4427518,14.2119482 39.4427518,7.442396 32.2312039,3.32179899 C25.019656,-0.945962207 13.2457002,-0.945962207 5.88697789,3.32179899 C-1.47174447,7.58956018 -1.47174447,14.3591124 5.88697789,18.4797094 Z" fill="url(#linearGradient-24)"></path>
                                <path d="M5.88697789,17.7438885 C13.0985258,22.0116497 24.8724816,22.0116497 32.2312039,17.7438885 C35.6162162,15.68359 37.529484,13.181799 37.6766585,10.5328438 C37.8238329,13.4761273 36.0577396,16.2722467 32.2312039,18.4797094 C25.019656,22.7474706 13.2457002,22.7474706 5.88697789,18.4797094 C2.06044226,16.2722467 0.294348894,13.3289632 0.441523342,10.5328438 C0.588697789,13.181799 2.35479115,15.68359 5.88697789,17.7438885 Z" fill="#FFFFFF" opacity="0.5"></path>
                            </g>
                            <g transform="translate(61.813268, 51.507463)" id="Path">
                                <path d="M0.294348894,11.478806 L37.529484,11.478806 L37.529484,91.5361194 L37.529484,91.5361194 C37.529484,94.3322388 35.7633907,96.981194 32.0840295,99.1886567 C24.8724816,103.456418 13.0985258,103.456418 5.73980344,99.1886567 C2.06044226,97.1283582 0.294348894,94.3322388 0.294348894,91.5361194 L0.294348894,91.5361194 L0.294348894,11.478806 L0.294348894,11.478806 Z" fill="url(#linearGradient-25)"></path>
                                <path d="M0.294348894,11.478806 L37.529484,11.478806 L37.529484,91.5361194 L37.529484,91.5361194 C37.529484,94.3322388 35.7633907,96.981194 32.0840295,99.1886567 C24.8724816,103.456418 13.0985258,103.456418 5.73980344,99.1886567 C2.06044226,97.1283582 0.294348894,94.3322388 0.294348894,91.5361194 L0.294348894,91.5361194 L0.294348894,11.478806 L0.294348894,11.478806 Z" fill="url(#linearGradient-26)"></path>
                                <path d="M5.73980344,18.9841791 C12.9513514,23.2519403 24.7253071,23.2519403 32.0840295,18.9841791 C39.2955774,14.7164179 39.2955774,7.94686567 32.0840295,3.82626866 C24.8724816,-0.441492537 13.0985258,-0.441492537 5.73980344,3.82626866 C-1.61891892,8.09402985 -1.61891892,14.8635821 5.73980344,18.9841791 Z" fill="url(#linearGradient-27)"></path>
                                <path d="M5.73980344,18.2483582 C12.9513514,22.5161194 24.7253071,22.5161194 32.0840295,18.2483582 C35.4690418,16.1880597 37.3823096,13.6862687 37.529484,11.0373134 C37.6766585,13.980597 35.9105651,16.7767164 32.0840295,18.9841791 C24.8724816,23.2519403 13.0985258,23.2519403 5.73980344,18.9841791 C1.91326781,16.7767164 0.147174447,13.8334328 0.294348894,11.0373134 C0.441523342,13.6862687 2.20761671,16.1880597 5.73980344,18.2483582 Z" fill="#FFFFFF" opacity="0.5"></path>
                            </g>
                            <g transform="translate(92.719902, 83.883582)" id="Path">
                                <path d="M0.147174447,11.1844776 L37.3823096,11.1844776 L37.3823096,76.8197015 L37.3823096,76.8197015 C37.3823096,79.6158209 35.6162162,82.2647761 31.936855,84.4722388 C24.7253071,88.74 12.9513514,88.74 5.59262899,84.4722388 C1.91326781,82.4119403 0.147174447,79.6158209 0.147174447,76.8197015 L0.147174447,76.8197015 L0.147174447,11.1844776 L0.147174447,11.1844776 Z" fill="url(#linearGradient-28)"></path>
                                <path d="M0.147174447,11.1844776 L37.3823096,11.1844776 L37.3823096,76.8197015 L37.3823096,76.8197015 C37.3823096,79.6158209 35.6162162,82.2647761 31.936855,84.4722388 C24.7253071,88.74 12.9513514,88.74 5.59262899,84.4722388 C1.91326781,82.4119403 0.147174447,79.6158209 0.147174447,76.8197015 L0.147174447,76.8197015 L0.147174447,11.1844776 L0.147174447,11.1844776 Z" fill="url(#linearGradient-29)"></path>
                                <path d="M5.59262899,18.8370149 C12.8041769,23.1047761 24.5781327,23.1047761 31.936855,18.8370149 C39.1484029,14.5692537 39.1484029,7.79970149 31.936855,3.67910448 C24.7253071,-0.588656716 12.9513514,-0.588656716 5.59262899,3.67910448 C-1.76609337,7.79970149 -1.76609337,14.7164179 5.59262899,18.8370149 Z" fill="url(#linearGradient-30)"></path>
                                <path d="M5.59262899,18.101194 C12.8041769,22.3689552 24.5781327,22.3689552 31.936855,18.101194 C35.3218673,16.0408955 37.2351351,13.5391045 37.3823096,10.8901493 C37.529484,13.8334328 35.7633907,16.6295522 31.936855,18.8370149 C24.7253071,23.1047761 12.9513514,23.1047761 5.59262899,18.8370149 C1.76609337,16.6295522 -1.11022302e-16,13.6862687 0.147174447,10.8901493 C0.294348894,13.5391045 2.06044226,16.0408955 5.59262899,18.101194 Z" fill="#FFFFFF" opacity="0.5"></path>
                            </g>
                            <g transform="translate(123.247857, 117.731343)" id="Path">
                                <path d="M0.378678778,11.3316418 L37.6138139,11.3316418 L37.6138139,60.778806 L37.6138139,60.778806 C37.6138139,63.5749254 35.8477205,66.2238806 32.1683594,68.4313433 C24.9568115,72.6991045 13.1828557,72.6991045 5.82413332,68.4313433 C2.14477214,66.3710448 0.378678778,63.5749254 0.378678778,60.778806 L0.378678778,60.778806 L0.378678778,11.3316418 L0.378678778,11.3316418 Z" fill="url(#linearGradient-31)"></path>
                                <path d="M0.378678778,11.3316418 L37.6138139,11.3316418 L37.6138139,60.778806 L37.6138139,60.778806 C37.6138139,63.5749254 35.8477205,66.2238806 32.1683594,68.4313433 C24.9568115,72.6991045 13.1828557,72.6991045 5.82413332,68.4313433 C2.14477214,66.3710448 0.378678778,63.5749254 0.378678778,60.778806 L0.378678778,60.778806 L0.378678778,11.3316418 L0.378678778,11.3316418 Z" fill="url(#linearGradient-32)"></path>
                                <path d="M5.82413332,18.9841791 C13.0356812,23.2519403 24.809637,23.2519403 32.1683594,18.9841791 C39.3799073,14.7164179 39.3799073,7.94686567 32.1683594,3.82626866 C24.9568115,-0.441492537 13.1828557,-0.441492537 5.82413332,3.82626866 C-1.53458903,7.94686567 -1.53458903,14.7164179 5.82413332,18.9841791 Z" fill="url(#linearGradient-33)"></path>
                                <path d="M5.82413332,18.101194 C13.0356812,22.3689552 24.809637,22.3689552 32.1683594,18.101194 C35.5533717,16.0408955 37.4666395,13.5391045 37.6138139,10.8901493 C37.7609884,13.8334328 35.994895,16.6295522 32.1683594,18.8370149 C24.9568115,23.1047761 13.1828557,23.1047761 5.82413332,18.8370149 C1.9975977,16.6295522 0.231504331,13.6862687 0.378678778,10.8901493 C0.525853225,13.5391045 2.29194659,16.1880597 5.82413332,18.101194 Z" fill="#FFFFFF" opacity="0.5"></path>
                            </g>
                        </g>
                        <g transform="translate(434.164619, 156.372545)" fill="#42FFFF" id="Path">
                            <polygon points="10.3865412 6.03373134 14.0659024 8.24119403 14.5074257 5.59223881 10.8280645 3.38477612"></polygon>
                            <polygon points="7.59022669 23.9877612 11.1224134 26.1952239 13.624379 10.7429851 10.0921923 8.38835821"></polygon>
                            <polygon points="6.11848222 32.5232836 9.7978434 34.8779104 10.8280645 28.6970149 7.14870335 26.3423881"></polygon>
                            <polygon points="4.79391219 41.5002985 8.32609893 43.7077612 9.35632006 37.5268657 5.82413332 35.319403"></polygon>
                            <polygon points="3.76369106 11.1844776 7.2958778 13.3919403 8.32609893 7.35820896 4.64673775 5.00358209"></polygon>
                            <polygon points="1.85042325 22.9576119 5.38260998 25.3122388 6.85435445 16.1880597 3.32216772 13.8334328"></polygon>
                            <polygon points="0.084329884 33.8477612 3.61651662 36.0552239 4.94108664 28.2555224 1.26172546 26.0480597"></polygon>
                            <polygon points="3.32216772 50.3301493 7.0015289 52.6847761 7.88457558 46.5038806 4.35238885 44.1492537"></polygon>
                            <polygon points="5.08826109 2.64895522 8.62044782 4.85641791 9.06197116 2.20746269 5.52978443 0"></polygon>
                        </g>
                        <polygon id="Path" fill="#42FFFF" points="433.365902 213.619411 439.694404 217.592844 440.135927 215.091053 433.807426 211.11762"></polygon>
                    </g>
                    <path d="M450.038843,243.974619 C445.104155,246.675127 437.266709,246.675127 432.332022,243.974619 C427.397334,241.274112 427.397334,236.725888 432.332022,234.025381 C437.266709,231.324873 445.104155,231.324873 450.038843,234.025381 C454.828393,236.725888 454.828393,241.274112 450.038843,243.974619 Z" id="Path" fill="#242993" opacity="0.2" transform="translate(441.131006, 239.000000) scale(-1, 1) translate(-441.131006, -239.000000) "></path>
                    <g id="Group" transform="translate(437.631006, 217.500000) scale(-1, 1) translate(-437.631006, -217.500000) translate(402.631006, 185.000000)">
                        <g>
                            <polygon id="Path" fill="#DD821F" points="9.12597656 43.4318182 5.86751302 35.75 7.05240885 35.4545455 8.8297526 37.375"></polygon>
                            <path d="M60.8170573,21.2727273 L57.5585937,13.7386364 C57.5585937,13.7386364 56.5218099,22.3068182 56.6699219,22.4545455 C56.6699219,22.4545455 60.8170573,21.2727273 60.8170573,21.2727273 Z" id="Path" fill="#FFD85A"></path>
                            <g>
                                <path d="M40.8219401,46.2386364 C26.4550781,52.2954545 10.9033203,47.5681818 5.86751302,35.75 C0.831705729,23.9318182 8.38541667,9.45454545 22.7522786,3.39772727 C37.1191406,-2.65909091 52.6708984,2.06818182 57.7067057,13.8863636 C62.594401,25.7045455 55.0406901,40.1818182 40.8219401,46.2386364 Z" id="Path" fill="#FFD85A"></path>
                                <ellipse id="Oval" fill="#FFD85A" transform="translate(35.038078, 32.447055) rotate(-22.836711) translate(-35.038078, -32.447055) " cx="35.0380785" cy="32.4470545" rx="28.131429" ry="23.2038782"></ellipse>
                                <path d="M10.1627604,25.2613636 C7.20052083,31.0227273 6.60807292,37.5227273 9.12597656,43.4318182 C14.1617839,55.25 29.7135417,59.9772727 44.0804036,53.9204545 C51.1897786,50.9659091 56.5218099,45.9431818 59.6321615,40.1818182 L10.1627604,25.2613636 Z" id="Path" fill="#DD821F"></path>
                                <ellipse id="Oval" fill="#F9BF30" transform="translate(35.038375, 32.452520) rotate(-22.836711) translate(-35.038375, -32.452520) " cx="35.0383747" cy="32.4525205" rx="26.7988913" ry="22.1693039"></ellipse>
                                <ellipse id="Oval" fill="#F2B42A" transform="translate(35.038819, 32.459168) rotate(-22.836711) translate(-35.038819, -32.459168) " cx="35.038819" cy="32.4591682" rx="21.6167853" ry="17.8832384"></ellipse>
                                <path d="M54.8925781,24.0795455 C54.7444661,23.6363636 54.5963542,23.3409091 54.3001302,23.0454545 C57.2623698,31.9090909 51.4860026,42.25 40.9700521,46.6818182 C30.4541016,51.1136364 19.0494792,48.0113636 14.6061198,39.7386364 C14.7542318,40.1818182 14.9023437,40.4772727 15.0504557,40.9204545 C18.9013672,49.9318182 30.8984375,53.625 41.858724,49.0454545 C52.9671224,44.3181818 58.7434896,33.2386364 54.8925781,24.0795455 Z" id="Path" fill="#FFD85A"></path>
                                <g transform="translate(14.811198, 25.113636)" fill="#FFD85A" id="Path">
                                    <path d="M24.5296224,7.09090909 L18.9013672,5.46590909 C15.3466797,7.97727273 8.8297526,12.8522727 3.64583333,16.6931818 C6.90429688,20.0909091 11.9401042,21.8636364 17.2721354,21.5681818 L24.5296224,7.09090909 Z"></path>
                                    <path d="M23.0485026,20.3863636 C23.7890625,20.2386364 24.3815104,19.9431818 25.1220703,19.6477273 C29.8616536,17.5795455 33.5644531,14.1818182 35.7861328,10.3409091 L26.6031901,7.53409091 L23.0485026,20.3863636 Z"></path>
                                    <path d="M12.976888,3.54545455 L2.4609375,0.295454545 C0.831705729,3.54545455 -0.353190104,6.79545455 0.387369792,10.1931818 L12.976888,3.54545455 Z"></path>
                                </g>
                                <path d="M27.9361979,18.4659091 C38.8964844,13.8863636 50.8935547,17.4318182 54.7444661,26.5909091 C55.485026,28.3636364 55.929362,30.2840909 55.929362,32.3522727 C56.3736979,29.6931818 56.077474,26.8863636 54.8925781,24.2272727 C51.0416667,15.2159091 39.0445964,11.5227273 28.0843099,16.1022727 C19.3457031,19.7954545 13.8655599,27.625 14.0136719,35.1590909 C14.9023438,28.3636364 20.086263,21.7159091 27.9361979,18.4659091 Z" id="Path" fill="#DD821F"></path>
                            </g>
                            <path d="M5.86751302,35.75 C6.60807292,37.5227273 7.64485677,39.1477273 8.8297526,40.4772727 C8.68164063,38.5568182 8.23730469,35.6022727 8.23730469,35.6022727 L8.38541667,30.5795455 L9.42220052,28.6590909 L11.3476563,25.5568182 L7.49674479,16.5454545 C4.09016927,22.6022727 3.2014974,29.5454545 5.86751302,35.75 Z" id="Path" fill="#DD821F"></path>
                        </g>
                        <g transform="translate(9.274089, 1.477273)" fill="#DD821F" id="Path">
                            <path d="M47.2477214,14.4772727 L45.4703776,10.1931818 C45.4703776,10.0454545 45.4703776,9.75 45.6184896,9.75 L45.7666016,9.75 C45.9147135,9.75 46.2109375,9.75 46.2109375,9.89772727 L47.9882813,14.1818182 C47.9882813,14.3295455 47.9882813,14.625 47.8401693,14.625 L47.6920573,14.625 C47.5439453,14.7727273 47.3958333,14.625 47.2477214,14.4772727 Z"></path>
                            <path d="M42.952474,10.7840909 L40.7307943,5.61363636 C40.5826823,5.46590909 40.7307943,5.17045455 40.8789063,5.17045455 L41.1751302,5.02272727 C41.3232422,4.875 41.6194661,5.02272727 41.6194661,5.17045455 L43.8411458,10.3409091 C43.9892578,10.4886364 43.8411458,10.7840909 43.6930339,10.7840909 L43.3968099,10.9318182 C43.2486979,11.0795455 43.1005859,11.0795455 42.952474,10.7840909 Z"></path>
                            <path d="M38.0647786,8.27272727 L35.843099,3.10227273 C35.694987,2.80681818 35.843099,2.65909091 36.1393229,2.51136364 L36.5836589,2.36363636 C36.8798828,2.21590909 37.0279948,2.36363636 37.1761068,2.65909091 L39.3977865,7.82954545 C39.5458984,8.125 39.3977865,8.27272727 39.1015625,8.42045455 L38.6572266,8.56818182 C38.3610026,8.56818182 38.0647786,8.42045455 38.0647786,8.27272727 Z"></path>
                            <path d="M31.8440755,7.09090909 L29.4742839,1.47727273 C29.3261719,1.18181818 29.4742839,1.03409091 29.7705078,0.886363636 L30.2148437,0.738636364 C30.5110677,0.590909091 30.6591797,0.738636364 30.8072917,1.03409091 L33.1770833,6.64772727 C33.3251953,6.94318182 33.1770833,7.09090909 32.8808594,7.23863636 L32.4365234,7.38636364 C32.2884115,7.38636364 31.9921875,7.23863636 31.8440755,7.09090909 Z"></path>
                            <path d="M26.2158203,6.94318182 L23.6979167,0.886363636 C23.5498047,0.590909091 23.6979167,0.443181818 23.9941406,0.295454545 L24.4384766,0.147727273 C24.7347005,2.0997093e-14 24.8828125,0.147727273 25.0309245,0.443181818 L27.5488281,6.5 C27.6969401,6.79545455 27.5488281,6.94318182 27.2526042,7.09090909 L26.8082682,7.23863636 C26.5120443,7.38636364 26.2158203,7.23863636 26.2158203,6.94318182 Z"></path>
                            <path d="M20.8837891,7.82954545 L18.3658854,1.92045455 C18.2177734,1.625 18.3658854,1.47727273 18.6621094,1.32954545 L19.1064453,1.18181818 C19.4026693,1.03409091 19.5507813,1.18181818 19.6988932,1.47727273 L22.2167969,7.38636364 C22.3649089,7.68181818 22.2167969,7.82954545 21.9205729,7.97727273 L21.476237,8.125 C21.180013,8.125 21.031901,7.97727273 20.8837891,7.82954545 Z"></path>
                            <path d="M15.8479818,9.45454545 L13.3300781,3.54545455 C13.1819661,3.25 13.3300781,3.10227273 13.6263021,2.95454545 L14.070638,2.80681818 C14.366862,2.65909091 14.514974,2.80681818 14.6630859,3.10227273 L17.1809896,9.01136364 C17.3291016,9.30681818 17.1809896,9.45454545 16.8847656,9.60227273 L16.4404297,9.75 C16.2923177,9.75 15.9960938,9.75 15.8479818,9.45454545 Z"></path>
                            <path d="M11.2565104,11.6704545 L8.88671875,5.90909091 C8.73860677,5.61363636 8.88671875,5.46590909 9.18294271,5.31818182 L9.62727865,5.17045455 C9.9235026,5.02272727 10.0716146,5.17045455 10.2197266,5.46590909 L12.5895182,11.2272727 C12.7376302,11.5227273 12.5895182,11.6704545 12.2932943,11.8181818 L11.8489583,11.9659091 C11.5527344,12.1136364 11.2565104,11.9659091 11.2565104,11.6704545 Z"></path>
                            <path d="M6.81315104,14.7727273 L4.44335938,9.15909091 C4.2952474,8.86363636 4.44335938,8.71590909 4.73958333,8.56818182 L5.18391927,8.42045455 C5.48014323,8.27272727 5.62825521,8.42045455 5.77636719,8.71590909 L8.14615885,14.3295455 C8.29427083,14.625 8.14615885,14.7727273 7.8499349,14.9204545 L7.40559896,15.0681818 C7.25748698,15.2159091 6.96126302,15.0681818 6.81315104,14.7727273 Z"></path>
                            <path d="M2.96223958,19.2045455 L0.444335938,13.2954545 C0.296223958,13 0.444335938,12.8522727 0.740559896,12.7045455 L1.18489583,12.5568182 C1.48111979,12.4090909 1.62923177,12.5568182 1.77734375,12.8522727 L4.2952474,18.7613636 C4.44335937,19.0568182 4.2952474,19.2045455 3.99902344,19.3522727 L3.5546875,19.5 C3.40657552,19.5 3.11035156,19.3522727 2.96223958,19.2045455 Z"></path>
                        </g>
                    </g>
                    <path d="M386.946034,294.974619 C382.03274,297.675127 374.229271,297.675127 369.315977,294.974619 C364.402682,292.274112 364.402682,287.725888 369.315977,285.025381 C374.229271,282.324873 382.03274,282.324873 386.946034,285.025381 C391.859329,287.725888 391.859329,292.13198 386.946034,294.974619 Z" id="Path" fill="#242993" opacity="0.2" transform="translate(378.131006, 290.000000) scale(-1, 1) translate(-378.131006, -290.000000) "></path>
                    <g id="Group" transform="translate(379.131006, 265.000000) scale(-1, 1) translate(-379.131006, -265.000000) translate(340.631006, 226.000000)">
                        <g>
                            <polygon id="Path" fill="#DD821F" points="27.0980769 64.754717 19.9903846 60.3396226 21.0269231 59.4566038 23.5442308 60.045283"></polygon>
                            <path d="M57.0096154,17.5132075 L50.05,13.0981132 C50.05,13.0981132 54.1961538,20.7509434 54.1961538,20.7509434 C54.1961538,20.7509434 57.0096154,17.5132075 57.0096154,17.5132075 Z" id="Path" fill="#FFD85A"></path>
                            <g>
                                <ellipse id="Oval" fill="#FFD85A" transform="translate(35.052295, 36.694673) rotate(-57.446195) translate(-35.052295, -36.694673) " cx="35.0522954" cy="36.6946732" rx="28.0129392" ry="23.2076479"></ellipse>
                                <ellipse id="Oval" fill="#FFD85A" transform="translate(42.217989, 41.146692) rotate(-57.446195) translate(-42.217989, -41.146692) " cx="42.2179894" cy="41.1466925" rx="28.0129392" ry="23.2076479"></ellipse>
                                <path d="M17.6211538,49.154717 C18.5096154,55.6301887 21.6192308,61.2226415 27.0980769,64.6075472 C37.9076923,71.5245283 53.4557692,66.5207547 61.8961538,53.5698113 C66.0423077,47.0943396 67.6711538,39.8830189 66.9307692,33.4075472 L17.6211538,49.154717 Z" id="Path" fill="#DD821F"></path>
                                <path d="M61.0076923,53.1283019 C53.0115385,65.490566 38.2038462,70.3471698 27.8384615,63.7245283 C17.4730769,57.1018868 15.5480769,41.7962264 23.5442308,29.2867925 C31.5403846,16.9245283 46.3480769,12.0679245 56.7134615,18.690566 C66.9307692,25.1660377 69.0038462,40.6188679 61.0076923,53.1283019 Z" id="Path" fill="#F9BF30"></path>
                                <ellipse id="Oval" fill="#F2B42A" transform="translate(42.216361, 41.144485) rotate(-57.446195) translate(-42.216361, -41.144485) " cx="42.2163606" cy="41.1444849" rx="21.525733" ry="17.8861476"></ellipse>
                                <path d="M53.7519231,23.1056604 C53.4557692,22.9584906 53.0115385,22.6641509 52.7153846,22.5169811 C60.1192308,28.109434 61.3038462,39.8830189 55.2326923,49.4490566 C49.1615385,59.0150943 37.9076923,62.8415094 29.6153846,58.5735849 C29.9115385,58.8679245 30.2076923,59.0150943 30.6519231,59.309434 C38.9442308,64.6075472 50.9384615,60.7811321 57.3057692,50.7735849 C63.6730769,40.7660377 62.0442308,28.4037736 53.7519231,23.1056604 Z" id="Path" fill="#FFD85A"></path>
                                <g transform="translate(23.311538, 34.849057)" fill="#FFD85A" id="Path">
                                    <path d="M22.2961538,3.56226415 L16.6692308,5.32830189 C15.1884615,9.4490566 12.5230769,16.954717 10.45,23.1358491 C15.0403846,24.0188679 20.2230769,22.6943396 24.5173077,19.4566038 L22.2961538,3.56226415 Z"></path>
                                    <path d="M28.6634615,15.4830189 C29.1076923,14.8943396 29.5519231,14.3056604 29.8480769,13.7169811 C32.6615385,9.30188679 33.6980769,4.44528302 33.2538462,0.0301886792 L24.0730769,2.97358491 L28.6634615,15.4830189 Z"></path>
                                    <path d="M10.7461538,7.24150943 L0.232692308,10.6264151 C0.676923077,14.1584906 1.56538462,17.5433962 4.23076923,19.8981132 L10.7461538,7.24150943 Z"></path>
                                </g>
                                <path d="M28.4307692,33.7018868 C34.7980769,23.6943396 46.7923077,19.8679245 55.0846154,25.1660377 C56.7134615,26.1962264 58.1942308,27.6679245 59.2307692,29.1396226 C58.0461538,26.6377358 56.1211538,24.5773585 53.7519231,23.1056604 C45.4596154,17.8075472 33.4653846,21.6339623 27.0980769,31.6415094 C21.9153846,39.5886792 21.9153846,49.0075472 26.3576923,55.1886792 C23.2480769,49.154717 23.8403846,40.7660377 28.4307692,33.7018868 Z" id="Path" fill="#DD821F"></path>
                            </g>
                            <path d="M19.9903846,60.3396226 C21.6192308,61.3698113 23.3961538,62.1056604 25.1730769,62.6943396 C23.8403846,61.2226415 21.9153846,59.0150943 21.9153846,59.0150943 L19.25,54.8943396 L18.9538462,52.6867925 L18.8057692,49.0075472 L10.5134615,43.709434 C11.1057692,50.4792453 14.3634615,56.6603774 19.9903846,60.3396226 Z" id="Path" fill="#DD821F"></path>
                        </g>
                        <g transform="translate(10.365385, 10.301887)" fill="#DD821F" id="Path">
                            <path d="M40.1288462,5.1509434 L36.2788462,2.6490566 C36.1307692,2.50188679 36.1307692,2.35471698 36.1307692,2.20754717 L36.1307692,2.06037736 C36.2788462,1.91320755 36.4269231,1.91320755 36.575,1.91320755 L40.425,4.41509434 C40.5730769,4.56226415 40.5730769,4.70943396 40.5730769,4.85660377 L40.5730769,5.00377358 C40.5730769,5.1509434 40.2769231,5.1509434 40.1288462,5.1509434 Z"></path>
                            <path d="M34.5019231,4.56226415 L29.7634615,1.47169811 C29.6153846,1.3245283 29.4673077,1.17735849 29.6153846,0.883018868 L29.7634615,0.735849057 C29.9115385,0.588679245 30.0596154,0.441509434 30.3557692,0.588679245 L35.0942308,3.67924528 C35.2423077,3.82641509 35.3903846,3.97358491 35.2423077,4.26792453 L35.0942308,4.41509434 C34.9461538,4.70943396 34.65,4.70943396 34.5019231,4.56226415 Z"></path>
                            <path d="M29.0230769,5.29811321 L24.2846154,2.35471698 C24.1365385,2.20754717 23.9884615,1.91320755 24.1365385,1.76603774 L24.4326923,1.47169811 C24.5807692,1.3245283 24.8769231,1.17735849 25.025,1.3245283 L29.7634615,4.26792453 C29.9115385,4.41509434 30.0596154,4.70943396 29.9115385,4.85660377 L29.6153846,5.1509434 C29.4673077,5.29811321 29.1711538,5.29811321 29.0230769,5.29811321 Z"></path>
                            <path d="M23.2480769,7.8 L18.0653846,4.56226415 C17.9173077,4.41509434 17.7692308,4.12075472 17.9173077,3.97358491 L18.2134615,3.67924528 C18.3615385,3.53207547 18.6576923,3.38490566 18.8057692,3.53207547 L23.9884615,6.76981132 C24.1365385,6.91698113 24.2846154,7.21132075 24.1365385,7.35849057 L23.8403846,7.65283019 C23.6923077,7.8 23.3961538,7.94716981 23.2480769,7.8 Z"></path>
                            <path d="M18.5096154,10.890566 L13.0307692,7.35849057 C12.8826923,7.21132075 12.7346154,6.91698113 12.8826923,6.76981132 L13.1788462,6.4754717 C13.3269231,6.32830189 13.6230769,6.18113208 13.7711538,6.32830189 L19.25,9.86037736 C19.3980769,10.0075472 19.5461538,10.3018868 19.3980769,10.4490566 L19.1019231,10.7433962 C19.1019231,11.0377358 18.8057692,11.0377358 18.5096154,10.890566 Z"></path>
                            <path d="M14.6596154,14.5698113 L9.32884615,11.1849057 C9.18076923,11.0377358 9.03269231,10.7433962 9.18076923,10.5962264 L9.47692308,10.3018868 C9.625,10.154717 9.92115385,10.0075472 10.0692308,10.154717 L15.4,13.5396226 C15.5480769,13.6867925 15.6961538,13.9811321 15.5480769,14.1283019 L15.2519231,14.4226415 C15.1038462,14.7169811 14.8076923,14.7169811 14.6596154,14.5698113 Z"></path>
                            <path d="M11.55,18.690566 L6.07115385,15.3056604 C5.92307692,15.1584906 5.775,14.8641509 5.92307692,14.7169811 L6.21923077,14.4226415 C6.36730769,14.2754717 6.66346154,14.1283019 6.81153846,14.2754717 L12.2903846,17.6603774 C12.4384615,17.8075472 12.5865385,18.1018868 12.4384615,18.2490566 L12.1423077,18.5433962 C11.9942308,18.8377358 11.6980769,18.8377358 11.55,18.690566 Z"></path>
                            <path d="M8.88461538,23.2528302 L3.55384615,19.8679245 C3.40576923,19.7207547 3.25769231,19.4264151 3.40576923,19.2792453 L3.70192308,18.9849057 C3.85,18.8377358 4.14615385,18.690566 4.29423077,18.8377358 L9.625,22.2226415 C9.77307692,22.3698113 9.92115385,22.6641509 9.77307692,22.8113208 L9.47692308,23.1056604 C9.32884615,23.2528302 9.03269231,23.4 8.88461538,23.2528302 Z"></path>
                            <path d="M7.10769231,28.2566038 L1.925,25.0188679 C1.77692308,24.8716981 1.62884615,24.5773585 1.77692308,24.4301887 L2.07307692,24.1358491 C2.22115385,23.9886792 2.51730769,23.8415094 2.66538462,23.9886792 L7.84807692,27.2264151 C7.99615385,27.3735849 8.14423077,27.6679245 7.99615385,27.8150943 L7.7,28.109434 C7.55192308,28.2566038 7.25576923,28.4037736 7.10769231,28.2566038 Z"></path>
                            <path d="M6.36730769,33.9962264 L1.03653846,30.6113208 C0.888461538,30.4641509 0.740384615,30.1698113 0.888461538,30.0226415 L1.18461538,29.7283019 C1.33269231,29.5811321 1.62884615,29.4339623 1.77692308,29.5811321 L7.10769231,32.9660377 C7.25576923,33.1132075 7.40384615,33.4075472 7.25576923,33.554717 L6.95961538,33.8490566 C6.95961538,33.9962264 6.66346154,34.1433962 6.36730769,33.9962264 Z"></path>
                        </g>
                    </g>
                    <path d="M325.946034,361.974619 C321.03274,364.675127 313.229271,364.675127 308.315977,361.974619 C303.402682,359.274112 303.402682,354.725888 308.315977,352.025381 C313.229271,349.324873 321.03274,349.324873 325.946034,352.025381 C330.859329,354.725888 330.859329,359.13198 325.946034,361.974619 Z" id="Path" fill="#242993" opacity="0.2" transform="translate(317.131006, 357.000000) scale(-1, 1) translate(-317.131006, -357.000000) "></path>
                    <g id="Group" transform="translate(316.131006, 331.000000) scale(-1, 1) translate(-316.131006, -331.000000) translate(277.631006, 292.000000)">
                        <g>
                            <polygon id="Path" fill="#DD821F" points="26.7507547 64.6075472 19.6775472 60.1924528 20.7090566 59.309434 23.2141509 59.8981132"></polygon>
                            <path d="M56.6645283,17.3660377 L49.7386792,12.9509434 C49.7386792,12.9509434 53.864717,20.6037736 53.864717,20.6037736 C53.864717,20.6037736 56.6645283,17.3660377 56.6645283,17.3660377 Z" id="Path" fill="#FFD85A"></path>
                            <g>
                                <ellipse id="Oval" fill="#FFD85A" transform="translate(34.867481, 36.546723) rotate(-57.446195) translate(-34.867481, -36.546723) " cx="34.8674814" cy="36.5467234" rx="27.973114" ry="23.1271051"></ellipse>
                                <ellipse id="Oval" fill="#FFD85A" transform="translate(41.786950, 41.032562) rotate(-57.446195) translate(-41.786950, -41.032562) " cx="41.7869498" cy="41.0325623" rx="27.973114" ry="23.1271051"></ellipse>
                                <path d="M17.3198113,49.154717 C18.2039623,55.6301887 21.2984906,61.2226415 26.7507547,64.6075472 C37.5079245,71.5245283 52.980566,66.5207547 61.38,53.5698113 C65.5060377,47.0943396 67.1269811,39.8830189 66.3901887,33.4075472 L17.3198113,49.154717 Z" id="Path" fill="#DD821F"></path>
                                <ellipse id="Oval" fill="#F9BF30" transform="translate(41.786655, 41.032121) rotate(-57.446195) translate(-41.786655, -41.032121) " cx="41.7866551" cy="41.0321208" rx="26.6480719" ry="22.0959602"></ellipse>
                                <ellipse id="Oval" fill="#F2B42A" transform="translate(41.788129, 41.034181) rotate(-57.446195) translate(-41.788129, -41.034181) " cx="41.7881287" cy="41.0341811" rx="21.4951298" ry="17.8240745"></ellipse>
                                <path d="M53.4226415,22.9584906 C53.1279245,22.8113208 52.6858491,22.5169811 52.3911321,22.3698113 C59.7590566,27.9622642 60.9379245,39.7358491 54.8962264,49.3018868 C48.8545283,58.8679245 37.655283,62.6943396 29.4032075,58.4264151 C29.6979245,58.7207547 29.9926415,58.8679245 30.434717,59.1622642 C38.6867925,64.4603774 50.6228302,60.6339623 56.9592453,50.6264151 C63.1483019,40.6188679 61.674717,28.2566038 53.4226415,22.9584906 Z" id="Path" fill="#FFD85A"></path>
                                <g transform="translate(22.477358, 33.849057)" fill="#FFD85A" id="Path">
                                    <path d="M22.6932075,4.41509434 L17.0935849,6.18113208 C15.62,10.3018868 12.9675472,17.8075472 10.9045283,23.9886792 C15.4726415,24.8716981 20.6301887,23.5471698 24.9035849,20.309434 L22.6932075,4.41509434 Z"></path>
                                    <path d="M29.0296226,16.3358491 C29.4716981,15.7471698 29.9137736,15.1584906 30.2084906,14.5698113 C33.0083019,10.154717 34.0398113,5.29811321 33.5977358,0.883018868 L24.4615094,3.82641509 L29.0296226,16.3358491 Z"></path>
                                    <path d="M11.1992453,8.09433962 L0.736792453,11.4792453 C1.17886792,15.0113208 2.06301887,18.3962264 4.7154717,20.7509434 L11.1992453,8.09433962 Z"></path>
                                </g>
                                <path d="M28.0769811,33.554717 C34.4133962,23.5471698 46.349434,19.7207547 54.6015094,25.0188679 C56.2224528,26.0490566 57.6960377,27.5207547 58.7275472,28.9924528 C57.5486792,26.490566 55.6330189,24.4301887 53.275283,22.9584906 C45.0232075,17.6603774 33.0871698,21.4867925 26.7507547,31.4943396 C21.5932075,39.4415094 21.5932075,48.8603774 26.0139623,55.0415094 C22.919434,49.0075472 23.5088679,40.6188679 28.0769811,33.554717 Z" id="Path" fill="#DD821F"></path>
                            </g>
                            <path d="M19.6775472,60.1924528 C21.2984906,61.2226415 23.0667925,61.9584906 24.8350943,62.5471698 C23.5088679,61.0754717 21.5932075,58.8679245 21.5932075,58.8679245 L18.9407547,54.7471698 L18.6460377,52.5396226 L18.4986792,48.8603774 L10.2466038,43.5622642 C10.8360377,50.4792453 14.0779245,56.5132075 19.6775472,60.1924528 Z" id="Path" fill="#DD821F"></path>
                        </g>
                        <g transform="translate(10.688679, 10.301887)" fill="#DD821F" id="Path">
                            <path d="M39.4920755,5.00377358 L35.6607547,2.50188679 C35.5133962,2.35471698 35.5133962,2.20754717 35.5133962,2.06037736 L35.5133962,1.91320755 C35.6607547,1.76603774 35.8081132,1.76603774 35.9554717,1.76603774 L39.7867925,4.26792453 C39.9341509,4.41509434 39.9341509,4.56226415 39.9341509,4.70943396 L39.9341509,4.85660377 C39.7867925,5.00377358 39.639434,5.1509434 39.4920755,5.00377358 Z"></path>
                            <path d="M33.7450943,4.41509434 L29.0296226,1.3245283 C28.8822642,1.17735849 28.7349057,1.03018868 28.8822642,0.735849057 L29.0296226,0.588679245 C29.1769811,0.441509434 29.3243396,0.294339623 29.6190566,0.441509434 L34.3345283,3.53207547 C34.4818868,3.67924528 34.6292453,3.82641509 34.4818868,4.12075472 L34.3345283,4.26792453 C34.1871698,4.56226415 34.0398113,4.56226415 33.7450943,4.41509434 Z"></path>
                            <path d="M28.2928302,5.1509434 L23.5773585,2.20754717 C23.43,2.06037736 23.2826415,1.76603774 23.43,1.61886792 L23.724717,1.3245283 C23.8720755,1.17735849 24.1667925,1.03018868 24.3141509,1.17735849 L29.0296226,4.12075472 C29.1769811,4.26792453 29.3243396,4.56226415 29.1769811,4.70943396 L28.8822642,5.00377358 C28.7349057,5.1509434 28.4401887,5.29811321 28.2928302,5.1509434 Z"></path>
                            <path d="M22.5458491,7.65283019 L17.3883019,4.41509434 C17.2409434,4.26792453 17.0935849,3.97358491 17.2409434,3.82641509 L17.5356604,3.53207547 C17.6830189,3.38490566 17.9777358,3.23773585 18.1250943,3.38490566 L23.2826415,6.62264151 C23.43,6.76981132 23.5773585,7.06415094 23.43,7.21132075 L23.135283,7.50566038 C22.9879245,7.65283019 22.840566,7.8 22.5458491,7.65283019 Z"></path>
                            <path d="M17.9777358,10.7433962 L12.5254717,7.21132075 C12.3781132,7.06415094 12.2307547,6.76981132 12.3781132,6.62264151 L12.6728302,6.32830189 C12.8201887,6.18113208 13.1149057,6.03396226 13.2622642,6.18113208 L18.7145283,9.71320755 C18.8618868,9.86037736 19.0092453,10.154717 18.8618868,10.3018868 L18.5671698,10.5962264 C18.4198113,10.890566 18.1250943,10.890566 17.9777358,10.7433962 Z"></path>
                            <path d="M13.9990566,14.4226415 L8.69415094,11.0377358 C8.54679245,10.890566 8.39943396,10.5962264 8.54679245,10.4490566 L8.84150943,10.154717 C8.98886792,10.0075472 9.28358491,9.86037736 9.4309434,10.0075472 L14.7358491,13.3924528 C14.8832075,13.5396226 15.030566,13.8339623 14.8832075,13.9811321 L14.5884906,14.2754717 C14.4411321,14.5698113 14.1464151,14.5698113 13.9990566,14.4226415 Z"></path>
                            <path d="M10.9045283,18.690566 L5.45226415,15.3056604 C5.30490566,15.1584906 5.15754717,14.8641509 5.30490566,14.7169811 L5.59962264,14.4226415 C5.74698113,14.2754717 6.04169811,14.1283019 6.1890566,14.2754717 L11.6413208,17.6603774 C11.7886792,17.8075472 11.9360377,18.1018868 11.7886792,18.2490566 L11.4939623,18.5433962 C11.3466038,18.690566 11.0518868,18.8377358 10.9045283,18.690566 Z"></path>
                            <path d="M8.25207547,23.1056604 L2.94716981,19.7207547 C2.79981132,19.5735849 2.65245283,19.2792453 2.79981132,19.1320755 L3.0945283,18.8377358 C3.24188679,18.690566 3.53660377,18.5433962 3.68396226,18.690566 L8.98886792,22.0754717 C9.13622642,22.2226415 9.28358491,22.5169811 9.13622642,22.6641509 L8.84150943,22.9584906 C8.84150943,23.2528302 8.54679245,23.2528302 8.25207547,23.1056604 Z"></path>
                            <path d="M6.48377358,28.109434 L1.32622642,24.8716981 C1.17886792,24.7245283 1.03150943,24.4301887 1.17886792,24.2830189 L1.47358491,23.9886792 C1.6209434,23.8415094 1.91566038,23.6943396 2.06301887,23.8415094 L7.22056604,27.0792453 C7.36792453,27.2264151 7.51528302,27.5207547 7.36792453,27.6679245 L7.07320755,27.9622642 C6.92584906,28.2566038 6.77849057,28.2566038 6.48377358,28.109434 Z"></path>
                            <path d="M5.89433962,33.8490566 L0.589433962,30.4641509 C0.442075472,30.3169811 0.294716981,30.0226415 0.442075472,29.8754717 L0.736792453,29.5811321 C0.884150943,29.4339623 1.17886792,29.2867925 1.32622642,29.4339623 L6.63113208,32.8188679 C6.77849057,32.9660377 6.92584906,33.2603774 6.77849057,33.4075472 L6.48377358,33.7018868 C6.33641509,33.9962264 6.04169811,33.9962264 5.89433962,33.8490566 Z"></path>
                        </g>
                    </g>
                </g>
            </g>
        </g>
    </g>
</svg>