<?xml version="1.0" encoding="UTF-8"?>
<svg width="30px" height="30px" viewBox="0 0 30 30" version="1.1" xmlns="http://www.w3.org/2000/svg" xmlns:xlink="http://www.w3.org/1999/xlink">
    <!-- Generator: Sketch 55.2 (78181) - https://sketchapp.com -->
    <title>phone-call</title>
    <desc>Created with Sketch.</desc>
    <g id="Symbols" stroke="none" stroke-width="1" fill="none" fill-rule="evenodd">
        <g id="шапка" transform="translate(-981.000000, -15.000000)" fill="#2D2C28" fill-rule="nonzero">
            <g id="Group-21">
                <g id="Group" transform="translate(966.000000, 0.000000)">
                    <g id="phone-call" transform="translate(15.000000, 15.000000)">
                        <path d="M26.2006187,3.79920709 C23.7504748,1.34908717 20.4927071,0 17.0278599,0 C16.4600701,0 16,0.460202633 16,1.02784984 C16,1.59549704 16.4602071,2.05569967 17.0278599,2.05569967 C19.9436929,2.05556263 22.6850637,3.19099408 24.7469507,5.25286085 C26.8089747,7.31472762 27.9444173,10.0562087 27.9442802,12.9721502 C27.9442802,13.5397974 28.4043503,14 28.9721401,14 C29.5397929,14 30,13.5397974 30,12.9722872 C30,9.5070628 28.6508996,6.249327 26.2006187,3.79920709 Z" id="Path"></path>
                        <path d="M21.9514843,12.9758437 C21.9514843,13.5415265 22.4100787,14.0001365 22.9758787,14 C23.5415422,14 24,13.5413899 24,12.9757072 C23.9997269,9.1298291 20.8704143,6.00054629 17.0243944,6 C17.0242578,6 17.0243944,6 17.0242578,6 C16.4585944,6 16.0001366,6.45847346 16,7.02415623 C16,7.58983901 16.4584578,8.04844904 17.0241213,8.04858561 C19.7408628,8.04899533 21.9512112,10.2592826 21.9514843,12.9758437 Z" id="Path"></path>
                        <path d="M18.8797295,18.6150209 C17.2264824,18.5294076 16.3842403,19.7589419 15.9803285,20.349558 C15.6420723,20.8440038 15.7687557,21.5189317 16.2631969,21.857191 C16.7576382,22.1954504 17.4325598,22.0687658 17.770816,21.57432 C18.248048,20.8765427 18.4642485,20.7667783 18.7575292,20.7806615 C19.69623,20.8910044 23.3933314,23.6002606 23.7635477,24.4474274 C23.856391,24.6968919 23.8529203,24.9414394 23.75328,25.2389167 C23.3651314,26.3909363 22.7226036,27.2005027 21.8948231,27.5799779 C21.1084027,27.9405083 20.1442496,27.9078248 19.1072101,27.4858322 C15.2348344,25.9074814 11.8516937,23.7048188 9.051933,20.9388726 C9.05077607,20.9377157 9.04961914,20.9367034 9.04860683,20.9355464 C6.2884708,18.1385076 4.08987768,14.7596743 2.51414456,10.8931922 C2.09201122,9.85527546 2.05932806,8.89096881 2.4198551,8.10468578 C2.79932681,7.27689765 3.60888573,6.63436399 4.75988241,6.24664562 C5.0583693,6.1465706 5.30248067,6.14338903 5.54962897,6.23536549 C6.39982492,6.60688675 9.1089116,10.3038776 9.2182411,11.23203 C9.2338596,11.5363043 9.12322856,11.7523622 8.42603607,12.2287309 C7.93145023,12.5665564 7.804333,13.2414842 8.14229998,13.7360746 C8.48012236,14.230665 9.1548994,14.3576388 9.64962986,14.0198133 C10.2405298,13.6163317 11.4697636,12.7763957 11.3844403,11.1174933 C11.2904401,9.3846915 7.91973636,4.79584713 6.30915085,4.20364021 C5.59286908,3.9366771 4.83942107,3.93204935 4.0689084,4.19062468 C2.33525489,4.77444381 1.0831718,5.8153975 0.448019469,7.20082907 C-0.168043589,8.54490016 -0.148520464,10.1043061 0.505142687,11.711291 C2.19150685,15.8490747 4.55091266,19.4695631 7.5177046,22.4725367 C7.52493538,22.4799122 7.53231079,22.487143 7.53983081,22.4942292 C10.5406074,25.4555531 14.1568687,27.8106421 18.2891189,29.4949972 C19.1166101,29.8315211 19.9315198,30 20.7108541,30 C21.4446343,30 22.1471776,29.8507552 22.7988161,29.5519763 C24.1843795,28.9169627 25.225179,27.6650127 25.8094266,25.9301863 C26.0674211,25.1611127 26.0632273,24.407947 25.7982912,23.6949848 C25.2040651,22.0800459 20.6152631,18.7093112 18.8797295,18.6150209 Z" id="Path"></path>
                    </g>
                </g>
            </g>
        </g>
    </g>
</svg>