<?xml version="1.0" encoding="UTF-8"?>
<svg width="59px" height="62px" viewBox="0 0 59 62" version="1.1" xmlns="http://www.w3.org/2000/svg" xmlns:xlink="http://www.w3.org/1999/xlink">
    <!-- Generator: Sketch 55.2 (78181) - https://sketchapp.com -->
    <title>artificial-intelligence</title>
    <desc>Created with Sketch.</desc>
    <g id="Destop" stroke="none" stroke-width="1" fill="none" fill-rule="evenodd">
        <g id="Vault77-Ruby-New" transform="translate(-821.000000, -3085.000000)" fill-rule="nonzero">
            <g id="6" transform="translate(115.000000, 2938.000000)">
                <g id="3" transform="translate(600.000000, 147.000000)">
                    <g id="artificial-intelligence" transform="translate(106.000000, 0.000000)">
                        <polygon id="Path" fill="#FFDB60" points="39.4754098 57 39.4754098 61 19.4754098 61 19.4754098 57"></polygon>
                        <polygon id="Path" fill="#FFDB60" points="36.4754098 50 37.4754098 57 21.4754098 57 22.4754098 50"></polygon>
                        <path d="M57.4754098,43 L57.4754098,47 C57.4689447,49.206543 55.6487407,50.9936524 53.4013358,51 L6.54948391,51 C4.302079,50.9936524 2.48187501,49.206543 2.47540984,47 L2.47540984,43 L26.5836636,43 L26.9198543,45 L33.0309654,45 L33.3671561,43 L57.4754098,43 Z" id="Path" fill="#FFDB60"></path>
                        <path d="M27.4754098,16.1578947 L27.4754098,29.8421053 C27.4754098,31.5860403 26.1291978,33 24.4688207,33 C22.8084436,33 21.4622315,31.5860403 21.4622315,29.8421053 C21.4607634,29.7788857 21.4636996,29.7151521 21.4720186,29.6524466 C20.2657617,29.2171053 19.4558813,28.0241571 19.4578387,26.6842105 C17.9594376,26.6713611 16.6988625,25.501542 16.501653,23.9410979 C16.3049328,22.3806538 17.2322581,20.9065584 18.6763409,20.4840666 C18.5310028,20.1134868 18.4561317,19.7166941 18.4556424,19.3157895 C18.4556424,17.5718545 19.8018544,16.1578947 21.4622315,16.1578947 C21.4622315,14.4139597 22.8084436,13 24.4688207,13 C26.1291978,13 27.4754098,14.4139597 27.4754098,16.1578947 Z" id="Path" fill="#FFDB60"></path>
                        <path d="M41.2744788,20.4840666 C42.7185616,20.9065584 43.6458869,22.3806538 43.4491666,23.9410979 C43.2519572,25.501542 41.991382,26.6713611 40.4929809,26.6842105 C40.4949383,28.0241571 39.6850579,29.2171053 38.4788011,29.6524466 C38.4871201,29.7151521 38.4900562,29.7788857 38.4885882,29.8421053 C38.4885882,31.5860403 37.1423761,33 35.481999,33 C33.8216219,33 32.4754098,31.5860403 32.4754098,29.8421053 L32.4754098,16.1578947 C32.4754098,14.4139597 33.8216219,13 35.481999,13 C37.1423761,13 38.4885882,14.4139597 38.4885882,16.1578947 C40.1489652,16.1578947 41.4951773,17.5718545 41.4951773,19.3157895 C41.494688,19.7166941 41.4198169,20.1134868 41.2744788,20.4840666 Z" id="Path" fill="#FFDB60"></path>
                        <g id="Group" transform="translate(0.475410, 0.000000)" fill="#2D2C28">
                            <path d="M52.8214286,6.2 L48.6785714,6.2 L48.6785714,8.26666667 L52.8214286,8.26666667 C54.537336,8.26666667 55.9285714,9.65470381 55.9285714,11.3666667 L55.9285714,41.3333333 L45.5714286,41.3333333 L45.5714286,43.4 L55.9285714,43.4 L55.9285714,46.5 C55.9285714,48.2119629 54.537336,49.6 52.8214286,49.6 L5.17857143,49.6 C3.46266396,49.6 2.07142857,48.2119629 2.07142857,46.5 L2.07142857,43.4 L12.4285714,43.4 L12.4285714,41.3333333 L2.07142857,41.3333333 L2.07142857,11.3666667 C2.07142857,9.65470381 3.46266396,8.26666667 5.17857143,8.26666667 L9.32142857,8.26666667 L9.32142857,6.2 L5.17857143,6.2 C2.31973706,6.20353193 0.00354004554,8.51440433 0,11.3666667 L0,46.5 C0.00354004554,49.3522623 2.31973706,51.6631347 5.17857143,51.6666667 L20.5276751,51.6666667 L19.8368617,55.8 L18.6428571,55.8 C18.0708879,55.8 17.6071429,56.262679 17.6071429,56.8333333 L17.6071429,59.9333333 L13.4642857,59.9333333 L13.4642857,62 L44.5357143,62 L44.5357143,59.9333333 L40.3928571,59.9333333 L40.3928571,56.8333333 C40.3928571,56.262679 39.9291121,55.8 39.3571429,55.8 L38.1631383,55.8 L37.4723249,51.6666667 L52.8214286,51.6666667 C55.6802629,51.6631347 57.9964599,49.3522623 58,46.5 L58,11.3666667 C57.9964599,8.51440433 55.6802629,6.20353193 52.8214286,6.2 Z M38.3214286,59.9333333 L19.6785714,59.9333333 L19.6785714,57.8666667 L38.3214286,57.8666667 L38.3214286,59.9333333 Z M36.0633894,55.8 L21.9366106,55.8 L22.627424,51.6666667 L35.372576,51.6666667 L36.0633894,55.8 Z" id="Shape"></path>
                            <polygon id="Path" points="36.25 41.3333333 39.3571429 41.3333333 39.3571429 43.4 36.25 43.4"></polygon>
                            <polygon id="Path" points="18.6428571 41.3333333 21.75 41.3333333 21.75 43.4 18.6428571 43.4"></polygon>
                            <polygon id="Path" points="51.7857143 45.4666667 53.8571429 45.4666667 53.8571429 47.5333333 51.7857143 47.5333333"></polygon>
                            <path d="M14.5,23.7666667 C14.5035401,25.693571 15.8411691,27.362142 17.7239642,27.7895019 C17.9823871,28.9227377 18.7111294,29.8935059 19.7281319,30.4596191 C19.9870605,32.6277018 21.8946359,34.218571 24.0793458,34.0873861 C26.2635498,33.9567057 27.9673201,32.1498861 27.9642955,29.9666667 L27.9642955,16.5333333 C27.9688372,14.4303385 26.3869454,12.659847 24.2922538,12.4237142 C22.197562,12.1875814 20.2601493,13.5604818 19.7933699,15.6115071 C17.6688406,16.0201986 16.2614223,18.0490234 16.626552,20.1767415 C15.317749,20.9007813 14.5040458,22.2741861 14.5,23.7666667 L14.5,23.7666667 Z M17.4185094,22.1132325 C18.1952951,23.1511068 19.4161028,23.7636393 20.7142857,23.7666667 L20.7142857,21.7 C19.5703473,21.7 18.6428571,20.774642 18.6428571,19.6333333 C18.6428571,18.4920247 19.5703473,17.5666667 20.7142857,17.5666667 C21.8582241,17.5666667 22.7857143,18.4920247 22.7857143,19.6333333 L24.8571429,19.6333333 C24.849557,17.8260091 23.663644,16.2346354 21.9310478,15.7068684 C22.3295549,14.8203613 23.2924455,14.3299316 24.2457276,14.5292318 C25.1985038,14.7280274 25.8842599,15.5620606 25.8928571,16.5333333 L25.8928571,29.9666667 C25.8923515,30.9016113 25.2627301,31.7205078 24.3574916,31.9621908 C23.4522531,32.2043783 22.4964425,31.8098144 22.0276402,31 C21.558838,30.1901856 21.6933594,29.1669434 22.3558525,28.5054688 L20.8922991,27.0432618 C20.5807757,27.3616373 20.3228585,27.7284505 20.1291679,28.1295736 C19.5000523,27.3515462 19.5334298,26.2324382 20.2080602,25.4932618 L18.6726946,24.1067382 C18.2736817,24.553776 17.9778355,25.0830566 17.8058907,25.6567382 C17.1297433,25.3620768 16.6634697,24.7288575 16.5835658,23.9967448 C16.503662,23.2651368 16.8222656,22.5466472 17.4185094,22.1132325 Z" id="Shape"></path>
                            <path d="M34.1785714,34.1 C36.2692174,34.0934408 38.0260882,32.5308268 38.2718681,30.4596191 C39.2888706,29.8935059 40.0176129,28.9227377 40.2760358,27.7895019 C41.9474399,27.4171387 43.2142683,26.0528158 43.4580252,24.3610351 C43.7022879,22.6697591 42.8724017,21.0042155 41.373448,20.1767415 C41.7385777,18.0490234 40.3311594,16.0201986 38.2066301,15.6115071 C37.7398507,13.5604818 35.802438,12.1875814 33.7077462,12.4237142 C31.6130546,12.659847 30.0311628,14.4303385 30.0357045,16.5333333 L30.0357045,29.9666667 C30.0357045,32.2492839 31.8906948,34.1 34.1785714,34.1 Z M32.1071429,16.5333333 C32.1157401,15.5620606 32.8014962,14.7280274 33.7542724,14.5292318 C34.7075545,14.3299316 35.6704451,14.8203613 36.0689522,15.7068684 C34.336356,16.2346354 33.150443,17.8260091 33.1428571,19.6333333 L35.2142857,19.6333333 C35.2142857,18.4920247 36.1417759,17.5666667 37.2857143,17.5666667 C38.4296527,17.5666667 39.3571429,18.4920247 39.3571429,19.6333333 C39.3571429,20.774642 38.4296527,21.7 37.2857143,21.7 L37.2857143,23.7666667 C38.5838972,23.7636393 39.8047049,23.1511068 40.5814906,22.1132325 C41.1777344,22.5466472 41.496338,23.2651368 41.4164342,23.9967448 C41.3365303,24.7288575 40.8702567,25.3620768 40.1941093,25.6567382 C40.0221645,25.0830566 39.7268241,24.5542806 39.3283169,24.1067382 L37.7919398,25.4932618 C38.4670759,26.2319337 38.5004533,27.3510417 37.8708321,28.1285644 C37.6766357,27.727946 37.4192243,27.3616373 37.1077009,27.0432618 L35.6431362,28.5054688 C36.3061349,29.1669434 36.441162,30.1901856 35.9723598,31.0005045 C35.5035575,31.8103191 34.5477469,32.2053873 33.6425084,31.9631998 C32.7367641,31.7210123 32.1071429,30.902116 32.1071429,29.9666667 L32.1071429,16.5333333 Z" id="Shape"></path>
                            <path d="M13.5532924,14.3344726 C12.9555315,15.4273438 12.4766148,16.5807618 12.1251395,17.7755535 L7.07906675,18.6146321 C6.57992121,18.6978841 6.21428571,19.128776 6.21428571,19.6333333 L6.21428571,25.8333333 C6.21428571,26.3378906 6.57992121,26.7687826 7.07906675,26.8520345 L12.1251395,27.6911132 C12.4766148,28.8859049 12.9555315,30.0393229 13.5532924,31.1321941 L10.580671,35.285205 C10.2868478,35.6959147 10.3328683,36.2590007 10.6904123,36.6162272 L15.0851179,41.00083 C15.4431675,41.3575521 16.0075509,41.4034668 16.4192069,41.1103191 L20.581787,38.1445313 C21.6771763,38.740918 22.833252,39.2187337 24.0307967,39.569401 L24.8718087,44.6038736 C24.9552524,45.1018717 25.3871373,45.4666667 25.8928571,45.4666667 L32.1071429,45.4666667 C32.6128627,45.4666667 33.0447476,45.1018717 33.1281913,44.6038736 L33.9692033,39.569401 C35.166748,39.2187337 36.3228237,38.740918 37.418213,38.1445313 L41.5797817,41.1103191 C41.9919433,41.4044759 42.5563268,41.3580566 42.9148821,41.00083 L47.3095877,36.6162272 C47.6671317,36.2590007 47.7131522,35.6959147 47.419329,35.285205 L44.4467076,31.1321941 C45.0444685,30.0393229 45.5228795,28.8859049 45.8748605,27.6911132 L50.9199219,26.8520345 C51.4190674,26.7692871 51.7857143,26.3383952 51.7857143,25.8333333 L51.7857143,19.6333333 C51.7857143,19.1282715 51.4190674,18.6973795 50.9199219,18.6146321 L45.8748605,17.7735351 C45.5228795,16.5787434 45.0444685,15.4253255 44.4467076,14.3324545 L47.419329,10.1794434 C47.7131522,9.76873369 47.6671317,9.20564775 47.3095877,8.84842119 L42.9148821,4.46583662 C42.5563268,4.10861006 41.9919433,4.06219079 41.5797817,4.35634759 L37.418213,7.32213542 C36.323835,6.72574863 35.1682652,6.24793298 33.9712263,5.89726563 L33.1302142,0.862793033 C33.0467703,0.3642903 32.6138741,-0.00100911458 32.1071429,-2.08555743e-06 L25.8928571,-2.08555743e-06 C25.3871373,-2.08555743e-06 24.9552524,0.364794954 24.8718087,0.862793033 L24.0287737,5.89726563 C22.831229,6.24793298 21.6751535,6.72574863 20.5797643,7.32213542 L16.417184,4.35634759 C16.005528,4.06319984 15.4411446,4.10911458 15.083095,4.46583662 L10.6883894,8.85043942 C10.3308454,9.20766598 10.2843192,9.77075192 10.5786482,10.1814616 L13.5532924,14.3344726 Z M15.9291643,6.54612637 L19.9177769,9.38880208 C20.2530692,9.62745765 20.697597,9.64511719 21.0510951,9.43421218 C22.3411865,8.66577152 23.7364676,8.08855798 25.1939522,7.72224932 C25.5924596,7.62133786 25.8938685,7.29438473 25.9611294,6.88922533 L26.7702811,2.06666667 L31.2297189,2.06666667 L32.0358364,6.88922533 C32.1030971,7.29438473 32.4050118,7.62184238 32.8040248,7.72224932 C34.2615095,8.08855798 35.6572963,8.66526699 36.9468819,9.43421218 C37.3003801,9.64562171 37.7459194,9.62796218 38.0812116,9.38880208 L42.0688127,6.54612637 L45.2224819,9.69254551 L42.3742676,13.6719889 C42.135062,14.0060059 42.1163504,14.4500163 42.3277413,14.8027018 C43.0989642,16.0893229 43.6775077,17.481901 44.0446603,18.9360351 C44.1458042,19.3336264 44.4735107,19.6343424 44.8796038,19.7014486 L49.7142857,20.5087403 L49.7142857,24.9579264 L44.8806152,25.7621908 C44.4745222,25.8292969 44.1468157,26.1295085 44.0456718,26.5276042 C43.6785191,27.9817382 43.0999756,29.3743163 42.3287528,30.6609375 C42.1178676,31.0136231 42.1360736,31.4576335 42.375279,31.7916504 L45.2234933,35.7710938 L42.0698242,38.917513 L38.0832345,36.0778646 C37.7469308,35.8361816 37.2988629,35.8180175 36.9438477,36.0314453 C35.6542621,36.8008952 34.2584752,37.3781087 32.8009905,37.7444174 C32.4014719,37.8448243 32.1000627,38.1722819 32.032802,38.5774413 L31.2297189,43.4 L26.7702811,43.4 L25.9641636,38.5774413 C25.8969029,38.1722819 25.5959995,37.8453288 25.1969866,37.7444174 C23.7400077,37.3781087 22.3442209,36.8008952 21.0541295,36.0324545 C20.7006312,35.8215495 20.2561036,35.839209 19.9208113,36.0778646 L15.9291643,38.9205403 L12.7754953,35.7741212 L15.624721,31.7946778 C15.8639264,31.4601563 15.8816267,31.0166504 15.6702357,30.6639649 C14.9000244,29.3768392 14.3214809,27.9847656 13.9543282,26.5306316 C13.8531843,26.1330403 13.5254778,25.8323243 13.1193848,25.7652181 L8.28571429,24.9579264 L8.28571429,20.5087403 L13.1193848,19.7044759 C13.5254778,19.6373698 13.8531843,19.3371582 13.9543282,18.9390625 C14.3214809,17.485433 14.9000244,16.0928548 15.6702357,14.8057292 C15.8816267,14.4530436 15.8639264,14.0095378 15.624721,13.6750163 L12.7754953,9.69254551 L15.9291643,6.54612637 Z" id="Shape"></path>
                        </g>
                    </g>
                </g>
            </g>
        </g>
    </g>
</svg>