<?xml version="1.0" encoding="UTF-8"?>
<svg width="1271px" height="220px" viewBox="0 0 1271 220" version="1.1" xmlns="http://www.w3.org/2000/svg" xmlns:xlink="http://www.w3.org/1999/xlink">
    <!-- Generator: Sketch 55.2 (78181) - https://sketchapp.com -->
    <title>PYTHON</title>
    <desc>Created with Sketch.</desc>
    <defs>
        <linearGradient x1="50%" y1="0%" x2="50%" y2="143.624222%" id="linearGradient-1">
            <stop stop-color="#000000" stop-opacity="0.661986451" offset="0%"></stop>
            <stop stop-color="#2D2C28" stop-opacity="0" offset="100%"></stop>
        </linearGradient>
    </defs>
    <g id="Destop" stroke="none" stroke-width="1" fill="none" fill-rule="evenodd" opacity="0.0669643571">
        <g id="Vault77-Python-New" transform="translate(-78.000000, -1825.000000)" fill="url(#linearGradient-1)" fill-rule="nonzero">
            <g id="4" transform="translate(78.000000, 1825.000000)">
                <path d="M69.8232323,214 L69.8232323,147.016949 L89.5622896,147.016949 C100.364759,147.016949 110.921717,145.743879 121.233165,143.19774 C131.544613,140.651601 140.677609,136.538606 148.632155,130.858757 C156.5867,125.178908 162.969978,117.834275 167.781987,108.824859 C172.593996,99.8154426 175,88.8474576 175,75.920904 C175,62.4067797 172.544893,51.1939736 167.63468,42.2824859 C162.724467,33.3709981 156.242985,26.2222222 148.190236,20.8361582 C140.137486,15.4500942 131.004489,11.6308851 120.791246,9.37853107 C110.578002,7.12617702 100.16835,6 89.5622896,6 L89.5622896,6 L0,6 L0,214 L69.8232323,214 Z M84.7540984,94 L70,94 L70,60 L84.7540984,60 C87.3114754,60 89.8688525,60.248538 92.4262295,60.745614 C94.9836066,61.2426901 97.295082,62.0877193 99.3606557,63.2807018 C101.42623,64.4736842 103.04918,66.1140351 104.229508,68.2017544 C105.409836,70.2894737 106,73.0233918 106,76.4035088 C106,82.7660819 103.786885,87.2894737 99.3606557,89.9736842 C94.9344262,92.6578947 90.0655738,94 84.7540984,94 L84.7540984,94 Z M318.416031,214 L318.416031,128.80226 L401,6 L318.709924,6 L287.263359,67.1073446 L254.347328,6 L170,6 L248.469466,128.80226 L248.469466,214 L318.416031,214 Z M516.928328,214 L516.928328,65.0508475 L568,65.0508475 L568,6 L396,6 L396,65.0508475 L447.071672,65.0508475 L447.071672,214 L516.928328,214 Z M659.979104,214 L659.979104,134.971751 L717.020896,134.971751 L717.020896,214 L787,214 L787,6 L716.726866,6 L716.726866,76.5084746 L659.685075,76.5084746 L659.685075,6 L590,6 L590,214 L659.979104,214 Z M931.852605,220 C948.360864,220 963.689962,217.352941 977.839898,212.058824 C991.989835,206.764706 1004.27277,199.264706 1014.68869,189.558824 C1025.10462,179.852941 1033.26048,168.137255 1039.15629,154.411765 C1045.0521,140.686275 1048,125.490196 1048,108.823529 C1048,92.1568627 1045.0521,77.1078431 1039.15629,63.6764706 C1033.26048,50.245098 1025.10462,38.8235294 1014.68869,29.4117647 C1004.27277,20 991.989835,12.745098 977.839898,7.64705882 C963.689962,2.54901961 948.360864,0 931.852605,0 C915.344346,0 900.015248,2.54901961 885.865311,7.64705882 C871.715375,12.745098 859.481576,20 849.163914,29.4117647 C838.846252,38.8235294 830.739517,50.245098 824.84371,63.6764706 C818.947903,77.1078431 816,92.1568627 816,108.823529 C816,125.490196 818.947903,140.686275 824.84371,154.411765 C830.739517,168.137255 838.846252,179.852941 849.163914,189.558824 C859.481576,199.264706 871.715375,206.764706 885.865311,212.058824 C900.015248,217.352941 915.344346,220 931.852605,220 Z M932,156 C926.142857,156 920.67619,154.874731 915.6,152.624194 C910.52381,150.373656 906.179762,147.193548 902.567857,143.083871 C898.955952,138.974194 896.125,134.08172 894.075,128.406452 C892.025,122.731183 891,116.468817 891,109.619355 C891,102.965591 892.025,96.85 894.075,91.2725806 C896.125,85.6951613 898.955952,80.9983871 902.567857,77.1822581 C906.179762,73.366129 910.52381,70.3817204 915.6,68.2290323 C920.67619,66.0763441 926.142857,65 932,65 C937.857143,65 943.275,66.0763441 948.253571,68.2290323 C953.232143,70.3817204 957.57619,73.366129 961.285714,77.1822581 C964.995238,80.9983871 967.875,85.6951613 969.925,91.2725806 C971.975,96.85 973,102.965591 973,109.619355 C973,116.468817 971.975,122.731183 969.925,128.406452 C967.875,134.08172 964.995238,138.974194 961.285714,143.083871 C957.57619,147.193548 953.232143,150.373656 948.253571,152.624194 C943.275,154.874731 937.857143,156 932,156 Z M1143.53111,214 L1140.58725,114.700565 L1141.7648,114.700565 L1199.46434,214 L1271,214 L1271,6 L1204.46889,6 L1207.41275,111.468927 L1206.2352,111.468927 L1146.76935,6 L1077,6 L1077,214 L1143.53111,214 Z" id="PYTHON"></path>
            </g>
        </g>
    </g>
</svg>