<?xml version="1.0" encoding="UTF-8"?>
<svg width="22px" height="22px" viewBox="0 0 22 22" version="1.1" xmlns="http://www.w3.org/2000/svg" xmlns:xlink="http://www.w3.org/1999/xlink">
    <!-- Generator: Sketch 55.2 (78181) - https://sketchapp.com -->
    <title>rocket 2</title>
    <desc>Created with Sketch.</desc>
    <g id="Symbols" stroke="none" stroke-width="1" fill="none" fill-rule="evenodd">
        <g id="записаться" transform="translate(-229.000000, -39.000000)" fill="#83878F" fill-rule="nonzero">
            <g id="consultation">
                <g id="icons" transform="translate(229.000000, 34.000000)">
                    <g id="rocket-2">
                        <path d="M13.1590735,9.19667364 C14.4884179,9.19667364 15.5697878,10.2794988 15.5697878,11.6104667 C15.5697878,12.9414347 14.4883438,14.0242598 13.1590735,14.0242598 C11.8298032,14.0242598 10.7483592,12.9414347 10.7483592,11.6104667 C10.7483592,10.2794988 11.8298032,9.19667364 13.1590735,9.19667364 Z M13.1590735,12.8883354 C13.8627787,12.8883354 14.4353122,12.3150707 14.4353122,11.6104667 C14.4353122,10.9058628 13.8627787,10.3325981 13.1590735,10.3325981 C12.4553683,10.3325981 11.8828348,10.9058628 11.8828348,11.6104667 C11.8828348,12.3150707 12.4553683,12.8883354 13.1590735,12.8883354 Z M20.2162362,16.6020878 C21.3247865,18.4380838 21.5108844,21.0478823 20.7694721,24.3588811 C20.7181324,24.5881282 20.5655681,24.7752794 20.3615256,24.8594713 C20.2848971,24.8910246 20.2046657,24.9065769 20.1248501,24.9065769 C19.9921705,24.9065769 19.8605302,24.8635837 19.7482201,24.7800647 L16.4233314,22.3054517 C16.3232847,22.5773182 16.2570488,22.7470478 16.2406284,22.7887699 C16.1365633,23.0530098 15.8962157,23.2245339 15.6302329,23.2245339 L14.1047292,23.2245339 L14.1047292,24.3876678 C14.1047292,24.7829808 13.8077762,25.1034483 13.4414697,25.1034483 C13.0751631,25.1034483 12.7782102,24.7829808 12.7782102,24.3876678 L12.7782102,23.2245339 L11.2527064,23.2245339 C10.9867236,23.2245339 10.746376,23.0530098 10.6423109,22.7887699 C10.6272762,22.7506368 10.5707401,22.6059554 10.4848274,22.373867 L7.25180978,24.7800647 C7.13949978,24.8635837 7.00792871,24.9065769 6.87517982,24.9065769 C6.79536419,24.9065769 6.71520215,24.8910993 6.63850433,24.8594713 C6.43446179,24.7752794 6.28182827,24.5880534 6.23055782,24.3588811 C5.48907624,21.0478076 5.6752434,18.438009 6.7837937,16.602013 C7.37361174,15.6252826 8.07331483,15.1322442 8.49747389,14.9047168 C8.27403172,13.3858236 8.19664106,11.8668557 8.41114554,10.5724243 C9.18089515,5.92788912 12.9095041,3.13736964 13.0678189,3.0208768 C13.293201,2.85511003 13.5897383,2.85511003 13.8151204,3.0208768 C13.9734352,3.13744441 17.7020442,5.92788912 18.471863,10.5724991 C18.683804,11.8510791 18.6109168,13.3487373 18.3937795,14.8490126 C18.7981925,15.0463326 19.5727228,15.5362307 20.2162362,16.6020878 Z M13.4414697,4.51285252 C13.01253,4.88894943 12.2761062,5.59800053 11.562269,6.58280619 L15.3206703,6.58280619 C14.6069717,5.59822484 13.8706172,4.88909897 13.4414697,4.51285252 Z M7.3174221,22.9922959 L10.0028852,20.9935988 C9.61038911,19.8064634 9.11743065,18.15231 8.76013103,16.3951224 C7.96640902,16.9905219 6.59353876,18.6761539 7.3174221,22.9922959 Z M15.1830022,21.7929729 C15.7769773,20.1669333 17.754146,14.3734706 17.1659908,10.8244765 C16.973103,9.66037061 16.553586,8.6204589 16.053907,7.72799513 L10.828963,7.72799513 C10.329284,8.6204589 9.90983626,9.66037061 9.71687922,10.8244765 C9.12796187,14.377583 11.1056156,20.1679053 11.69966,21.7929729 L12.7782102,21.7929729 L12.7782102,19.8216419 C12.7782102,19.4263289 13.0751631,19.1058614 13.4414697,19.1058614 C13.8077762,19.1058614 14.1047292,19.4263289 14.1047292,19.8216419 L14.1047292,21.7929729 L15.1830022,21.7929729 Z M19.6826771,22.9922959 C20.4387084,18.4840678 18.9073847,16.8456162 18.1376351,16.321847 C17.7862247,18.0717071 17.297354,19.7252624 16.9032644,20.9236881 L19.6826771,22.9922959 Z" id="rocket" transform="translate(13.500000, 14.000000) rotate(-315.000000) translate(-13.500000, -14.000000) "></path>
                    </g>
                </g>
            </g>
        </g>
    </g>
</svg>