<?xml version="1.0" encoding="UTF-8"?>
<svg width="1152px" height="292px" viewBox="0 0 1152 292" version="1.1" xmlns="http://www.w3.org/2000/svg" xmlns:xlink="http://www.w3.org/1999/xlink">
    <!-- Generator: Sketch 55.2 (78181) - https://sketchapp.com -->
    <title>RUBY</title>
    <desc>Created with Sketch.</desc>
    <defs>
        <linearGradient x1="50%" y1="0%" x2="50%" y2="108.714502%" id="linearGradient-1">
            <stop stop-color="#000000" stop-opacity="0.661986451" offset="0%"></stop>
            <stop stop-color="#2D2C28" stop-opacity="0" offset="100%"></stop>
        </linearGradient>
    </defs>
    <g id="Destop" stroke="none" stroke-width="1" fill="none" fill-rule="evenodd" opacity="0.0669643571">
        <g id="Vault77-Ruby-New" transform="translate(-143.000000, -1825.000000)" fill="url(#linearGradient-1)" fill-rule="nonzero">
            <g id="4" transform="translate(126.000000, 1825.000000)">
                <path d="M109,283.2 L109,182 L111.8,182 L166.2,283.2 L275.8,283.2 L203.8,168.4 C219.8,161.2 232.066667,151 240.6,137.8 C249.133333,124.6 253.4,109.333333 253.4,92 C253.4,74.1333333 250.066667,59.2666667 243.4,47.4 C236.733333,35.5333333 228,26.0666667 217.2,19 C206.4,11.9333333 194.133333,7 180.4,4.2 C166.666667,1.4 152.866667,0 139,0 L139,0 L17,0 L17,283.2 L109,283.2 Z M127,119.6 L108.2,119.6 L108.2,74 L131,74 C133.933333,74 137.133333,74.2 140.6,74.6 C144.066667,75 147.266667,75.9333333 150.2,77.4 C153.133333,78.8666667 155.533333,81.0666667 157.4,84 C159.266667,86.9333333 160.2,90.9333333 160.2,96 C160.2,101.066667 159.066667,105.133333 156.8,108.2 C154.533333,111.266667 151.733333,113.666667 148.4,115.4 C145.066667,117.133333 141.466667,118.266667 137.6,118.8 C133.733333,119.333333 130.2,119.6 127,119.6 L127,119.6 Z M429.8,291.2 C451.933333,291.2 471.333333,288.133333 488,282 C504.666667,275.866667 518.6,267.466667 529.8,256.8 C541,246.133333 549.466667,233.533333 555.2,219 C560.933333,204.466667 563.8,188.8 563.8,172 L563.8,172 L563.8,0 L469,0 L469,161.6 C469,175.2 465.733333,185.8 459.2,193.4 C452.666667,201 443.4,204.8 431.4,204.8 C419.4,204.8 410.133333,201 403.6,193.4 C397.066667,185.8 393.8,175.2 393.8,161.6 L393.8,161.6 L393.8,0 L298.6,0 L298.6,172 C298.6,188.8 301.266667,204.466667 306.6,219 C311.933333,233.533333 320.066667,246.133333 331,256.8 C341.933333,267.466667 355.6,275.866667 372,282 C388.4,288.133333 407.666667,291.2 429.8,291.2 Z M741,283.2 C754.866667,283.2 768.4,281.8 781.6,279 C794.8,276.2 806.533333,271.533333 816.8,265 C827.066667,258.466667 835.333333,249.933333 841.6,239.4 C847.866667,228.866667 851,215.866667 851,200.4 C851,191.6 849.533333,183.6 846.6,176.4 C843.666667,169.2 839.666667,162.866667 834.6,157.4 C829.533333,151.933333 823.8,147.4 817.4,143.8 C811,140.2 804.466667,137.6 797.8,136 L797.8,136 L797.8,134.8 C810.333333,130 820.4,122.666667 828,112.8 C835.6,102.933333 839.4,90.4 839.4,75.2 C839.4,58.9333333 835.8,45.8 828.6,35.8 C821.4,25.8 812.333333,18.2 801.4,13 C790.466667,7.8 778.533333,4.33333333 765.6,2.6 C752.666667,0.866666667 740.466667,0 729,0 L729,0 L612.6,0 L612.6,283.2 L741,283.2 Z M727,108.8 L701.4,108.8 L701.4,74 L725,74 C732.466667,74 738.466667,75.3333333 743,78 C747.533333,80.6666667 749.8,84.6666667 749.8,90 C749.8,96.4 747.666667,101.133333 743.4,104.2 C739.133333,107.266667 733.666667,108.8 727,108.8 L727,108.8 Z M729.8,208.4 L701.4,208.4 L701.4,170 L725.8,170 C728.733333,170 731.866667,170.266667 735.2,170.8 C738.533333,171.333333 741.666667,172.333333 744.6,173.8 C747.533333,175.266667 750,177.2 752,179.6 C754,182 755,185.066667 755,188.8 C755,195.2 752.666667,200.066667 748,203.4 C743.333333,206.733333 737.266667,208.4 729.8,208.4 L729.8,208.4 Z M1055.8,283.2 L1055.8,167.2 L1168.2,0 L1056.2,0 L1013.4,83.2 L968.6,0 L853.8,0 L960.6,167.2 L960.6,283.2 L1055.8,283.2 Z" id="RUBY"></path>
            </g>
        </g>
    </g>
</svg>