<?xml version="1.0" encoding="UTF-8"?>
<svg width="1088px" height="308px" viewBox="0 0 1088 308" version="1.1" xmlns="http://www.w3.org/2000/svg" xmlns:xlink="http://www.w3.org/1999/xlink">
    <!-- Generator: Sketch 55.2 (78181) - https://sketchapp.com -->
    <title>Vault</title>
    <desc>Created with Sketch.</desc>
    <defs>
        <linearGradient x1="50%" y1="0%" x2="50%" y2="145.34687%" id="linearGradient-1">
            <stop stop-color="#2D2C28" offset="0%"></stop>
            <stop stop-color="#2D2C28" stop-opacity="0" offset="100%"></stop>
        </linearGradient>
    </defs>
    <g id="Destop" stroke="none" stroke-width="1" fill="none" fill-rule="evenodd" opacity="0.0489677054">
        <g id="Vault77-Ruby-New" transform="translate(-154.000000, -3372.000000)" fill="url(#linearGradient-1)" fill-rule="nonzero">
            <g id="7" transform="translate(115.000000, 3372.000000)">
                <path d="M245,302.4 L347.4,19.2 L239.8,19.2 L195,194.4 L193.4,194.4 L146.6,19.2 L39,19.2 L139.4,302.4 L245,302.4 Z M407.8,308 C417.133333,308 426.733333,306.266667 436.6,302.8 C446.466667,299.333333 454.066667,293.6 459.4,285.6 L459.4,285.6 L460.2,285.6 L460.2,302.4 L543.8,302.4 L543.8,191.6 C543.8,176.933333 542.266667,163.066667 539.2,150 C536.133333,136.933333 530.8,125.466667 523.2,115.6 C515.6,105.733333 505.266667,98 492.2,92.4 C479.133333,86.8 462.6,84 442.6,84 C423.933333,84 405.8,87.3333333 388.2,94 C370.6,100.666667 355.4,110.133333 342.6,122.4 L342.6,122.4 L388.6,168 C394.466667,163.2 401.2,159 408.8,155.4 C416.4,151.8 424.466667,150 433,150 C440.2,150 446,151.533333 450.4,154.6 C454.8,157.666667 457,162.4 457,168.8 L457,168.8 L457,169.6 C443.133333,169.6 428.933333,170.533333 414.4,172.4 C399.866667,174.266667 386.733333,177.8 375,183 C363.266667,188.2 353.6,195.4 346,204.6 C338.4,213.8 334.6,225.733333 334.6,240.4 C334.6,252.933333 336.866667,263.466667 341.4,272 C345.933333,280.533333 351.733333,287.466667 358.8,292.8 C365.866667,298.133333 373.733333,302 382.4,304.4 C391.066667,306.8 399.533333,308 407.8,308 Z M433.8,252.4 C431.666667,252.4 429.333333,252.066667 426.8,251.4 C424.266667,250.733333 421.933333,249.733333 419.8,248.4 C417.666667,247.066667 415.933333,245.4 414.6,243.4 C413.266667,241.4 412.6,238.933333 412.6,236 C412.6,228 416.733333,222.533333 425,219.6 C433.266667,216.666667 444.2,215.2 457.8,215.2 L457.8,215.2 L463,215.2 L463,222.4 C463,231.2 460.333333,238.4 455,244 C449.666667,249.6 442.6,252.4 433.8,252.4 Z M653.8,308 C667.4,308 679.466667,305.133333 690,299.4 C700.533333,293.666667 708.466667,286.933333 713.8,279.2 L713.8,279.2 L714.6,279.2 L714.6,302.4 L804.6,302.4 L804.6,92 L712.2,92 L712.2,203.2 C712.2,212.533333 710.266667,219.666667 706.4,224.6 C702.533333,229.533333 697.533333,232 691.4,232 C684.733333,232 679.733333,229.866667 676.4,225.6 C673.066667,221.333333 671.4,213.866667 671.4,203.2 L671.4,203.2 L671.4,92 L578.6,92 L578.6,220 C578.6,230.4 579.733333,240.866667 582,251.4 C584.266667,261.933333 588.266667,271.4 594,279.8 C599.733333,288.2 607.4,295 617,300.2 C626.6,305.4 638.866667,308 653.8,308 Z M941.4,302.4 L941.4,0 L847,0 L847,302.4 L941.4,302.4 Z M1075.4,308 C1085,308 1094.13333,307.333333 1102.8,306 C1111.46667,304.666667 1118.2,302.933333 1123,300.8 L1123,300.8 L1123,237.6 C1121.13333,238.133333 1118.6,238.666667 1115.4,239.2 C1112.2,239.733333 1109.13333,240 1106.2,240 C1098.46667,240 1092.4,238.2 1088,234.6 C1083.6,231 1081.4,224.133333 1081.4,214 L1081.4,214 L1081.4,158 L1127,158 L1127,92 L1081.4,92 L1081.4,44.8 L991.8,44.8 L991.8,92 L962.6,92 L962.6,158 L992.2,158 L992.2,233.2 C992.2,258.8 999,277.666667 1012.6,289.8 C1026.2,301.933333 1047.13333,308 1075.4,308 Z" id="Vault"></path>
            </g>
        </g>
    </g>
</svg>