<?xml version="1.0" encoding="UTF-8"?>
<svg width="16px" height="10px" viewBox="0 0 16 10" version="1.1" xmlns="http://www.w3.org/2000/svg" xmlns:xlink="http://www.w3.org/1999/xlink">
    <!-- Generator: Sketch 55.2 (78181) - https://sketchapp.com -->
    <title>vk (1)</title>
    <desc>Created with Sketch.</desc>
    <g id="Destop" stroke="none" stroke-width="1" fill="none" fill-rule="evenodd">
        <g id="Vault77-Python-New-320" transform="translate(-237.000000, -6489.000000)" fill="#2D2C28" fill-rule="nonzero">
            <g id="10" transform="translate(30.000000, 6328.000000)">
                <g id="1" transform="translate(0.000000, 140.000000)">
                    <g id="socials" transform="translate(105.000000, 5.000000)">
                        <g id="vk" transform="translate(90.000000, 0.000000)">
                            <g id="vk-(1)" transform="translate(12.000000, 16.000000)">
                                <path d="M13.7702799,6.10411738 C14.3010198,6.65350912 14.8611986,7.17040666 15.3372139,7.77520019 C15.5474913,8.04396016 15.7465713,8.3213035 15.8988647,8.63320329 C16.1146618,9.07658477 15.919209,9.56449949 15.544232,9.59097418 L13.2133078,9.58985946 C12.6121249,9.64275311 12.1325349,9.38614364 11.7292756,8.95034228 C11.4065525,8.6018238 11.1076958,8.23089938 10.797379,7.87062057 C10.6701613,7.72336552 10.5370031,7.58480533 10.3779283,7.47528369 C10.0597262,7.25629615 9.78352692,7.3233468 9.6016896,7.67520944 C9.41648785,8.0330916 9.37448495,8.429376 9.35629596,8.82822426 C9.33132553,9.41016594 9.16541672,9.56316182 8.61406957,9.58980372 C7.43578058,9.64871689 6.31752576,9.45971543 5.2787032,8.82950619 C4.36284031,8.27392773 3.65262864,7.48960789 3.03446587,6.60167446 C1.83089103,4.87268173 0.909192945,2.97280181 0.0808054205,1.01969382 C-0.105657998,0.579656502 0.0307068477,0.343446477 0.488638294,0.335086047 C1.24905367,0.319424174 2.00936391,0.320538898 2.77067297,0.333971323 C3.07972807,0.338764636 3.28432791,0.52670711 3.40366029,0.836265976 C3.81506788,1.90879771 4.31847179,2.9292161 4.95035516,3.87505945 C5.11862959,4.12687561 5.29021589,4.37869177 5.53455814,4.55593289 C5.80486964,4.75218006 6.01067857,4.68713591 6.13784378,4.36787895 C6.21853771,4.16544506 6.2538643,3.94740504 6.27205329,3.73059121 C6.33229774,2.98467362 6.34023571,2.24003796 6.23457135,1.49673997 C6.1697008,1.03284756 5.92325577,0.732540904 5.48666748,0.644756386 C5.26387865,0.600000215 5.2970499,0.512104225 5.40492217,0.377278352 C5.59227926,0.144746917 5.76849166,1.82076576e-13 6.11975993,1.82076576e-13 L8.7540617,1.82076576e-13 C9.16878116,0.0867812667 9.26088262,0.284310367 9.3176575,0.726744339 L9.31991798,3.82918856 C9.31539702,4.0004659 9.40061191,4.50872433 9.69158316,4.62209177 C9.92446529,4.70279779 10.0779677,4.50526869 10.217697,4.3487057 C10.8484239,3.6389609 11.298575,2.80018679 11.7007304,1.93164956 C11.8792033,1.5497451 12.0326532,1.15312629 12.1813718,0.756841888 C12.2915571,0.462777686 12.4644577,0.318086505 12.7768772,0.324496169 L15.3122435,0.326892825 C15.3874176,0.326892825 15.4634855,0.328063285 15.536294,0.341272765 C15.9635249,0.418467405 16.0805968,0.613321168 15.9486478,1.05564367 C15.7407361,1.74961512 15.3362151,2.32793395 14.9406835,2.90892812 C14.5178683,3.52921632 14.0656669,4.12826902 13.646374,4.7522358 C13.2611459,5.32202699 13.2917412,5.60923564 13.7702799,6.10411738 L13.7702799,6.10411738 Z" id="XMLID_807_"></path>
                            </g>
                        </g>
                    </g>
                </g>
            </g>
        </g>
    </g>
</svg>