<?xml version="1.0" encoding="UTF-8"?>
<svg width="17px" height="15px" viewBox="0 0 17 15" version="1.1" xmlns="http://www.w3.org/2000/svg" xmlns:xlink="http://www.w3.org/1999/xlink">
    <!-- Generator: Sketch 55.2 (78181) - https://sketchapp.com -->
    <title>wallet (3)</title>
    <desc>Created with Sketch.</desc>
    <g id="Symbols" stroke="none" stroke-width="1" fill="none" fill-rule="evenodd">
        <g id="записаться" transform="translate(-233.000000, -116.000000)" fill="#83878F" fill-rule="nonzero">
            <g id="consultation">
                <g id="icons" transform="translate(229.000000, 34.000000)">
                    <g id="wallet-(3)-2" transform="translate(4.000000, 82.000000)">
                        <g id="wallet-(3)">
                            <path d="M14.875,2.72727273 L14.875,2.04545455 C14.875,0.917358409 13.9219665,0 12.75,0 L2.125,0 C0.953033458,0 0,0.917358409 0,2.04545455 L0,12.9545455 C0,14.0826416 0.953033458,15 2.125,15 L14.875,15 C16.0469665,15 17,14.0826416 17,12.9545455 L17,4.77272727 C17,3.64463114 16.0469665,2.72727273 14.875,2.72727273 Z M2.125,1.36363636 L12.75,1.36363636 C13.1406555,1.36363636 13.4583333,1.66942249 13.4583333,2.04545455 L13.4583333,2.72727273 L2.125,2.72727273 C1.73434447,2.72727273 1.41666667,2.42148661 1.41666667,2.04545455 C1.41666667,1.66942249 1.73434447,1.36363636 2.125,1.36363636 Z M14.875,13.6363636 L2.125,13.6363636 C1.73434447,13.6363636 1.41666667,13.3305775 1.41666667,12.9545455 L1.41666667,3.97405449 C1.63836668,4.04962713 1.87666829,4.09090909 2.125,4.09090909 L14.875,4.09090909 C15.2656555,4.09090909 15.5833333,4.39669521 15.5833333,4.77272727 L15.5833333,6.47727273 L11.6875,6.47727273 C10.3204651,6.47727273 9.20833333,7.54810679 9.20833333,8.86363636 C9.20833333,10.1791659 10.3204651,11.25 11.6875,11.25 L15.5833333,11.25 L15.5833333,12.9545455 C15.5833333,13.3305775 15.2656555,13.6363636 14.875,13.6363636 Z M15.5833333,9.88636364 L13.9257711,9.88636364 C14.0815837,9.56959116 14.1666667,9.22302247 14.1666667,8.86363636 C14.1666667,8.49742543 14.0777792,8.15152253 13.9240417,7.84090909 L15.5833333,7.84090909 L15.5833333,9.88636364 Z M10.625,8.86363636 C10.625,8.29983797 11.1017761,7.84090909 11.6875,7.84090909 C12.2732239,7.84090909 12.75,8.29983797 12.75,8.86363636 C12.75,9.13662997 12.63915,9.39514159 12.4428711,9.58573773 C12.2396749,9.7796631 11.97111,9.88636364 11.6875,9.88636364 C11.1017761,9.88636364 10.625,9.42743476 10.625,8.86363636 Z" id="Shape"></path>
                        </g>
                    </g>
                </g>
            </g>
        </g>
    </g>
</svg>